<?xml version="1.0" encoding="UTF-8" standalone="no"?><svg xmlns="http://www.w3.org/2000/svg" xmlns:xlink="http://www.w3.org/1999/xlink" contentScriptType="application/ecmascript" contentStyleType="text/css" height="425px" preserveAspectRatio="none" style="width:686px;height:425px;background:#FFFFFF;" version="1.1" viewBox="0 0 686 425" width="686px" zoomAndPan="magnify"><defs><filter height="300%" id="f1pxtoc8lcjrpz" width="300%" x="-1" y="-1"><feGaussianBlur result="blurOut" stdDeviation="2.0"/><feColorMatrix in="blurOut" result="blurOut2" type="matrix" values="0 0 0 0 0 0 0 0 0 0 0 0 0 0 0 0 0 0 .4 0"/><feOffset dx="4.0" dy="4.0" in="blurOut2" result="blurOut3"/><feBlend in="SourceGraphic" in2="blurOut3" mode="normal"/></filter></defs><g><!--MD5=[792a4393eae3d66525864c2348edad26]
class PairController--><rect fill="#FEFECE" filter="url(#f1pxtoc8lcjrpz)" height="112.0234" id="PairController" style="stroke:#A80036;stroke-width:1.5;" width="232" x="95.7976" y="7"/><ellipse cx="167.5476" cy="23" fill="#ADD1B2" rx="11" ry="11" style="stroke:#A80036;stroke-width:1.0;"/><path d="M169.8914,18.6719 C168.9539,18.2344 168.3601,18.0938 167.4851,18.0938 C164.8601,18.0938 162.8601,20.1719 162.8601,22.8906 L162.8601,24.0156 C162.8601,26.5938 164.9695,28.4844 167.8601,28.4844 C169.0789,28.4844 170.2351,28.1875 170.9851,27.6406 C171.5632,27.2344 171.8914,26.7813 171.8914,26.3906 C171.8914,25.9375 171.5007,25.5469 171.032,25.5469 C170.8132,25.5469 170.6101,25.625 170.4226,25.8125 C169.9695,26.2969 169.9695,26.2969 169.782,26.3906 C169.3601,26.6563 168.6726,26.7813 167.907,26.7813 C165.8601,26.7813 164.5632,25.6875 164.5632,23.9844 L164.5632,22.8906 C164.5632,21.1094 165.8132,19.7969 167.5476,19.7969 C168.1257,19.7969 168.7351,19.9531 169.2039,20.2031 C169.6882,20.4844 169.8601,20.7031 169.9539,21.1094 C170.0164,21.5156 170.0476,21.6406 170.1882,21.7656 C170.3289,21.9063 170.5632,22.0156 170.782,22.0156 C171.0476,22.0156 171.3132,21.875 171.4851,21.6563 C171.5945,21.5 171.6257,21.3125 171.6257,20.8906 L171.6257,19.4688 C171.6257,19.0313 171.6101,18.9063 171.5164,18.75 C171.3601,18.4844 171.0789,18.3438 170.782,18.3438 C170.4851,18.3438 170.282,18.4375 170.0632,18.75 L169.8914,18.6719 Z " fill="#000000"/><text fill="#000000" font-family="sans-serif" font-size="12" lengthAdjust="spacing" textLength="80" x="188.0476" y="27.1543">PairController</text><line style="stroke:#A80036;stroke-width:1.5;" x1="96.7976" x2="326.7976" y1="39" y2="39"/><line style="stroke:#A80036;stroke-width:1.5;" x1="96.7976" x2="326.7976" y1="47" y2="47"/><ellipse cx="106.7976" cy="58" fill="#84BE84" rx="3" ry="3" style="stroke:#038048;stroke-width:1.0;"/><text fill="#000000" font-family="sans-serif" font-size="11" lengthAdjust="spacing" textLength="29" x="115.7976" y="61.2104">pair()</text><ellipse cx="106.7976" cy="70.8047" fill="#84BE84" rx="3" ry="3" style="stroke:#038048;stroke-width:1.0;"/><text fill="#000000" font-family="sans-serif" font-size="11" lengthAdjust="spacing" textLength="206" x="115.7976" y="74.0151">checkTravelledDistance(dist1, dist2)</text><ellipse cx="106.7976" cy="83.6094" fill="#84BE84" rx="3" ry="3" style="stroke:#038048;stroke-width:1.0;"/><text fill="#000000" font-family="sans-serif" font-size="11" lengthAdjust="spacing" textLength="188" x="115.7976" y="86.8198">checkRequirements(ship1, ship2)</text><ellipse cx="106.7976" cy="96.4141" fill="#84BE84" rx="3" ry="3" style="stroke:#038048;stroke-width:1.0;"/><text fill="#000000" font-family="sans-serif" font-size="11" lengthAdjust="spacing" textLength="181" x="115.7976" y="99.6245">getPairs(ship1, ship2, distances)</text><ellipse cx="106.7976" cy="109.2188" fill="#84BE84" rx="3" ry="3" style="stroke:#038048;stroke-width:1.0;"/><text fill="#000000" font-family="sans-serif" font-size="11" lengthAdjust="spacing" textLength="33" x="115.7976" y="112.4292">print()</text><!--MD5=[8a61326b4f5c9e6ed3a15cb6e1c143c5]
class BSTShip--><rect fill="#FEFECE" filter="url(#f1pxtoc8lcjrpz)" height="60.8047" id="BSTShip" style="stroke:#A80036;stroke-width:1.5;" width="81" x="22.2976" y="351"/><ellipse cx="37.2976" cy="367" fill="#ADD1B2" rx="11" ry="11" style="stroke:#A80036;stroke-width:1.0;"/><path d="M39.6413,362.6719 C38.7038,362.2344 38.1101,362.0938 37.2351,362.0938 C34.6101,362.0938 32.6101,364.1719 32.6101,366.8906 L32.6101,368.0156 C32.6101,370.5938 34.7195,372.4844 37.6101,372.4844 C38.8288,372.4844 39.9851,372.1875 40.7351,371.6406 C41.3132,371.2344 41.6413,370.7813 41.6413,370.3906 C41.6413,369.9375 41.2507,369.5469 40.782,369.5469 C40.5632,369.5469 40.3601,369.625 40.1726,369.8125 C39.7195,370.2969 39.7195,370.2969 39.532,370.3906 C39.1101,370.6563 38.4226,370.7813 37.657,370.7813 C35.6101,370.7813 34.3132,369.6875 34.3132,367.9844 L34.3132,366.8906 C34.3132,365.1094 35.5632,363.7969 37.2976,363.7969 C37.8757,363.7969 38.4851,363.9531 38.9538,364.2031 C39.4382,364.4844 39.6101,364.7031 39.7038,365.1094 C39.7663,365.5156 39.7976,365.6406 39.9382,365.7656 C40.0788,365.9063 40.3132,366.0156 40.532,366.0156 C40.7976,366.0156 41.0632,365.875 41.2351,365.6563 C41.3445,365.5 41.3757,365.3125 41.3757,364.8906 L41.3757,363.4688 C41.3757,363.0313 41.3601,362.9063 41.2663,362.75 C41.1101,362.4844 40.8288,362.3438 40.532,362.3438 C40.2351,362.3438 40.032,362.4375 39.8132,362.75 L39.6413,362.6719 Z " fill="#000000"/><text fill="#000000" font-family="sans-serif" font-size="12" lengthAdjust="spacing" textLength="49" x="51.2976" y="371.1543">BSTShip</text><line style="stroke:#A80036;stroke-width:1.5;" x1="23.2976" x2="102.2976" y1="383" y2="383"/><line style="stroke:#A80036;stroke-width:1.5;" x1="23.2976" x2="102.2976" y1="391" y2="391"/><ellipse cx="33.2976" cy="402" fill="#84BE84" rx="3" ry="3" style="stroke:#038048;stroke-width:1.0;"/><text fill="#000000" font-family="sans-serif" font-size="11" lengthAdjust="spacing" textLength="50" x="42.2976" y="405.2104">inOrder()</text><!--MD5=[02e4b9b7573f1156f41e60aa5b4e25a4]
class Company--><rect fill="#FEFECE" filter="url(#f1pxtoc8lcjrpz)" height="99.2188" id="Company" style="stroke:#A80036;stroke-width:1.5;" width="149" x="52.2976" y="185.5"/><ellipse cx="94.7476" cy="201.5" fill="#ADD1B2" rx="11" ry="11" style="stroke:#A80036;stroke-width:1.0;"/><path d="M97.0914,197.1719 C96.1539,196.7344 95.5601,196.5938 94.6851,196.5938 C92.0601,196.5938 90.0601,198.6719 90.0601,201.3906 L90.0601,202.5156 C90.0601,205.0938 92.1695,206.9844 95.0601,206.9844 C96.2789,206.9844 97.4351,206.6875 98.1851,206.1406 C98.7632,205.7344 99.0914,205.2813 99.0914,204.8906 C99.0914,204.4375 98.7007,204.0469 98.232,204.0469 C98.0132,204.0469 97.8101,204.125 97.6226,204.3125 C97.1695,204.7969 97.1695,204.7969 96.982,204.8906 C96.5601,205.1563 95.8726,205.2813 95.107,205.2813 C93.0601,205.2813 91.7632,204.1875 91.7632,202.4844 L91.7632,201.3906 C91.7632,199.6094 93.0132,198.2969 94.7476,198.2969 C95.3257,198.2969 95.9351,198.4531 96.4039,198.7031 C96.8882,198.9844 97.0601,199.2031 97.1539,199.6094 C97.2164,200.0156 97.2476,200.1406 97.3882,200.2656 C97.5289,200.4063 97.7632,200.5156 97.982,200.5156 C98.2476,200.5156 98.5132,200.375 98.6851,200.1563 C98.7945,200 98.8257,199.8125 98.8257,199.3906 L98.8257,197.9688 C98.8257,197.5313 98.8101,197.4063 98.7164,197.25 C98.5601,196.9844 98.2789,196.8438 97.982,196.8438 C97.6851,196.8438 97.482,196.9375 97.2632,197.25 L97.0914,197.1719 Z " fill="#000000"/><text fill="#000000" font-family="sans-serif" font-size="12" lengthAdjust="spacing" textLength="56" x="114.8476" y="205.6543">Company</text><line style="stroke:#A80036;stroke-width:1.5;" x1="53.2976" x2="200.2976" y1="217.5" y2="217.5"/><rect fill="none" height="6" style="stroke:#C82930;stroke-width:1.0;" width="6" x="60.2976" y="225.5"/><text fill="#000000" font-family="sans-serif" font-size="11" lengthAdjust="spacing" textLength="103" x="72.2976" y="231.7104">bstShips: BSTShip</text><line style="stroke:#A80036;stroke-width:1.5;" x1="53.2976" x2="200.2976" y1="238.3047" y2="238.3047"/><ellipse cx="63.2976" cy="249.3047" fill="#84BE84" rx="3" ry="3" style="stroke:#038048;stroke-width:1.0;"/><text fill="#000000" font-family="sans-serif" font-size="11" lengthAdjust="spacing" textLength="62" x="72.2976" y="252.5151">Company()</text><ellipse cx="63.2976" cy="262.1094" fill="#84BE84" rx="3" ry="3" style="stroke:#038048;stroke-width:1.0;"/><text fill="#000000" font-family="sans-serif" font-size="11" lengthAdjust="spacing" textLength="76" x="72.2976" y="265.3198">getBstShips()</text><ellipse cx="63.2976" cy="274.9141" fill="#84BE84" rx="3" ry="3" style="stroke:#038048;stroke-width:1.0;"/><text fill="#000000" font-family="sans-serif" font-size="11" lengthAdjust="spacing" textLength="123" x="72.2976" y="278.1245">setBstShips(ShipBST)</text><!--MD5=[0dc7f2ddb409b58bcf52b12238c25399]
class Ship--><rect fill="#FEFECE" filter="url(#f1pxtoc8lcjrpz)" height="60.8047" id="Ship" style="stroke:#A80036;stroke-width:1.5;" width="121" x="236.2976" y="204.5"/><ellipse cx="279.6476" cy="220.5" fill="#ADD1B2" rx="11" ry="11" style="stroke:#A80036;stroke-width:1.0;"/><path d="M281.9914,216.1719 C281.0539,215.7344 280.4601,215.5938 279.5851,215.5938 C276.9601,215.5938 274.9601,217.6719 274.9601,220.3906 L274.9601,221.5156 C274.9601,224.0938 277.0695,225.9844 279.9601,225.9844 C281.1789,225.9844 282.3351,225.6875 283.0851,225.1406 C283.6632,224.7344 283.9914,224.2813 283.9914,223.8906 C283.9914,223.4375 283.6007,223.0469 283.132,223.0469 C282.9132,223.0469 282.7101,223.125 282.5226,223.3125 C282.0695,223.7969 282.0695,223.7969 281.882,223.8906 C281.4601,224.1563 280.7726,224.2813 280.007,224.2813 C277.9601,224.2813 276.6632,223.1875 276.6632,221.4844 L276.6632,220.3906 C276.6632,218.6094 277.9132,217.2969 279.6476,217.2969 C280.2257,217.2969 280.8351,217.4531 281.3039,217.7031 C281.7882,217.9844 281.9601,218.2031 282.0539,218.6094 C282.1164,219.0156 282.1476,219.1406 282.2882,219.2656 C282.4289,219.4063 282.6632,219.5156 282.882,219.5156 C283.1476,219.5156 283.4132,219.375 283.5851,219.1563 C283.6945,219 283.7257,218.8125 283.7257,218.3906 L283.7257,216.9688 C283.7257,216.5313 283.7101,216.4063 283.6164,216.25 C283.4601,215.9844 283.1789,215.8438 282.882,215.8438 C282.5851,215.8438 282.382,215.9375 282.1632,216.25 L281.9914,216.1719 Z " fill="#000000"/><text fill="#000000" font-family="sans-serif" font-size="12" lengthAdjust="spacing" textLength="26" x="299.9476" y="224.6543">Ship</text><line style="stroke:#A80036;stroke-width:1.5;" x1="237.2976" x2="356.2976" y1="236.5" y2="236.5"/><line style="stroke:#A80036;stroke-width:1.5;" x1="237.2976" x2="356.2976" y1="244.5" y2="244.5"/><ellipse cx="247.2976" cy="255.5" fill="#84BE84" rx="3" ry="3" style="stroke:#038048;stroke-width:1.0;"/><text fill="#000000" font-family="sans-serif" font-size="11" lengthAdjust="spacing" textLength="95" x="256.2976" y="258.7104">getBstDynData()</text><!--MD5=[7ae728e7109ce15ce9192deec798997c]
class BSTDynData--><rect fill="#FEFECE" filter="url(#f1pxtoc8lcjrpz)" height="112.0234" id="BSTDynData" style="stroke:#A80036;stroke-width:1.5;" width="280" x="392.7976" y="179"/><ellipse cx="492.0476" cy="195" fill="#ADD1B2" rx="11" ry="11" style="stroke:#A80036;stroke-width:1.0;"/><path d="M494.3914,190.6719 C493.4539,190.2344 492.8601,190.0938 491.9851,190.0938 C489.3601,190.0938 487.3601,192.1719 487.3601,194.8906 L487.3601,196.0156 C487.3601,198.5938 489.4695,200.4844 492.3601,200.4844 C493.5789,200.4844 494.7351,200.1875 495.4851,199.6406 C496.0632,199.2344 496.3914,198.7813 496.3914,198.3906 C496.3914,197.9375 496.0007,197.5469 495.532,197.5469 C495.3132,197.5469 495.1101,197.625 494.9226,197.8125 C494.4695,198.2969 494.4695,198.2969 494.282,198.3906 C493.8601,198.6563 493.1726,198.7813 492.407,198.7813 C490.3601,198.7813 489.0632,197.6875 489.0632,195.9844 L489.0632,194.8906 C489.0632,193.1094 490.3132,191.7969 492.0476,191.7969 C492.6257,191.7969 493.2351,191.9531 493.7039,192.2031 C494.1882,192.4844 494.3601,192.7031 494.4539,193.1094 C494.5164,193.5156 494.5476,193.6406 494.6882,193.7656 C494.8289,193.9063 495.0632,194.0156 495.282,194.0156 C495.5476,194.0156 495.8132,193.875 495.9851,193.6563 C496.0945,193.5 496.1257,193.3125 496.1257,192.8906 L496.1257,191.4688 C496.1257,191.0313 496.1101,190.9063 496.0164,190.75 C495.8601,190.4844 495.5789,190.3438 495.282,190.3438 C494.9851,190.3438 494.782,190.4375 494.5632,190.75 L494.3914,190.6719 Z " fill="#000000"/><text fill="#000000" font-family="sans-serif" font-size="12" lengthAdjust="spacing" textLength="73" x="512.5476" y="199.1543">BSTDynData</text><line style="stroke:#A80036;stroke-width:1.5;" x1="393.7976" x2="671.7976" y1="211" y2="211"/><line style="stroke:#A80036;stroke-width:1.5;" x1="393.7976" x2="671.7976" y1="219" y2="219"/><ellipse cx="403.7976" cy="230" fill="#84BE84" rx="3" ry="3" style="stroke:#038048;stroke-width:1.0;"/><text fill="#000000" font-family="sans-serif" font-size="11" lengthAdjust="spacing" textLength="50" x="412.7976" y="233.2104">inOrder()</text><ellipse cx="403.7976" cy="242.8047" fill="#84BE84" rx="3" ry="3" style="stroke:#038048;stroke-width:1.0;"/><text fill="#000000" font-family="sans-serif" font-size="11" lengthAdjust="spacing" textLength="64" x="412.7976" y="246.0151">departure()</text><ellipse cx="403.7976" cy="255.6094" fill="#84BE84" rx="3" ry="3" style="stroke:#038048;stroke-width:1.0;"/><text fill="#000000" font-family="sans-serif" font-size="11" lengthAdjust="spacing" textLength="43" x="412.7976" y="258.8198">arrival()</text><ellipse cx="403.7976" cy="268.4141" fill="#84BE84" rx="3" ry="3" style="stroke:#038048;stroke-width:1.0;"/><text fill="#000000" font-family="sans-serif" font-size="11" lengthAdjust="spacing" textLength="109" x="412.7976" y="271.6245">travelledDistance()</text><ellipse cx="403.7976" cy="281.2188" fill="#84BE84" rx="3" ry="3" style="stroke:#038048;stroke-width:1.0;"/><text fill="#000000" font-family="sans-serif" font-size="11" lengthAdjust="spacing" textLength="254" x="412.7976" y="284.4292">inorderCalculateDistance(date1S1, date2S1)</text><!--MD5=[c36a4bba93d9fc4959731c0ac1f86947]
link PairController to BSTShip--><path codeLine="1" d="M95.6812,115.793 C71.3132,132.342 48.7834,153.235 34.7976,179 C6,232.052 28.135,304.08 46.0304,346.0998 " fill="none" id="PairController-to-BSTShip" style="stroke:#A80036;stroke-width:1.0;stroke-dasharray:7.0,7.0;"/><polygon fill="#A80036" points="48.0774,350.8215,48.1674,340.9731,46.0885,346.2341,40.8275,344.1552,48.0774,350.8215" style="stroke:#A80036;stroke-width:1.0;"/><!--MD5=[4e4c020c68df507775bf8993772c7800]
link PairController to Company--><path codeLine="2" d="M184.2006,119.194 C174.3686,138.857 163.3196,160.956 153.5596,180.477 " fill="none" id="PairController-to-Company" style="stroke:#A80036;stroke-width:1.0;stroke-dasharray:7.0,7.0;"/><polygon fill="#A80036" points="151.1076,185.381,158.7094,179.119,153.3431,180.9086,151.5536,175.5422,151.1076,185.381" style="stroke:#A80036;stroke-width:1.0;"/><!--MD5=[da8b44b4629e6fdbbbe7c5c2fe8fe705]
link PairController to Ship--><path codeLine="3" d="M239.3946,119.194 C252.6646,145.734 268.1546,176.714 279.6966,199.798 " fill="none" id="PairController-to-Ship" style="stroke:#A80036;stroke-width:1.0;stroke-dasharray:7.0,7.0;"/><polygon fill="#A80036" points="281.9506,204.306,281.5009,194.4674,279.7134,199.8344,274.3464,198.047,281.9506,204.306" style="stroke:#A80036;stroke-width:1.0;"/><!--MD5=[8324e90e30363818441acbd5bd59ae1b]
link PairController to BSTDynData--><path codeLine="4" d="M316.0166,119.194 C350.6196,137.519 389.2166,157.96 424.1446,176.458 " fill="none" id="PairController-to-BSTDynData" style="stroke:#A80036;stroke-width:1.0;stroke-dasharray:7.0,7.0;"/><polygon fill="#A80036" points="428.8266,178.937,422.7451,171.19,424.408,176.597,419.001,178.2598,428.8266,178.937" style="stroke:#A80036;stroke-width:1.0;"/><!--MD5=[662567d9e10e593fef100fb7b5669386]
link Company to BSTShip--><path codeLine="17" d="M105.3085,284.518 C96.3367,304.775 86.1249,327.8314 77.9588,346.2688 " fill="none" id="Company-to-BSTShip" style="stroke:#A80036;stroke-width:1.0;stroke-dasharray:7.0,7.0;"/><polygon fill="#A80036" points="75.9288,350.8522,83.2309,344.2432,77.9537,346.2806,75.9163,341.0034,75.9288,350.8522" style="stroke:#A80036;stroke-width:1.0;"/><!--MD5=[cc37826764962457c81011e90bd4c16e]
@startuml
PairController ..>BSTShip
PairController ..>Company
PairController ..>Ship
PairController ..>BSTDynData

PairController : +pair()
PairController : +checkTravelledDistance(dist1, dist2)
PairController : +checkRequirements(ship1, ship2)
PairController : +getPairs(ship1, ship2, distances)
PairController : +print()

Company : -bstShips: BSTShip
Company : +Company()
Company : +getBstShips()
Company : +setBstShips(ShipBST)

Company ..>BSTShip

BSTDynData : +inOrder()
BSTDynData : +departure()
BSTDynData : +arrival()
BSTDynData : +travelledDistance()
BSTDynData : +inorderCalculateDistance(date1S1, date2S1)

BSTShip : +inOrder()

Ship : +getBstDynData()
@enduml

PlantUML version 1.2021.14(Fri Nov 12 16:46:50 UTC 2021)
(GPL source distribution)
Java Runtime: Java(TM) SE Runtime Environment
JVM: Java HotSpot(TM) 64-Bit Server VM
Default Encoding: UTF-8
Language: en
Country: US
--></g></svg>