<?xml version="1.0" encoding="UTF-8" standalone="no"?><svg xmlns="http://www.w3.org/2000/svg" xmlns:xlink="http://www.w3.org/1999/xlink" contentScriptType="application/ecmascript" contentStyleType="text/css" height="437px" preserveAspectRatio="none" style="width:1429px;height:437px;" version="1.1" viewBox="0 0 1429 437" width="1429px" zoomAndPan="magnify"><defs><filter height="300%" id="fhyniap5ufjl" width="300%" x="-1" y="-1"><feGaussianBlur result="blurOut" stdDeviation="2.0"/><feColorMatrix in="blurOut" result="blurOut2" type="matrix" values="0 0 0 0 0 0 0 0 0 0 0 0 0 0 0 0 0 0 .4 0"/><feOffset dx="4.0" dy="4.0" in="blurOut2" result="blurOut3"/><feBlend in="SourceGraphic" in2="blurOut3" mode="normal"/></filter></defs><g><!--MD5=[08ce13b08eea6363b854c27686b963d8]
class BuildFreightNetworkController--><rect fill="#FEFECE" filter="url(#fhyniap5ufjl)" height="75.6719" id="BuildFreightNetworkController" style="stroke:#A80036;stroke-width:1.5;" width="197" x="408.5" y="7"/><ellipse cx="423.5" cy="23" fill="#ADD1B2" rx="11" ry="11" style="stroke:#A80036;stroke-width:1.0;"/><path d="M425.5,19.5 Q425.7031,19 425.9375,18.75 Q426.1719,18.5 426.4375,18.5 Q426.9063,18.5 427.2031,18.7813 Q427.5,19.0625 427.5,19.7188 L427.5,21.2813 Q427.5,21.9375 427.2188,22.2188 Q426.9375,22.5 426.5,22.5 Q426.1094,22.5 425.8594,22.3281 Q425.6094,22.1563 425.5,21.7031 Q425.4531,21.3906 425.2813,21.2188 Q424.9688,20.8906 424.4063,20.7031 Q423.8438,20.5 423.2813,20.5 Q422.5781,20.5 421.9844,20.7813 Q421.4063,21.0625 420.9531,21.6875 Q420.5,22.3125 420.5,23.1719 L420.5,24.0938 Q420.5,25.125 421.3438,25.8125 Q422.1875,26.5 423.6875,26.5 Q424.5781,26.5 425.2031,26.2969 Q425.5625,26.1875 425.9688,25.8281 Q426.2344,25.625 426.375,25.5625 Q426.5156,25.5 426.6875,25.5 Q427.0156,25.5 427.25,25.7656 Q427.5,26.0156 427.5,26.375 Q427.5,26.7188 427.1563,27.125 Q426.6563,27.7188 425.8594,28.0469 Q424.8125,28.5 423.5313,28.5 Q422.0313,28.5 420.8281,27.9063 Q419.8594,27.4375 419.1719,26.4219 Q418.5,25.4063 418.5,24.2031 L418.5,23.1094 Q418.5,21.8594 419.0938,20.7656 Q419.7031,19.6719 420.75,19.0938 Q421.8125,18.5 423,18.5 Q423.7188,18.5 424.3438,18.75 Q424.9688,19 425.5,19.5 Z " fill="#000000"/><text fill="#000000" font-family="sans-serif" font-size="12" lengthAdjust="spacing" textLength="165" x="437.5" y="27.9102">BuildFreightNetworkController</text><line style="stroke:#A80036;stroke-width:1.5;" x1="409.5" x2="604.5" y1="39" y2="39"/><line style="stroke:#A80036;stroke-width:1.5;" x1="409.5" x2="604.5" y1="47" y2="47"/><ellipse cx="419.5" cy="58" fill="#84BE84" rx="3" ry="3" style="stroke:#038048;stroke-width:1.0;"/><text fill="#000000" font-family="sans-serif" font-size="11" lengthAdjust="spacing" textLength="129" x="428.5" y="62.4189">ImportDataFromDatabase()</text><ellipse cx="419.5" cy="71.8359" fill="#84BE84" rx="3" ry="3" style="stroke:#038048;stroke-width:1.0;"/><text fill="#000000" font-family="sans-serif" font-size="11" lengthAdjust="spacing" textLength="105" x="428.5" y="76.2549">BuildFreightNetwork()</text><!--MD5=[02e4b9b7573f1156f41e60aa5b4e25a4]
class Company--><rect fill="#FEFECE" filter="url(#fhyniap5ufjl)" height="131.0156" id="Company" style="stroke:#A80036;stroke-width:1.5;" width="129" x="200.5" y="157"/><ellipse cx="235.3" cy="173" fill="#ADD1B2" rx="11" ry="11" style="stroke:#A80036;stroke-width:1.0;"/><path d="M237.3,169.5 Q237.5031,169 237.7375,168.75 Q237.9719,168.5 238.2375,168.5 Q238.7063,168.5 239.0031,168.7813 Q239.3,169.0625 239.3,169.7188 L239.3,171.2813 Q239.3,171.9375 239.0188,172.2188 Q238.7375,172.5 238.3,172.5 Q237.9094,172.5 237.6594,172.3281 Q237.4094,172.1563 237.3,171.7031 Q237.2531,171.3906 237.0813,171.2188 Q236.7688,170.8906 236.2063,170.7031 Q235.6438,170.5 235.0813,170.5 Q234.3781,170.5 233.7844,170.7813 Q233.2063,171.0625 232.7531,171.6875 Q232.3,172.3125 232.3,173.1719 L232.3,174.0938 Q232.3,175.125 233.1438,175.8125 Q233.9875,176.5 235.4875,176.5 Q236.3781,176.5 237.0031,176.2969 Q237.3625,176.1875 237.7688,175.8281 Q238.0344,175.625 238.175,175.5625 Q238.3156,175.5 238.4875,175.5 Q238.8156,175.5 239.05,175.7656 Q239.3,176.0156 239.3,176.375 Q239.3,176.7188 238.9563,177.125 Q238.4563,177.7188 237.6594,178.0469 Q236.6125,178.5 235.3313,178.5 Q233.8313,178.5 232.6281,177.9063 Q231.6594,177.4375 230.9719,176.4219 Q230.3,175.4063 230.3,174.2031 L230.3,173.1094 Q230.3,171.8594 230.8938,170.7656 Q231.5031,169.6719 232.55,169.0938 Q233.6125,168.5 234.8,168.5 Q235.5188,168.5 236.1438,168.75 Q236.7688,169 237.3,169.5 Z " fill="#000000"/><text fill="#000000" font-family="sans-serif" font-size="12" lengthAdjust="spacing" textLength="53" x="253.7" y="177.9102">Company</text><line style="stroke:#A80036;stroke-width:1.5;" x1="201.5" x2="328.5" y1="189" y2="189"/><line style="stroke:#A80036;stroke-width:1.5;" x1="201.5" x2="328.5" y1="197" y2="197"/><ellipse cx="211.5" cy="208" fill="#84BE84" rx="3" ry="3" style="stroke:#038048;stroke-width:1.0;"/><text fill="#000000" font-family="sans-serif" font-size="11" lengthAdjust="spacing" textLength="53" x="220.5" y="212.4189">Company()</text><ellipse cx="211.5" cy="221.8359" fill="#84BE84" rx="3" ry="3" style="stroke:#038048;stroke-width:1.0;"/><text fill="#000000" font-family="sans-serif" font-size="11" lengthAdjust="spacing" textLength="64" x="220.5" y="226.2549">getKdtPorts()</text><ellipse cx="211.5" cy="235.6719" fill="#84BE84" rx="3" ry="3" style="stroke:#038048;stroke-width:1.0;"/><text fill="#000000" font-family="sans-serif" font-size="11" lengthAdjust="spacing" textLength="103" x="220.5" y="240.0908">setKdtPorts(PortKDT)</text><ellipse cx="211.5" cy="249.5078" fill="#84BE84" rx="3" ry="3" style="stroke:#038048;stroke-width:1.0;"/><text fill="#000000" font-family="sans-serif" font-size="11" lengthAdjust="spacing" textLength="87" x="220.5" y="253.9268">getCountryStore()</text><ellipse cx="211.5" cy="263.3438" fill="#84BE84" rx="3" ry="3" style="stroke:#038048;stroke-width:1.0;"/><text fill="#000000" font-family="sans-serif" font-size="11" lengthAdjust="spacing" textLength="82" x="220.5" y="267.7627">getBorderStore()</text><ellipse cx="211.5" cy="277.1797" fill="#84BE84" rx="3" ry="3" style="stroke:#038048;stroke-width:1.0;"/><text fill="#000000" font-family="sans-serif" font-size="11" lengthAdjust="spacing" textLength="85" x="220.5" y="281.5986">getSeadistStore()</text><!--MD5=[a0bfe97ac0a38e6e74cc1c7c7b744b71]
class Port--><rect fill="#FEFECE" filter="url(#fhyniap5ufjl)" height="117.1797" id="Port" style="stroke:#A80036;stroke-width:1.5;" width="107" x="507.5" y="164"/><ellipse cx="546.35" cy="180" fill="#ADD1B2" rx="11" ry="11" style="stroke:#A80036;stroke-width:1.0;"/><path d="M548.35,176.5 Q548.5531,176 548.7875,175.75 Q549.0219,175.5 549.2875,175.5 Q549.7563,175.5 550.0531,175.7813 Q550.35,176.0625 550.35,176.7188 L550.35,178.2813 Q550.35,178.9375 550.0688,179.2188 Q549.7875,179.5 549.35,179.5 Q548.9594,179.5 548.7094,179.3281 Q548.4594,179.1563 548.35,178.7031 Q548.3031,178.3906 548.1313,178.2188 Q547.8188,177.8906 547.2563,177.7031 Q546.6938,177.5 546.1313,177.5 Q545.4281,177.5 544.8344,177.7813 Q544.2563,178.0625 543.8031,178.6875 Q543.35,179.3125 543.35,180.1719 L543.35,181.0938 Q543.35,182.125 544.1938,182.8125 Q545.0375,183.5 546.5375,183.5 Q547.4281,183.5 548.0531,183.2969 Q548.4125,183.1875 548.8188,182.8281 Q549.0844,182.625 549.225,182.5625 Q549.3656,182.5 549.5375,182.5 Q549.8656,182.5 550.1,182.7656 Q550.35,183.0156 550.35,183.375 Q550.35,183.7188 550.0063,184.125 Q549.5063,184.7188 548.7094,185.0469 Q547.6625,185.5 546.3813,185.5 Q544.8813,185.5 543.6781,184.9063 Q542.7094,184.4375 542.0219,183.4219 Q541.35,182.4063 541.35,181.2031 L541.35,180.1094 Q541.35,178.8594 541.9438,177.7656 Q542.5531,176.6719 543.6,176.0938 Q544.6625,175.5 545.85,175.5 Q546.5688,175.5 547.1938,175.75 Q547.8188,176 548.35,176.5 Z " fill="#000000"/><text fill="#000000" font-family="sans-serif" font-size="12" lengthAdjust="spacing" textLength="22" x="565.65" y="184.9102">Port</text><line style="stroke:#A80036;stroke-width:1.5;" x1="508.5" x2="613.5" y1="196" y2="196"/><rect fill="none" height="6" style="stroke:#C82930;stroke-width:1.0;" width="6" x="515.5" y="204"/><text fill="#000000" font-family="sans-serif" font-size="11" lengthAdjust="spacing" textLength="41" x="527.5" y="211.4189">code: int</text><rect fill="none" height="6" style="stroke:#C82930;stroke-width:1.0;" width="6" x="515.5" y="217.8359"/><text fill="#000000" font-family="sans-serif" font-size="11" lengthAdjust="spacing" textLength="60" x="527.5" y="225.2549">name: String</text><rect fill="none" height="6" style="stroke:#C82930;stroke-width:1.0;" width="6" x="515.5" y="231.6719"/><text fill="#000000" font-family="sans-serif" font-size="11" lengthAdjust="spacing" textLength="81" x="527.5" y="239.0908">country: Country</text><rect fill="none" height="6" style="stroke:#C82930;stroke-width:1.0;" width="6" x="515.5" y="245.5078"/><text fill="#000000" font-family="sans-serif" font-size="11" lengthAdjust="spacing" textLength="61" x="527.5" y="252.9268">latitude: float</text><rect fill="none" height="6" style="stroke:#C82930;stroke-width:1.0;" width="6" x="515.5" y="259.3438"/><text fill="#000000" font-family="sans-serif" font-size="11" lengthAdjust="spacing" textLength="70" x="527.5" y="266.7627">longitude: float</text><line style="stroke:#A80036;stroke-width:1.5;" x1="508.5" x2="613.5" y1="273.1797" y2="273.1797"/><!--MD5=[f14c97f009274192f499f18aa48d69a9]
class KdtPort--><rect fill="#FEFECE" filter="url(#fhyniap5ufjl)" height="61.8359" id="KdtPort" style="stroke:#A80036;stroke-width:1.5;" width="72" x="7" y="362"/><ellipse cx="22" cy="378" fill="#ADD1B2" rx="11" ry="11" style="stroke:#A80036;stroke-width:1.0;"/><path d="M24,374.5 Q24.2031,374 24.4375,373.75 Q24.6719,373.5 24.9375,373.5 Q25.4063,373.5 25.7031,373.7813 Q26,374.0625 26,374.7188 L26,376.2813 Q26,376.9375 25.7188,377.2188 Q25.4375,377.5 25,377.5 Q24.6094,377.5 24.3594,377.3281 Q24.1094,377.1563 24,376.7031 Q23.9531,376.3906 23.7813,376.2188 Q23.4688,375.8906 22.9063,375.7031 Q22.3438,375.5 21.7813,375.5 Q21.0781,375.5 20.4844,375.7813 Q19.9063,376.0625 19.4531,376.6875 Q19,377.3125 19,378.1719 L19,379.0938 Q19,380.125 19.8438,380.8125 Q20.6875,381.5 22.1875,381.5 Q23.0781,381.5 23.7031,381.2969 Q24.0625,381.1875 24.4688,380.8281 Q24.7344,380.625 24.875,380.5625 Q25.0156,380.5 25.1875,380.5 Q25.5156,380.5 25.75,380.7656 Q26,381.0156 26,381.375 Q26,381.7188 25.6563,382.125 Q25.1563,382.7188 24.3594,383.0469 Q23.3125,383.5 22.0313,383.5 Q20.5313,383.5 19.3281,382.9063 Q18.3594,382.4375 17.6719,381.4219 Q17,380.4063 17,379.2031 L17,378.1094 Q17,376.8594 17.5938,375.7656 Q18.2031,374.6719 19.25,374.0938 Q20.3125,373.5 21.5,373.5 Q22.2188,373.5 22.8438,373.75 Q23.4688,374 24,374.5 Z " fill="#000000"/><text fill="#000000" font-family="sans-serif" font-size="12" lengthAdjust="spacing" textLength="40" x="36" y="382.9102">KdtPort</text><line style="stroke:#A80036;stroke-width:1.5;" x1="8" x2="78" y1="394" y2="394"/><line style="stroke:#A80036;stroke-width:1.5;" x1="8" x2="78" y1="402" y2="402"/><ellipse cx="18" cy="413" fill="#84BE84" rx="3" ry="3" style="stroke:#038048;stroke-width:1.0;"/><text fill="#000000" font-family="sans-serif" font-size="11" lengthAdjust="spacing" textLength="44" x="27" y="417.4189">inOrder()</text><!--MD5=[1fa23e875f7ea39406cc4f0fd95e1dab]
class CountryStore--><rect fill="#FEFECE" filter="url(#fhyniap5ufjl)" height="61.8359" id="CountryStore" style="stroke:#A80036;stroke-width:1.5;" width="103" x="114.5" y="362"/><ellipse cx="129.5" cy="378" fill="#ADD1B2" rx="11" ry="11" style="stroke:#A80036;stroke-width:1.0;"/><path d="M131.5,374.5 Q131.7031,374 131.9375,373.75 Q132.1719,373.5 132.4375,373.5 Q132.9063,373.5 133.2031,373.7813 Q133.5,374.0625 133.5,374.7188 L133.5,376.2813 Q133.5,376.9375 133.2188,377.2188 Q132.9375,377.5 132.5,377.5 Q132.1094,377.5 131.8594,377.3281 Q131.6094,377.1563 131.5,376.7031 Q131.4531,376.3906 131.2813,376.2188 Q130.9688,375.8906 130.4063,375.7031 Q129.8438,375.5 129.2813,375.5 Q128.5781,375.5 127.9844,375.7813 Q127.4063,376.0625 126.9531,376.6875 Q126.5,377.3125 126.5,378.1719 L126.5,379.0938 Q126.5,380.125 127.3438,380.8125 Q128.1875,381.5 129.6875,381.5 Q130.5781,381.5 131.2031,381.2969 Q131.5625,381.1875 131.9688,380.8281 Q132.2344,380.625 132.375,380.5625 Q132.5156,380.5 132.6875,380.5 Q133.0156,380.5 133.25,380.7656 Q133.5,381.0156 133.5,381.375 Q133.5,381.7188 133.1563,382.125 Q132.6563,382.7188 131.8594,383.0469 Q130.8125,383.5 129.5313,383.5 Q128.0313,383.5 126.8281,382.9063 Q125.8594,382.4375 125.1719,381.4219 Q124.5,380.4063 124.5,379.2031 L124.5,378.1094 Q124.5,376.8594 125.0938,375.7656 Q125.7031,374.6719 126.75,374.0938 Q127.8125,373.5 129,373.5 Q129.7188,373.5 130.3438,373.75 Q130.9688,374 131.5,374.5 Z " fill="#000000"/><text fill="#000000" font-family="sans-serif" font-size="12" lengthAdjust="spacing" textLength="71" x="143.5" y="382.9102">CountryStore</text><line style="stroke:#A80036;stroke-width:1.5;" x1="115.5" x2="216.5" y1="394" y2="394"/><line style="stroke:#A80036;stroke-width:1.5;" x1="115.5" x2="216.5" y1="402" y2="402"/><ellipse cx="125.5" cy="413" fill="#84BE84" rx="3" ry="3" style="stroke:#038048;stroke-width:1.0;"/><text fill="#000000" font-family="sans-serif" font-size="11" lengthAdjust="spacing" textLength="69" x="134.5" y="417.4189">getCountries()</text><!--MD5=[1a5e2587019baa51be2acd1776bfe516]
class BorderStore--><rect fill="#FEFECE" filter="url(#fhyniap5ufjl)" height="61.8359" id="BorderStore" style="stroke:#A80036;stroke-width:1.5;" width="126" x="253" y="362"/><ellipse cx="280.6" cy="378" fill="#ADD1B2" rx="11" ry="11" style="stroke:#A80036;stroke-width:1.0;"/><path d="M282.6,374.5 Q282.8031,374 283.0375,373.75 Q283.2719,373.5 283.5375,373.5 Q284.0063,373.5 284.3031,373.7813 Q284.6,374.0625 284.6,374.7188 L284.6,376.2813 Q284.6,376.9375 284.3188,377.2188 Q284.0375,377.5 283.6,377.5 Q283.2094,377.5 282.9594,377.3281 Q282.7094,377.1563 282.6,376.7031 Q282.5531,376.3906 282.3813,376.2188 Q282.0688,375.8906 281.5063,375.7031 Q280.9438,375.5 280.3813,375.5 Q279.6781,375.5 279.0844,375.7813 Q278.5063,376.0625 278.0531,376.6875 Q277.6,377.3125 277.6,378.1719 L277.6,379.0938 Q277.6,380.125 278.4438,380.8125 Q279.2875,381.5 280.7875,381.5 Q281.6781,381.5 282.3031,381.2969 Q282.6625,381.1875 283.0688,380.8281 Q283.3344,380.625 283.475,380.5625 Q283.6156,380.5 283.7875,380.5 Q284.1156,380.5 284.35,380.7656 Q284.6,381.0156 284.6,381.375 Q284.6,381.7188 284.2563,382.125 Q283.7563,382.7188 282.9594,383.0469 Q281.9125,383.5 280.6313,383.5 Q279.1313,383.5 277.9281,382.9063 Q276.9594,382.4375 276.2719,381.4219 Q275.6,380.4063 275.6,379.2031 L275.6,378.1094 Q275.6,376.8594 276.1938,375.7656 Q276.8031,374.6719 277.85,374.0938 Q278.9125,373.5 280.1,373.5 Q280.8188,373.5 281.4438,373.75 Q282.0688,374 282.6,374.5 Z " fill="#000000"/><text fill="#000000" font-family="sans-serif" font-size="12" lengthAdjust="spacing" textLength="66" x="297.4" y="382.9102">BorderStore</text><line style="stroke:#A80036;stroke-width:1.5;" x1="254" x2="378" y1="394" y2="394"/><line style="stroke:#A80036;stroke-width:1.5;" x1="254" x2="378" y1="402" y2="402"/><ellipse cx="264" cy="413" fill="#84BE84" rx="3" ry="3" style="stroke:#038048;stroke-width:1.0;"/><text fill="#000000" font-family="sans-serif" font-size="11" lengthAdjust="spacing" textLength="100" x="273" y="417.4189">getBordersCountry()</text><!--MD5=[1422bb85f79f029a0f123e8b9236e461]
class SeadistStore--><rect fill="#FEFECE" filter="url(#fhyniap5ufjl)" height="61.8359" id="SeadistStore" style="stroke:#A80036;stroke-width:1.5;" width="103" x="414.5" y="362"/><ellipse cx="429.5" cy="378" fill="#ADD1B2" rx="11" ry="11" style="stroke:#A80036;stroke-width:1.0;"/><path d="M431.5,374.5 Q431.7031,374 431.9375,373.75 Q432.1719,373.5 432.4375,373.5 Q432.9063,373.5 433.2031,373.7813 Q433.5,374.0625 433.5,374.7188 L433.5,376.2813 Q433.5,376.9375 433.2188,377.2188 Q432.9375,377.5 432.5,377.5 Q432.1094,377.5 431.8594,377.3281 Q431.6094,377.1563 431.5,376.7031 Q431.4531,376.3906 431.2813,376.2188 Q430.9688,375.8906 430.4063,375.7031 Q429.8438,375.5 429.2813,375.5 Q428.5781,375.5 427.9844,375.7813 Q427.4063,376.0625 426.9531,376.6875 Q426.5,377.3125 426.5,378.1719 L426.5,379.0938 Q426.5,380.125 427.3438,380.8125 Q428.1875,381.5 429.6875,381.5 Q430.5781,381.5 431.2031,381.2969 Q431.5625,381.1875 431.9688,380.8281 Q432.2344,380.625 432.375,380.5625 Q432.5156,380.5 432.6875,380.5 Q433.0156,380.5 433.25,380.7656 Q433.5,381.0156 433.5,381.375 Q433.5,381.7188 433.1563,382.125 Q432.6563,382.7188 431.8594,383.0469 Q430.8125,383.5 429.5313,383.5 Q428.0313,383.5 426.8281,382.9063 Q425.8594,382.4375 425.1719,381.4219 Q424.5,380.4063 424.5,379.2031 L424.5,378.1094 Q424.5,376.8594 425.0938,375.7656 Q425.7031,374.6719 426.75,374.0938 Q427.8125,373.5 429,373.5 Q429.7188,373.5 430.3438,373.75 Q430.9688,374 431.5,374.5 Z " fill="#000000"/><text fill="#000000" font-family="sans-serif" font-size="12" lengthAdjust="spacing" textLength="71" x="443.5" y="382.9102">SeadistStore</text><line style="stroke:#A80036;stroke-width:1.5;" x1="415.5" x2="516.5" y1="394" y2="394"/><line style="stroke:#A80036;stroke-width:1.5;" x1="415.5" x2="516.5" y1="402" y2="402"/><ellipse cx="425.5" cy="413" fill="#84BE84" rx="3" ry="3" style="stroke:#038048;stroke-width:1.0;"/><text fill="#000000" font-family="sans-serif" font-size="11" lengthAdjust="spacing" textLength="59" x="434.5" y="417.4189">getSeadist()</text><!--MD5=[deb4e1f6eb1e3c1256fdb830f96abfbb]
class Country--><rect fill="#FEFECE" filter="url(#fhyniap5ufjl)" height="158.6875" id="Country" style="stroke:#A80036;stroke-width:1.5;" width="122" x="650" y="143"/><ellipse cx="686.6" cy="159" fill="#ADD1B2" rx="11" ry="11" style="stroke:#A80036;stroke-width:1.0;"/><path d="M688.6,155.5 Q688.8031,155 689.0375,154.75 Q689.2719,154.5 689.5375,154.5 Q690.0063,154.5 690.3031,154.7813 Q690.6,155.0625 690.6,155.7188 L690.6,157.2813 Q690.6,157.9375 690.3188,158.2188 Q690.0375,158.5 689.6,158.5 Q689.2094,158.5 688.9594,158.3281 Q688.7094,158.1563 688.6,157.7031 Q688.5531,157.3906 688.3813,157.2188 Q688.0688,156.8906 687.5063,156.7031 Q686.9438,156.5 686.3813,156.5 Q685.6781,156.5 685.0844,156.7813 Q684.5063,157.0625 684.0531,157.6875 Q683.6,158.3125 683.6,159.1719 L683.6,160.0938 Q683.6,161.125 684.4438,161.8125 Q685.2875,162.5 686.7875,162.5 Q687.6781,162.5 688.3031,162.2969 Q688.6625,162.1875 689.0688,161.8281 Q689.3344,161.625 689.475,161.5625 Q689.6156,161.5 689.7875,161.5 Q690.1156,161.5 690.35,161.7656 Q690.6,162.0156 690.6,162.375 Q690.6,162.7188 690.2563,163.125 Q689.7563,163.7188 688.9594,164.0469 Q687.9125,164.5 686.6313,164.5 Q685.1313,164.5 683.9281,163.9063 Q682.9594,163.4375 682.2719,162.4219 Q681.6,161.4063 681.6,160.2031 L681.6,159.1094 Q681.6,157.8594 682.1938,156.7656 Q682.8031,155.6719 683.85,155.0938 Q684.9125,154.5 686.1,154.5 Q686.8188,154.5 687.4438,154.75 Q688.0688,155 688.6,155.5 Z " fill="#000000"/><text fill="#000000" font-family="sans-serif" font-size="12" lengthAdjust="spacing" textLength="42" x="705.4" y="163.9102">Country</text><line style="stroke:#A80036;stroke-width:1.5;" x1="651" x2="771" y1="175" y2="175"/><rect fill="none" height="6" style="stroke:#C82930;stroke-width:1.0;" width="6" x="658" y="183"/><text fill="#000000" font-family="sans-serif" font-size="11" lengthAdjust="spacing" textLength="78" x="670" y="190.4189">continent: String</text><rect fill="none" height="6" style="stroke:#C82930;stroke-width:1.0;" width="6" x="658" y="196.8359"/><text fill="#000000" font-family="sans-serif" font-size="11" lengthAdjust="spacing" textLength="60" x="670" y="204.2549">name: String</text><rect fill="none" height="6" style="stroke:#C82930;stroke-width:1.0;" width="6" x="658" y="210.6719"/><text fill="#000000" font-family="sans-serif" font-size="11" lengthAdjust="spacing" textLength="96" x="670" y="218.0908">alpha2_code: String</text><rect fill="none" height="6" style="stroke:#C82930;stroke-width:1.0;" width="6" x="658" y="224.5078"/><text fill="#000000" font-family="sans-serif" font-size="11" lengthAdjust="spacing" textLength="96" x="670" y="231.9268">alpha3_code: String</text><rect fill="none" height="6" style="stroke:#C82930;stroke-width:1.0;" width="6" x="658" y="238.3438"/><text fill="#000000" font-family="sans-serif" font-size="11" lengthAdjust="spacing" textLength="65" x="670" y="245.7627">capital: String</text><rect fill="none" height="6" style="stroke:#C82930;stroke-width:1.0;" width="6" x="658" y="252.1797"/><text fill="#000000" font-family="sans-serif" font-size="11" lengthAdjust="spacing" textLength="61" x="670" y="259.5986">latitude: float</text><rect fill="none" height="6" style="stroke:#C82930;stroke-width:1.0;" width="6" x="658" y="266.0156"/><text fill="#000000" font-family="sans-serif" font-size="11" lengthAdjust="spacing" textLength="70" x="670" y="273.4346">longitude: float</text><rect fill="none" height="6" style="stroke:#C82930;stroke-width:1.0;" width="6" x="658" y="279.8516"/><text fill="#000000" font-family="sans-serif" font-size="11" lengthAdjust="spacing" textLength="76" x="670" y="287.2705">population: float</text><line style="stroke:#A80036;stroke-width:1.5;" x1="651" x2="771" y1="293.6875" y2="293.6875"/><!--MD5=[a0336aaa8110b78d9cacadb9d45e00a3]
class Border--><rect fill="#FEFECE" filter="url(#fhyniap5ufjl)" height="75.6719" id="Border" style="stroke:#A80036;stroke-width:1.5;" width="140" x="807" y="184.5"/><ellipse cx="854.25" cy="200.5" fill="#ADD1B2" rx="11" ry="11" style="stroke:#A80036;stroke-width:1.0;"/><path d="M856.25,197 Q856.4531,196.5 856.6875,196.25 Q856.9219,196 857.1875,196 Q857.6563,196 857.9531,196.2813 Q858.25,196.5625 858.25,197.2188 L858.25,198.7813 Q858.25,199.4375 857.9688,199.7188 Q857.6875,200 857.25,200 Q856.8594,200 856.6094,199.8281 Q856.3594,199.6563 856.25,199.2031 Q856.2031,198.8906 856.0313,198.7188 Q855.7188,198.3906 855.1563,198.2031 Q854.5938,198 854.0313,198 Q853.3281,198 852.7344,198.2813 Q852.1563,198.5625 851.7031,199.1875 Q851.25,199.8125 851.25,200.6719 L851.25,201.5938 Q851.25,202.625 852.0938,203.3125 Q852.9375,204 854.4375,204 Q855.3281,204 855.9531,203.7969 Q856.3125,203.6875 856.7188,203.3281 Q856.9844,203.125 857.125,203.0625 Q857.2656,203 857.4375,203 Q857.7656,203 858,203.2656 Q858.25,203.5156 858.25,203.875 Q858.25,204.2188 857.9063,204.625 Q857.4063,205.2188 856.6094,205.5469 Q855.5625,206 854.2813,206 Q852.7813,206 851.5781,205.4063 Q850.6094,204.9375 849.9219,203.9219 Q849.25,202.9063 849.25,201.7031 L849.25,200.6094 Q849.25,199.3594 849.8438,198.2656 Q850.4531,197.1719 851.5,196.5938 Q852.5625,196 853.75,196 Q854.4688,196 855.0938,196.25 Q855.7188,196.5 856.25,197 Z " fill="#000000"/><text fill="#000000" font-family="sans-serif" font-size="12" lengthAdjust="spacing" textLength="37" x="874.75" y="205.4102">Border</text><line style="stroke:#A80036;stroke-width:1.5;" x1="808" x2="946" y1="216.5" y2="216.5"/><rect fill="none" height="6" style="stroke:#C82930;stroke-width:1.0;" width="6" x="815" y="224.5"/><text fill="#000000" font-family="sans-serif" font-size="11" lengthAdjust="spacing" textLength="114" x="827" y="231.9189">countryName1: Country</text><rect fill="none" height="6" style="stroke:#C82930;stroke-width:1.0;" width="6" x="815" y="238.3359"/><text fill="#000000" font-family="sans-serif" font-size="11" lengthAdjust="spacing" textLength="114" x="827" y="245.7549">countryName2: Country</text><line style="stroke:#A80036;stroke-width:1.5;" x1="808" x2="946" y1="252.1719" y2="252.1719"/><!--MD5=[e24af10a0367b93d82d6bdd24a6ec764]
class Seadist--><rect fill="#FEFECE" filter="url(#fhyniap5ufjl)" height="144.8516" id="Seadist" style="stroke:#A80036;stroke-width:1.5;" width="147" x="982.5" y="150"/><ellipse cx="1030.75" cy="166" fill="#ADD1B2" rx="11" ry="11" style="stroke:#A80036;stroke-width:1.0;"/><path d="M1032.75,162.5 Q1032.9531,162 1033.1875,161.75 Q1033.4219,161.5 1033.6875,161.5 Q1034.1563,161.5 1034.4531,161.7813 Q1034.75,162.0625 1034.75,162.7188 L1034.75,164.2813 Q1034.75,164.9375 1034.4688,165.2188 Q1034.1875,165.5 1033.75,165.5 Q1033.3594,165.5 1033.1094,165.3281 Q1032.8594,165.1563 1032.75,164.7031 Q1032.7031,164.3906 1032.5313,164.2188 Q1032.2188,163.8906 1031.6563,163.7031 Q1031.0938,163.5 1030.5313,163.5 Q1029.8281,163.5 1029.2344,163.7813 Q1028.6563,164.0625 1028.2031,164.6875 Q1027.75,165.3125 1027.75,166.1719 L1027.75,167.0938 Q1027.75,168.125 1028.5938,168.8125 Q1029.4375,169.5 1030.9375,169.5 Q1031.8281,169.5 1032.4531,169.2969 Q1032.8125,169.1875 1033.2188,168.8281 Q1033.4844,168.625 1033.625,168.5625 Q1033.7656,168.5 1033.9375,168.5 Q1034.2656,168.5 1034.5,168.7656 Q1034.75,169.0156 1034.75,169.375 Q1034.75,169.7188 1034.4063,170.125 Q1033.9063,170.7188 1033.1094,171.0469 Q1032.0625,171.5 1030.7813,171.5 Q1029.2813,171.5 1028.0781,170.9063 Q1027.1094,170.4375 1026.4219,169.4219 Q1025.75,168.4063 1025.75,167.2031 L1025.75,166.1094 Q1025.75,164.8594 1026.3438,163.7656 Q1026.9531,162.6719 1028,162.0938 Q1029.0625,161.5 1030.25,161.5 Q1030.9688,161.5 1031.5938,161.75 Q1032.2188,162 1032.75,162.5 Z " fill="#000000"/><text fill="#000000" font-family="sans-serif" font-size="12" lengthAdjust="spacing" textLength="42" x="1051.25" y="170.9102">Seadist</text><line style="stroke:#A80036;stroke-width:1.5;" x1="983.5" x2="1128.5" y1="182" y2="182"/><rect fill="none" height="6" style="stroke:#C82930;stroke-width:1.0;" width="6" x="990.5" y="190"/><text fill="#000000" font-family="sans-serif" font-size="11" lengthAdjust="spacing" textLength="121" x="1002.5" y="197.4189">fromCountryName: String</text><rect fill="none" height="6" style="stroke:#C82930;stroke-width:1.0;" width="6" x="990.5" y="203.8359"/><text fill="#000000" font-family="sans-serif" font-size="11" lengthAdjust="spacing" textLength="66" x="1002.5" y="211.2549">fromPortId: int</text><rect fill="none" height="6" style="stroke:#C82930;stroke-width:1.0;" width="6" x="990.5" y="217.6719"/><text fill="#000000" font-family="sans-serif" font-size="11" lengthAdjust="spacing" textLength="53" x="1002.5" y="225.0908">toPortId: int</text><rect fill="none" height="6" style="stroke:#C82930;stroke-width:1.0;" width="6" x="990.5" y="231.5078"/><text fill="#000000" font-family="sans-serif" font-size="11" lengthAdjust="spacing" textLength="102" x="1002.5" y="238.9268">fromPortName: String</text><rect fill="none" height="6" style="stroke:#C82930;stroke-width:1.0;" width="6" x="990.5" y="245.3438"/><text fill="#000000" font-family="sans-serif" font-size="11" lengthAdjust="spacing" textLength="108" x="1002.5" y="252.7627">toCountryName: String</text><rect fill="none" height="6" style="stroke:#C82930;stroke-width:1.0;" width="6" x="990.5" y="259.1797"/><text fill="#000000" font-family="sans-serif" font-size="11" lengthAdjust="spacing" textLength="89" x="1002.5" y="266.5986">toPortName: String</text><rect fill="none" height="6" style="stroke:#C82930;stroke-width:1.0;" width="6" x="990.5" y="273.0156"/><text fill="#000000" font-family="sans-serif" font-size="11" lengthAdjust="spacing" textLength="77" x="1002.5" y="280.4346">seaDistance: int</text><line style="stroke:#A80036;stroke-width:1.5;" x1="983.5" x2="1128.5" y1="286.8516" y2="286.8516"/><!--MD5=[b7b072196a724e538165319251b4d539]
class MatrixGraph--><rect fill="#FEFECE" filter="url(#fhyniap5ufjl)" height="61.8359" id="MatrixGraph" style="stroke:#A80036;stroke-width:1.5;" width="251" x="1164.5" y="191.5"/><ellipse cx="1253.25" cy="207.5" fill="#ADD1B2" rx="11" ry="11" style="stroke:#A80036;stroke-width:1.0;"/><path d="M1255.25,204 Q1255.4531,203.5 1255.6875,203.25 Q1255.9219,203 1256.1875,203 Q1256.6563,203 1256.9531,203.2813 Q1257.25,203.5625 1257.25,204.2188 L1257.25,205.7813 Q1257.25,206.4375 1256.9688,206.7188 Q1256.6875,207 1256.25,207 Q1255.8594,207 1255.6094,206.8281 Q1255.3594,206.6563 1255.25,206.2031 Q1255.2031,205.8906 1255.0313,205.7188 Q1254.7188,205.3906 1254.1563,205.2031 Q1253.5938,205 1253.0313,205 Q1252.3281,205 1251.7344,205.2813 Q1251.1563,205.5625 1250.7031,206.1875 Q1250.25,206.8125 1250.25,207.6719 L1250.25,208.5938 Q1250.25,209.625 1251.0938,210.3125 Q1251.9375,211 1253.4375,211 Q1254.3281,211 1254.9531,210.7969 Q1255.3125,210.6875 1255.7188,210.3281 Q1255.9844,210.125 1256.125,210.0625 Q1256.2656,210 1256.4375,210 Q1256.7656,210 1257,210.2656 Q1257.25,210.5156 1257.25,210.875 Q1257.25,211.2188 1256.9063,211.625 Q1256.4063,212.2188 1255.6094,212.5469 Q1254.5625,213 1253.2813,213 Q1251.7813,213 1250.5781,212.4063 Q1249.6094,211.9375 1248.9219,210.9219 Q1248.25,209.9063 1248.25,208.7031 L1248.25,207.6094 Q1248.25,206.3594 1248.8438,205.2656 Q1249.4531,204.1719 1250.5,203.5938 Q1251.5625,203 1252.75,203 Q1253.4688,203 1254.0938,203.25 Q1254.7188,203.5 1255.25,204 Z " fill="#000000"/><text fill="#000000" font-family="sans-serif" font-size="12" lengthAdjust="spacing" textLength="65" x="1273.75" y="212.4102">MatrixGraph</text><line style="stroke:#A80036;stroke-width:1.5;" x1="1165.5" x2="1414.5" y1="223.5" y2="223.5"/><line style="stroke:#A80036;stroke-width:1.5;" x1="1165.5" x2="1414.5" y1="231.5" y2="231.5"/><ellipse cx="1175.5" cy="242.5" fill="#84BE84" rx="3" ry="3" style="stroke:#038048;stroke-width:1.0;"/><text fill="#000000" font-family="sans-serif" font-size="11" lengthAdjust="spacing" textLength="225" x="1184.5" y="246.9189">addEdge(graphElement, graphElement, weight)</text><!--MD5=[2e2f8c8f62c4eb3bc59a59727cfd81a5]
class Edge--><rect fill="#FEFECE" filter="url(#fhyniap5ufjl)" height="48" id="Edge" style="stroke:#A80036;stroke-width:1.5;" width="61" x="1259.5" y="369"/><ellipse cx="1274.5" cy="385" fill="#ADD1B2" rx="11" ry="11" style="stroke:#A80036;stroke-width:1.0;"/><path d="M1276.5,381.5 Q1276.7031,381 1276.9375,380.75 Q1277.1719,380.5 1277.4375,380.5 Q1277.9063,380.5 1278.2031,380.7813 Q1278.5,381.0625 1278.5,381.7188 L1278.5,383.2813 Q1278.5,383.9375 1278.2188,384.2188 Q1277.9375,384.5 1277.5,384.5 Q1277.1094,384.5 1276.8594,384.3281 Q1276.6094,384.1563 1276.5,383.7031 Q1276.4531,383.3906 1276.2813,383.2188 Q1275.9688,382.8906 1275.4063,382.7031 Q1274.8438,382.5 1274.2813,382.5 Q1273.5781,382.5 1272.9844,382.7813 Q1272.4063,383.0625 1271.9531,383.6875 Q1271.5,384.3125 1271.5,385.1719 L1271.5,386.0938 Q1271.5,387.125 1272.3438,387.8125 Q1273.1875,388.5 1274.6875,388.5 Q1275.5781,388.5 1276.2031,388.2969 Q1276.5625,388.1875 1276.9688,387.8281 Q1277.2344,387.625 1277.375,387.5625 Q1277.5156,387.5 1277.6875,387.5 Q1278.0156,387.5 1278.25,387.7656 Q1278.5,388.0156 1278.5,388.375 Q1278.5,388.7188 1278.1563,389.125 Q1277.6563,389.7188 1276.8594,390.0469 Q1275.8125,390.5 1274.5313,390.5 Q1273.0313,390.5 1271.8281,389.9063 Q1270.8594,389.4375 1270.1719,388.4219 Q1269.5,387.4063 1269.5,386.2031 L1269.5,385.1094 Q1269.5,383.8594 1270.0938,382.7656 Q1270.7031,381.6719 1271.75,381.0938 Q1272.8125,380.5 1274,380.5 Q1274.7188,380.5 1275.3438,380.75 Q1275.9688,381 1276.5,381.5 Z " fill="#000000"/><text fill="#000000" font-family="sans-serif" font-size="12" lengthAdjust="spacing" textLength="29" x="1288.5" y="389.9102">Edge</text><line style="stroke:#A80036;stroke-width:1.5;" x1="1260.5" x2="1319.5" y1="401" y2="401"/><line style="stroke:#A80036;stroke-width:1.5;" x1="1260.5" x2="1319.5" y1="409" y2="409"/><!--MD5=[d16402e5c19a7aa4643a6d045a5d969e]
link BuildFreightNetworkController to Company--><path codeLine="1" d="M445.55,83.16 C417.91,100.52 385.23,121.97 357,143 C349.4,148.66 341.62,154.77 333.96,160.98 " fill="none" id="BuildFreightNetworkController-to-Company" style="stroke:#A80036;stroke-width:1.0;stroke-dasharray:7.0,7.0;"/><polygon fill="#A80036" points="329.72,164.45,339.2227,161.862,333.5949,161.29,334.1668,155.6622,329.72,164.45" style="stroke:#A80036;stroke-width:1.0;"/><!--MD5=[8e829e24e6e06409c5f0eece8dce06eb]
link BuildFreightNetworkController to Port--><path codeLine="2" d="M518.45,83.22 C525.21,105.2 533.95,133.59 541.75,158.93 " fill="none" id="BuildFreightNetworkController-to-Port" style="stroke:#A80036;stroke-width:1.0;stroke-dasharray:7.0,7.0;"/><polygon fill="#A80036" points="543.29,163.95,544.4602,154.1709,541.8166,159.172,536.8154,156.5284,543.29,163.95" style="stroke:#A80036;stroke-width:1.0;"/><!--MD5=[217f5d3e7633aa96278ab6d5916a6931]
link BuildFreightNetworkController to KdtPort--><path codeLine="3" d="M408.27,48.26 C327.06,55.17 213.74,77.16 140,143 C76.64,199.57 54.29,302.59 46.7,356.68 " fill="none" id="BuildFreightNetworkController-to-KdtPort" style="stroke:#A80036;stroke-width:1.0;stroke-dasharray:7.0,7.0;"/><polygon fill="#A80036" points="46.01,361.76,51.1818,353.3783,46.6811,356.8052,43.2542,352.3046,46.01,361.76" style="stroke:#A80036;stroke-width:1.0;"/><!--MD5=[23c82effbbeb72af3af8bae8011931a8]
link BuildFreightNetworkController to CountryStore--><path codeLine="4" d="M408.35,62.86 C323.82,79.48 211.36,107.5 183,143 C133.88,204.49 145.9,304.08 157.04,356.74 " fill="none" id="BuildFreightNetworkController-to-CountryStore" style="stroke:#A80036;stroke-width:1.0;stroke-dasharray:7.0,7.0;"/><polygon fill="#A80036" points="158.11,361.69,160.0893,352.0421,157.039,356.8061,152.275,353.7557,158.11,361.69" style="stroke:#A80036;stroke-width:1.0;"/><!--MD5=[f8444dc3e0626b619948d4d1ad3f38ce]
link BuildFreightNetworkController to BorderStore--><path codeLine="5" d="M486.56,83.03 C449.44,150.28 371.44,291.57 335.23,357.17 " fill="none" id="BuildFreightNetworkController-to-BorderStore" style="stroke:#A80036;stroke-width:1.0;stroke-dasharray:7.0,7.0;"/><polygon fill="#A80036" points="332.69,361.76,340.5426,355.8155,335.1073,357.3832,333.5396,351.9479,332.69,361.76" style="stroke:#A80036;stroke-width:1.0;"/><!--MD5=[54359b2b741ee396fb3f0f61ac229e49]
link BuildFreightNetworkController to SeadistStore--><path codeLine="6" d="M499.78,83.21 C496.47,101.21 492.69,123.18 490,143 C479.72,218.78 472.23,308.12 468.55,356.51 " fill="none" id="BuildFreightNetworkController-to-SeadistStore" style="stroke:#A80036;stroke-width:1.0;stroke-dasharray:7.0,7.0;"/><polygon fill="#A80036" points="468.17,361.63,472.8523,352.9653,468.5557,356.6449,464.8761,352.3483,468.17,361.63" style="stroke:#A80036;stroke-width:1.0;"/><!--MD5=[09223bdd1fb66f01ffd290f2894c8a7d]
link BuildFreightNetworkController to Country--><path codeLine="7" d="M557.7,83.11 C580.88,100.64 608.38,122.24 632,143 C636.54,146.99 641.15,151.17 645.74,155.45 " fill="none" id="BuildFreightNetworkController-to-Country" style="stroke:#A80036;stroke-width:1.0;stroke-dasharray:7.0,7.0;"/><polygon fill="#A80036" points="649.59,159.06,645.7777,149.9789,645.949,155.6332,640.2947,155.8045,649.59,159.06" style="stroke:#A80036;stroke-width:1.0;"/><!--MD5=[a7974eb5a1429547cdb66925bbfdad58]
link BuildFreightNetworkController to Border--><path codeLine="8" d="M605.77,69.57 C661.87,85.45 732.04,109.64 789,143 C806.44,153.21 823.51,167.22 837.91,180.58 " fill="none" id="BuildFreightNetworkController-to-Border" style="stroke:#A80036;stroke-width:1.0;stroke-dasharray:7.0,7.0;"/><polygon fill="#A80036" points="841.9,184.33,838.0877,175.2489,838.259,180.9032,832.6047,181.0745,841.9,184.33" style="stroke:#A80036;stroke-width:1.0;"/><!--MD5=[f82ff9a58b8bbcba0140c23bc7428eef]
link BuildFreightNetworkController to Seadist--><path codeLine="9" d="M605.65,52.82 C701.44,62.61 848.86,86.27 964,143 C968.76,145.34 973.47,147.99 978.11,150.86 " fill="none" id="BuildFreightNetworkController-to-Seadist" style="stroke:#A80036;stroke-width:1.0;stroke-dasharray:7.0,7.0;"/><polygon fill="#A80036" points="982.34,153.55,976.8999,145.3399,978.1235,150.8628,972.6005,152.0864,982.34,153.55" style="stroke:#A80036;stroke-width:1.0;"/><!--MD5=[be596a7e77cd88f40363be95a23fec44]
link BuildFreightNetworkController to MatrixGraph--><path codeLine="10" d="M605.74,50.24 C733.66,58.14 962.17,80.47 1147,143 C1179.71,154.07 1213.71,172.4 1240.34,188.57 " fill="none" id="BuildFreightNetworkController-to-MatrixGraph" style="stroke:#A80036;stroke-width:1.0;stroke-dasharray:7.0,7.0;"/><polygon fill="#A80036" points="1244.89,191.35,1239.3017,183.24,1240.6254,188.7399,1235.1255,190.0635,1244.89,191.35" style="stroke:#A80036;stroke-width:1.0;"/><!--MD5=[88378fecc0214ccb54b388de34e73693]
link MatrixGraph to Edge--><path codeLine="11" d="M1290,253.62 C1290,284.85 1290,333.29 1290,363.79 " fill="none" id="MatrixGraph-to-Edge" style="stroke:#A80036;stroke-width:1.0;stroke-dasharray:7.0,7.0;"/><polygon fill="#A80036" points="1290,368.9,1294,359.9,1290,363.9,1286,359.9,1290,368.9" style="stroke:#A80036;stroke-width:1.0;"/><!--MD5=[b3508693fa16e1126a1fc609796f8a97]
link Company to KdtPort--><path codeLine="25" d="M200.49,272.46 C162.75,301.11 116.27,336.39 83.62,361.17 " fill="none" id="Company-to-KdtPort" style="stroke:#A80036;stroke-width:1.0;stroke-dasharray:7.0,7.0;"/><polygon fill="#A80036" points="79.3,364.45,88.8911,362.2116,83.288,361.434,84.0655,355.8309,79.3,364.45" style="stroke:#A80036;stroke-width:1.0;"/><!--MD5=[3e62267ed92cd658fcc6f008fe587857]
link Company to CountryStore--><path codeLine="26" d="M227.01,288.16 C213.22,311.63 198.17,337.25 186.47,357.17 " fill="none" id="Company-to-CountryStore" style="stroke:#A80036;stroke-width:1.0;stroke-dasharray:7.0,7.0;"/><polygon fill="#A80036" points="183.87,361.58,191.8718,355.8379,186.3982,357.2663,184.9699,351.7927,183.87,361.58" style="stroke:#A80036;stroke-width:1.0;"/><!--MD5=[1a1e73f5a7c19fafb6bcbfc7e076e2ac]
link Company to BorderStore--><path codeLine="27" d="M284.57,288.16 C291.62,311.44 299.3,336.82 305.3,356.66 " fill="none" id="Company-to-BorderStore" style="stroke:#A80036;stroke-width:1.0;stroke-dasharray:7.0,7.0;"/><polygon fill="#A80036" points="306.79,361.58,308.0218,351.8085,305.3467,356.7928,300.3623,354.1177,306.79,361.58" style="stroke:#A80036;stroke-width:1.0;"/><!--MD5=[31fb6ef21b66e9cc4d1a3c34a89f0b54]
link Company to SeadistStore--><path codeLine="28" d="M329.7,277.74 C361.43,304.33 398.62,335.51 426.13,358.58 " fill="none" id="Company-to-SeadistStore" style="stroke:#A80036;stroke-width:1.0;stroke-dasharray:7.0,7.0;"/><polygon fill="#A80036" points="430.12,361.92,425.7991,353.0696,426.2906,358.705,420.6552,359.1966,430.12,361.92" style="stroke:#A80036;stroke-width:1.0;"/><!--MD5=[e3a764b0f48ec498565e82fb41d14901]
@startuml
BuildFreightNetworkController ..>Company
BuildFreightNetworkController ..>Port
BuildFreightNetworkController ..>KdtPort
BuildFreightNetworkController ..>CountryStore
BuildFreightNetworkController ..>BorderStore
BuildFreightNetworkController ..>SeadistStore
BuildFreightNetworkController ..>Country
BuildFreightNetworkController ..>Border
BuildFreightNetworkController ..>Seadist
BuildFreightNetworkController ..>MatrixGraph
MatrixGraph ..>Edge


BuildFreightNetworkController : +ImportDataFromDatabase()
BuildFreightNetworkController : +BuildFreightNetwork()


Company : +Company()
Company : +getKdtPorts()
Company : +setKdtPorts(PortKDT)
Company : +getCountryStore()
Company : +getBorderStore()
Company : +getSeadistStore()

Company ..>KdtPort
Company ..>CountryStore
Company ..>BorderStore
Company ..>SeadistStore

KdtPort : +inOrder()

MatrixGraph : +addEdge(graphElement, graphElement, weight)

CountryStore : +getCountries()
BorderStore : +getBordersCountry()
SeadistStore : +getSeadist()

Port : -code: int
Port : -name: String
Port : -country: Country
Port : -latitude: float
Port : -longitude: float

Country : -continent: String
Country : -name: String
Country : -alpha2_code: String
Country : -alpha3_code: String
Country : -capital: String
Country : -latitude: float
Country : -longitude: float
Country : -population: float

Border : -countryName1: Country
Border : -countryName2: Country

Seadist : -fromCountryName: String
Seadist : -fromPortId: int
Seadist : -toPortId: int
Seadist : -fromPortName: String
Seadist : -toCountryName: String
Seadist : -toPortName: String
Seadist : -seaDistance: int
@enduml

PlantUML version 1.2021.5(Sun Apr 25 12:20:28 BST 2021)
(GPL source distribution)
Java Runtime: OpenJDK Runtime Environment
JVM: OpenJDK 64-Bit Server VM
Default Encoding: Cp1252
Language: pt
Country: PT
--></g></svg>