<?xml version="1.0" encoding="UTF-8" standalone="no"?><svg xmlns="http://www.w3.org/2000/svg" xmlns:xlink="http://www.w3.org/1999/xlink" contentScriptType="application/ecmascript" contentStyleType="text/css" height="386px" preserveAspectRatio="none" style="width:686px;height:386px;background:#FFFFFF;" version="1.1" viewBox="0 0 686 386" width="686px" zoomAndPan="magnify"><defs><filter height="300%" id="fogcaimydc48a" width="300%" x="-1" y="-1"><feGaussianBlur result="blurOut" stdDeviation="2.0"/><feColorMatrix in="blurOut" result="blurOut2" type="matrix" values="0 0 0 0 0 0 0 0 0 0 0 0 0 0 0 0 0 0 .4 0"/><feOffset dx="4.0" dy="4.0" in="blurOut2" result="blurOut3"/><feBlend in="SourceGraphic" in2="blurOut3" mode="normal"/></filter></defs><g><!--MD5=[9dbb98c6a547db2ef6fb2cd8fb82966f]
class PositionalMessagesController--><rect fill="#FEFECE" filter="url(#fogcaimydc48a)" height="86.4141" id="PositionalMessagesController" style="stroke:#A80036;stroke-width:1.5;" width="209" x="107.3964" y="7"/><ellipse cx="122.3964" cy="23" fill="#ADD1B2" rx="11" ry="11" style="stroke:#A80036;stroke-width:1.0;"/><path d="M124.7402,18.6719 C123.8027,18.2344 123.2089,18.0938 122.3339,18.0938 C119.7089,18.0938 117.7089,20.1719 117.7089,22.8906 L117.7089,24.0156 C117.7089,26.5938 119.8183,28.4844 122.7089,28.4844 C123.9277,28.4844 125.0839,28.1875 125.8339,27.6406 C126.412,27.2344 126.7402,26.7813 126.7402,26.3906 C126.7402,25.9375 126.3495,25.5469 125.8808,25.5469 C125.662,25.5469 125.4589,25.625 125.2714,25.8125 C124.8183,26.2969 124.8183,26.2969 124.6308,26.3906 C124.2089,26.6563 123.5214,26.7813 122.7558,26.7813 C120.7089,26.7813 119.412,25.6875 119.412,23.9844 L119.412,22.8906 C119.412,21.1094 120.662,19.7969 122.3964,19.7969 C122.9745,19.7969 123.5839,19.9531 124.0527,20.2031 C124.537,20.4844 124.7089,20.7031 124.8027,21.1094 C124.8652,21.5156 124.8964,21.6406 125.037,21.7656 C125.1777,21.9063 125.412,22.0156 125.6308,22.0156 C125.8964,22.0156 126.162,21.875 126.3339,21.6563 C126.4433,21.5 126.4745,21.3125 126.4745,20.8906 L126.4745,19.4688 C126.4745,19.0313 126.4589,18.9063 126.3652,18.75 C126.2089,18.4844 125.9277,18.3438 125.6308,18.3438 C125.3339,18.3438 125.1308,18.4375 124.912,18.75 L124.7402,18.6719 Z " fill="#000000"/><text fill="#000000" font-family="sans-serif" font-size="12" lengthAdjust="spacing" textLength="177" x="136.3964" y="27.1543">PositionalMessagesController</text><line style="stroke:#A80036;stroke-width:1.5;" x1="108.3964" x2="315.3964" y1="39" y2="39"/><line style="stroke:#A80036;stroke-width:1.5;" x1="108.3964" x2="315.3964" y1="47" y2="47"/><ellipse cx="118.3964" cy="58" fill="#84BE84" rx="3" ry="3" style="stroke:#038048;stroke-width:1.0;"/><text fill="#000000" font-family="sans-serif" font-size="11" lengthAdjust="spacing" textLength="79" x="127.3964" y="61.2104">message(file)</text><ellipse cx="118.3964" cy="70.8047" fill="#84BE84" rx="3" ry="3" style="stroke:#038048;stroke-width:1.0;"/><text fill="#000000" font-family="sans-serif" font-size="11" lengthAdjust="spacing" textLength="102" x="127.3964" y="74.0151">date(dates, ships)</text><ellipse cx="118.3964" cy="83.6094" fill="#84BE84" rx="3" ry="3" style="stroke:#038048;stroke-width:1.0;"/><text fill="#000000" font-family="sans-serif" font-size="11" lengthAdjust="spacing" textLength="112" x="127.3964" y="86.8198">period(dates, ships)</text><!--MD5=[8a61326b4f5c9e6ed3a15cb6e1c143c5]
class BSTShip--><rect fill="#FEFECE" filter="url(#fogcaimydc48a)" height="60.8047" id="BSTShip" style="stroke:#A80036;stroke-width:1.5;" width="81" x="21.3964" y="312"/><ellipse cx="36.3965" cy="328" fill="#ADD1B2" rx="11" ry="11" style="stroke:#A80036;stroke-width:1.0;"/><path d="M38.7402,323.6719 C37.8027,323.2344 37.209,323.0938 36.334,323.0938 C33.709,323.0938 31.709,325.1719 31.709,327.8906 L31.709,329.0156 C31.709,331.5938 33.8183,333.4844 36.709,333.4844 C37.9277,333.4844 39.084,333.1875 39.834,332.6406 C40.4121,332.2344 40.7402,331.7813 40.7402,331.3906 C40.7402,330.9375 40.3496,330.5469 39.8808,330.5469 C39.6621,330.5469 39.459,330.625 39.2715,330.8125 C38.8183,331.2969 38.8183,331.2969 38.6308,331.3906 C38.209,331.6563 37.5215,331.7813 36.7558,331.7813 C34.709,331.7813 33.4121,330.6875 33.4121,328.9844 L33.4121,327.8906 C33.4121,326.1094 34.6621,324.7969 36.3965,324.7969 C36.9746,324.7969 37.584,324.9531 38.0527,325.2031 C38.5371,325.4844 38.709,325.7031 38.8027,326.1094 C38.8652,326.5156 38.8965,326.6406 39.0371,326.7656 C39.1777,326.9063 39.4121,327.0156 39.6308,327.0156 C39.8965,327.0156 40.1621,326.875 40.334,326.6563 C40.4433,326.5 40.4746,326.3125 40.4746,325.8906 L40.4746,324.4688 C40.4746,324.0313 40.459,323.9063 40.3652,323.75 C40.209,323.4844 39.9277,323.3438 39.6308,323.3438 C39.334,323.3438 39.1308,323.4375 38.9121,323.75 L38.7402,323.6719 Z " fill="#000000"/><text fill="#000000" font-family="sans-serif" font-size="12" lengthAdjust="spacing" textLength="49" x="50.3965" y="332.1543">BSTShip</text><line style="stroke:#A80036;stroke-width:1.5;" x1="22.3964" x2="101.3965" y1="344" y2="344"/><line style="stroke:#A80036;stroke-width:1.5;" x1="22.3964" x2="101.3965" y1="352" y2="352"/><ellipse cx="32.3965" cy="363" fill="#84BE84" rx="3" ry="3" style="stroke:#038048;stroke-width:1.0;"/><text fill="#000000" font-family="sans-serif" font-size="11" lengthAdjust="spacing" textLength="50" x="41.3965" y="366.2104">inOrder()</text><!--MD5=[02e4b9b7573f1156f41e60aa5b4e25a4]
class Company--><rect fill="#FEFECE" filter="url(#fogcaimydc48a)" height="99.2188" id="Company" style="stroke:#A80036;stroke-width:1.5;" width="149" x="51.3964" y="153"/><ellipse cx="93.8464" cy="169" fill="#ADD1B2" rx="11" ry="11" style="stroke:#A80036;stroke-width:1.0;"/><path d="M96.1902,164.6719 C95.2527,164.2344 94.6589,164.0938 93.7839,164.0938 C91.1589,164.0938 89.1589,166.1719 89.1589,168.8906 L89.1589,170.0156 C89.1589,172.5938 91.2683,174.4844 94.1589,174.4844 C95.3777,174.4844 96.5339,174.1875 97.2839,173.6406 C97.862,173.2344 98.1902,172.7813 98.1902,172.3906 C98.1902,171.9375 97.7995,171.5469 97.3308,171.5469 C97.112,171.5469 96.9089,171.625 96.7214,171.8125 C96.2683,172.2969 96.2683,172.2969 96.0808,172.3906 C95.6589,172.6563 94.9714,172.7813 94.2058,172.7813 C92.1589,172.7813 90.862,171.6875 90.862,169.9844 L90.862,168.8906 C90.862,167.1094 92.112,165.7969 93.8464,165.7969 C94.4245,165.7969 95.0339,165.9531 95.5027,166.2031 C95.987,166.4844 96.1589,166.7031 96.2527,167.1094 C96.3152,167.5156 96.3464,167.6406 96.487,167.7656 C96.6277,167.9063 96.862,168.0156 97.0808,168.0156 C97.3464,168.0156 97.612,167.875 97.7839,167.6563 C97.8933,167.5 97.9245,167.3125 97.9245,166.8906 L97.9245,165.4688 C97.9245,165.0313 97.9089,164.9063 97.8152,164.75 C97.6589,164.4844 97.3777,164.3438 97.0808,164.3438 C96.7839,164.3438 96.5808,164.4375 96.362,164.75 L96.1902,164.6719 Z " fill="#000000"/><text fill="#000000" font-family="sans-serif" font-size="12" lengthAdjust="spacing" textLength="56" x="113.9464" y="173.1543">Company</text><line style="stroke:#A80036;stroke-width:1.5;" x1="52.3964" x2="199.3964" y1="185" y2="185"/><rect fill="none" height="6" style="stroke:#C82930;stroke-width:1.0;" width="6" x="59.3964" y="193"/><text fill="#000000" font-family="sans-serif" font-size="11" lengthAdjust="spacing" textLength="103" x="71.3964" y="199.2104">bstShips: BSTShip</text><line style="stroke:#A80036;stroke-width:1.5;" x1="52.3964" x2="199.3964" y1="205.8047" y2="205.8047"/><ellipse cx="62.3964" cy="216.8047" fill="#84BE84" rx="3" ry="3" style="stroke:#038048;stroke-width:1.0;"/><text fill="#000000" font-family="sans-serif" font-size="11" lengthAdjust="spacing" textLength="62" x="71.3964" y="220.0151">Company()</text><ellipse cx="62.3964" cy="229.6094" fill="#84BE84" rx="3" ry="3" style="stroke:#038048;stroke-width:1.0;"/><text fill="#000000" font-family="sans-serif" font-size="11" lengthAdjust="spacing" textLength="76" x="71.3964" y="232.8198">getBstShips()</text><ellipse cx="62.3964" cy="242.4141" fill="#84BE84" rx="3" ry="3" style="stroke:#038048;stroke-width:1.0;"/><text fill="#000000" font-family="sans-serif" font-size="11" lengthAdjust="spacing" textLength="123" x="71.3964" y="245.6245">setBstShips(ShipBST)</text><!--MD5=[0dc7f2ddb409b58bcf52b12238c25399]
class Ship--><rect fill="#FEFECE" filter="url(#fogcaimydc48a)" height="60.8047" id="Ship" style="stroke:#A80036;stroke-width:1.5;" width="126" x="235.8962" y="172"/><ellipse cx="281.6462" cy="188" fill="#ADD1B2" rx="11" ry="11" style="stroke:#A80036;stroke-width:1.0;"/><path d="M283.99,183.6719 C283.0525,183.2344 282.4587,183.0938 281.5837,183.0938 C278.9587,183.0938 276.9587,185.1719 276.9587,187.8906 L276.9587,189.0156 C276.9587,191.5938 279.0681,193.4844 281.9587,193.4844 C283.1775,193.4844 284.3337,193.1875 285.0837,192.6406 C285.6618,192.2344 285.99,191.7813 285.99,191.3906 C285.99,190.9375 285.5993,190.5469 285.1306,190.5469 C284.9118,190.5469 284.7087,190.625 284.5212,190.8125 C284.0681,191.2969 284.0681,191.2969 283.8806,191.3906 C283.4587,191.6563 282.7712,191.7813 282.0056,191.7813 C279.9587,191.7813 278.6618,190.6875 278.6618,188.9844 L278.6618,187.8906 C278.6618,186.1094 279.9118,184.7969 281.6462,184.7969 C282.2243,184.7969 282.8337,184.9531 283.3025,185.2031 C283.7868,185.4844 283.9587,185.7031 284.0525,186.1094 C284.115,186.5156 284.1462,186.6406 284.2868,186.7656 C284.4275,186.9063 284.6618,187.0156 284.8806,187.0156 C285.1462,187.0156 285.4118,186.875 285.5837,186.6563 C285.6931,186.5 285.7243,186.3125 285.7243,185.8906 L285.7243,184.4688 C285.7243,184.0313 285.7087,183.9063 285.615,183.75 C285.4587,183.4844 285.1775,183.3438 284.8806,183.3438 C284.5837,183.3438 284.3806,183.4375 284.1618,183.75 L283.99,183.6719 Z " fill="#000000"/><text fill="#000000" font-family="sans-serif" font-size="12" lengthAdjust="spacing" textLength="26" x="302.1462" y="192.1543">Ship</text><line style="stroke:#A80036;stroke-width:1.5;" x1="236.8962" x2="360.8962" y1="204" y2="204"/><line style="stroke:#A80036;stroke-width:1.5;" x1="236.8962" x2="360.8962" y1="212" y2="212"/><ellipse cx="246.8962" cy="223" fill="#84BE84" rx="3" ry="3" style="stroke:#038048;stroke-width:1.0;"/><text fill="#000000" font-family="sans-serif" font-size="11" lengthAdjust="spacing" textLength="100" x="255.8962" y="226.2104">getBSTDynData()</text><!--MD5=[7ae728e7109ce15ce9192deec798997c]
class BSTDynData--><rect fill="#FEFECE" filter="url(#fogcaimydc48a)" height="73.6094" id="BSTDynData" style="stroke:#A80036;stroke-width:1.5;" width="275" x="397.3962" y="165.5"/><ellipse cx="494.1462" cy="181.5" fill="#ADD1B2" rx="11" ry="11" style="stroke:#A80036;stroke-width:1.0;"/><path d="M496.4899,177.1719 C495.5524,176.7344 494.9587,176.5938 494.0837,176.5938 C491.4587,176.5938 489.4587,178.6719 489.4587,181.3906 L489.4587,182.5156 C489.4587,185.0938 491.5681,186.9844 494.4587,186.9844 C495.6774,186.9844 496.8337,186.6875 497.5837,186.1406 C498.1618,185.7344 498.4899,185.2813 498.4899,184.8906 C498.4899,184.4375 498.0993,184.0469 497.6306,184.0469 C497.4118,184.0469 497.2087,184.125 497.0212,184.3125 C496.5681,184.7969 496.5681,184.7969 496.3806,184.8906 C495.9587,185.1563 495.2712,185.2813 494.5056,185.2813 C492.4587,185.2813 491.1618,184.1875 491.1618,182.4844 L491.1618,181.3906 C491.1618,179.6094 492.4118,178.2969 494.1462,178.2969 C494.7243,178.2969 495.3337,178.4531 495.8024,178.7031 C496.2868,178.9844 496.4587,179.2031 496.5524,179.6094 C496.6149,180.0156 496.6462,180.1406 496.7868,180.2656 C496.9274,180.4063 497.1618,180.5156 497.3806,180.5156 C497.6462,180.5156 497.9118,180.375 498.0837,180.1563 C498.1931,180 498.2243,179.8125 498.2243,179.3906 L498.2243,177.9688 C498.2243,177.5313 498.2087,177.4063 498.1149,177.25 C497.9587,176.9844 497.6774,176.8438 497.3806,176.8438 C497.0837,176.8438 496.8806,176.9375 496.6618,177.25 L496.4899,177.1719 Z " fill="#000000"/><text fill="#000000" font-family="sans-serif" font-size="12" lengthAdjust="spacing" textLength="73" x="514.6462" y="185.6543">BSTDynData</text><line style="stroke:#A80036;stroke-width:1.5;" x1="398.3962" x2="671.3962" y1="197.5" y2="197.5"/><line style="stroke:#A80036;stroke-width:1.5;" x1="398.3962" x2="671.3962" y1="205.5" y2="205.5"/><ellipse cx="408.3962" cy="216.5" fill="#84BE84" rx="3" ry="3" style="stroke:#038048;stroke-width:1.0;"/><text fill="#000000" font-family="sans-serif" font-size="11" lengthAdjust="spacing" textLength="249" x="417.3962" y="219.7104">searchSpecificDatePeriodcall(dateN, dateM)</text><ellipse cx="408.3962" cy="229.3047" fill="#84BE84" rx="3" ry="3" style="stroke:#038048;stroke-width:1.0;"/><text fill="#000000" font-family="sans-serif" font-size="11" lengthAdjust="spacing" textLength="171" x="417.3962" y="232.5151">searchSpecificDate(newDate)</text><!--MD5=[c74dd37e63ce156708cdf132bad128ae]
link PositionalMessagesController to BSTShip--><path codeLine="1" d="M107.0349,87.791 C78.2363,103.272 50.4155,124.495 33.8964,153 C6,201.138 26.8356,267.372 44.4174,307.1558 " fill="none" id="PositionalMessagesController-to-BSTShip" style="stroke:#A80036;stroke-width:1.0;stroke-dasharray:7.0,7.0;"/><polygon fill="#A80036" points="46.5419,311.8734,46.4934,302.0247,44.4888,307.3144,39.199,305.3097,46.5419,311.8734" style="stroke:#A80036;stroke-width:1.0;"/><!--MD5=[bb7441692cf33871e64872db17743ff5]
link PositionalMessagesController to Company--><path codeLine="2" d="M187.7122,93.323 C177.9562,110.395 166.5922,130.283 156.2872,148.317 " fill="none" id="PositionalMessagesController-to-Company" style="stroke:#A80036;stroke-width:1.0;stroke-dasharray:7.0,7.0;"/><polygon fill="#A80036" points="153.6912,152.859,161.63,147.0302,156.1724,148.518,154.6845,143.0604,153.6912,152.859" style="stroke:#A80036;stroke-width:1.0;"/><!--MD5=[c882e0bf8e9c9dfaac21da2c42876a87]
link PositionalMessagesController to Ship--><path codeLine="3" d="M236.3622,93.323 C249.8752,116.7 266.4412,145.357 279.1272,167.302 " fill="none" id="PositionalMessagesController-to-Ship" style="stroke:#A80036;stroke-width:1.0;stroke-dasharray:7.0,7.0;"/><polygon fill="#A80036" points="281.7732,171.878,280.7334,162.0842,279.2715,167.5489,273.8068,166.087,281.7732,171.878" style="stroke:#A80036;stroke-width:1.0;"/><!--MD5=[acb709f68beeffaa68f19e665666a8c1]
link PositionalMessagesController to BSTDynData--><path codeLine="4" d="M302.2992,93.123 C349.4832,115.108 406.7822,141.806 452.7022,163.202 " fill="none" id="PositionalMessagesController-to-BSTDynData" style="stroke:#A80036;stroke-width:1.0;stroke-dasharray:7.0,7.0;"/><polygon fill="#A80036" points="457.3922,165.387,450.9228,157.9609,452.8598,163.2758,447.5449,165.2127,457.3922,165.387" style="stroke:#A80036;stroke-width:1.0;"/><!--MD5=[662567d9e10e593fef100fb7b5669386]
link Company to BSTShip--><path codeLine="15" d="M103.3324,252.154 C94.9112,270.312 85.5324,290.5349 77.8304,307.1424 " fill="none" id="Company-to-BSTShip" style="stroke:#A80036;stroke-width:1.0;stroke-dasharray:7.0,7.0;"/><polygon fill="#A80036" points="75.7047,311.726,83.1201,305.2443,77.8084,307.1901,75.8626,301.8784,75.7047,311.726" style="stroke:#A80036;stroke-width:1.0;"/><!--MD5=[8c5984c510fcbdf8784dd6f48570fa37]
@startuml
PositionalMessagesController ..>BSTShip
PositionalMessagesController ..>Company
PositionalMessagesController ..>Ship
PositionalMessagesController ..>BSTDynData

PositionalMessagesController : +message(file)
PositionalMessagesController : +date(dates, ships)
PositionalMessagesController : +period(dates, ships)

Company : -bstShips: BSTShip
Company : +Company()
Company : +getBstShips()
Company : +setBstShips(ShipBST)

Company ..>BSTShip

BSTDynData : +searchSpecificDatePeriodcall(dateN, dateM)
BSTDynData : +searchSpecificDate(newDate)

BSTShip : +inOrder()

Ship : +getBSTDynData()
@enduml

PlantUML version 1.2021.14(Fri Nov 12 16:46:50 UTC 2021)
(GPL source distribution)
Java Runtime: Java(TM) SE Runtime Environment
JVM: Java HotSpot(TM) 64-Bit Server VM
Default Encoding: UTF-8
Language: en
Country: US
--></g></svg>