<?xml version="1.0" encoding="UTF-8" standalone="no"?><svg xmlns="http://www.w3.org/2000/svg" xmlns:xlink="http://www.w3.org/1999/xlink" contentScriptType="application/ecmascript" contentStyleType="text/css" height="451px" preserveAspectRatio="none" style="width:859px;height:451px;background:#FFFFFF;" version="1.1" viewBox="0 0 859 451" width="859px" zoomAndPan="magnify"><defs><filter height="300%" id="fr3chsgzugedd" width="300%" x="-1" y="-1"><feGaussianBlur result="blurOut" stdDeviation="2.0"/><feColorMatrix in="blurOut" result="blurOut2" type="matrix" values="0 0 0 0 0 0 0 0 0 0 0 0 0 0 0 0 0 0 .4 0"/><feOffset dx="4.0" dy="4.0" in="blurOut2" result="blurOut3"/><feBlend in="SourceGraphic" in2="blurOut3" mode="normal"/></filter></defs><g><!--MD5=[71e28db0c317d3b20fb65183a6f46417]
class PrintingShipsInfoController--><rect fill="#FEFECE" filter="url(#fr3chsgzugedd)" height="112.0234" id="PrintingShipsInfoController" style="stroke:#A80036;stroke-width:1.5;" width="189" x="240.1314" y="7"/><ellipse cx="255.1314" cy="23" fill="#ADD1B2" rx="11" ry="11" style="stroke:#A80036;stroke-width:1.0;"/><path d="M257.4752,18.6719 C256.5377,18.2344 255.9439,18.0938 255.0689,18.0938 C252.4439,18.0938 250.4439,20.1719 250.4439,22.8906 L250.4439,24.0156 C250.4439,26.5938 252.5533,28.4844 255.4439,28.4844 C256.6627,28.4844 257.8189,28.1875 258.5689,27.6406 C259.147,27.2344 259.4752,26.7813 259.4752,26.3906 C259.4752,25.9375 259.0845,25.5469 258.6158,25.5469 C258.397,25.5469 258.1939,25.625 258.0064,25.8125 C257.5533,26.2969 257.5533,26.2969 257.3658,26.3906 C256.9439,26.6563 256.2564,26.7813 255.4908,26.7813 C253.4439,26.7813 252.147,25.6875 252.147,23.9844 L252.147,22.8906 C252.147,21.1094 253.397,19.7969 255.1314,19.7969 C255.7095,19.7969 256.3189,19.9531 256.7877,20.2031 C257.272,20.4844 257.4439,20.7031 257.5377,21.1094 C257.6002,21.5156 257.6314,21.6406 257.772,21.7656 C257.9127,21.9063 258.147,22.0156 258.3658,22.0156 C258.6314,22.0156 258.897,21.875 259.0689,21.6563 C259.1783,21.5 259.2095,21.3125 259.2095,20.8906 L259.2095,19.4688 C259.2095,19.0313 259.1939,18.9063 259.1002,18.75 C258.9439,18.4844 258.6627,18.3438 258.3658,18.3438 C258.0689,18.3438 257.8658,18.4375 257.647,18.75 L257.4752,18.6719 Z " fill="#000000"/><text fill="#000000" font-family="sans-serif" font-size="12" lengthAdjust="spacing" textLength="157" x="269.1314" y="27.1543">PrintingShipsInfoController</text><line style="stroke:#A80036;stroke-width:1.5;" x1="241.1314" x2="428.1314" y1="39" y2="39"/><line style="stroke:#A80036;stroke-width:1.5;" x1="241.1314" x2="428.1314" y1="47" y2="47"/><ellipse cx="251.1314" cy="58" fill="#84BE84" rx="3" ry="3" style="stroke:#038048;stroke-width:1.0;"/><text fill="#000000" font-family="sans-serif" font-size="11" lengthAdjust="spacing" textLength="58" x="260.1314" y="61.2104">getShips()</text><ellipse cx="251.1314" cy="70.8047" fill="#84BE84" rx="3" ry="3" style="stroke:#038048;stroke-width:1.0;"/><text fill="#000000" font-family="sans-serif" font-size="11" lengthAdjust="spacing" textLength="122" x="260.1314" y="74.0151">organizeInformation()</text><ellipse cx="251.1314" cy="83.6094" fill="#84BE84" rx="3" ry="3" style="stroke:#038048;stroke-width:1.0;"/><text fill="#000000" font-family="sans-serif" font-size="11" lengthAdjust="spacing" textLength="78" x="260.1314" y="86.8198">organizeAsc()</text><ellipse cx="251.1314" cy="96.4141" fill="#84BE84" rx="3" ry="3" style="stroke:#038048;stroke-width:1.0;"/><text fill="#000000" font-family="sans-serif" font-size="11" lengthAdjust="spacing" textLength="97" x="260.1314" y="99.6245">printInformation()</text><ellipse cx="251.1314" cy="109.2188" fill="#84BE84" rx="3" ry="3" style="stroke:#038048;stroke-width:1.0;"/><text fill="#000000" font-family="sans-serif" font-size="11" lengthAdjust="spacing" textLength="87" x="260.1314" y="112.4292">organizeDesc()</text><!--MD5=[8a61326b4f5c9e6ed3a15cb6e1c143c5]
class BSTShip--><rect fill="#FEFECE" filter="url(#fr3chsgzugedd)" height="60.8047" id="BSTShip" style="stroke:#A80036;stroke-width:1.5;" width="81" x="33.1319" y="377"/><ellipse cx="48.1319" cy="393" fill="#ADD1B2" rx="11" ry="11" style="stroke:#A80036;stroke-width:1.0;"/><path d="M50.4756,388.6719 C49.5381,388.2344 48.9444,388.0938 48.0694,388.0938 C45.4444,388.0938 43.4444,390.1719 43.4444,392.8906 L43.4444,394.0156 C43.4444,396.5938 45.5537,398.4844 48.4444,398.4844 C49.6631,398.4844 50.8194,398.1875 51.5694,397.6406 C52.1475,397.2344 52.4756,396.7813 52.4756,396.3906 C52.4756,395.9375 52.085,395.5469 51.6162,395.5469 C51.3975,395.5469 51.1944,395.625 51.0069,395.8125 C50.5537,396.2969 50.5537,396.2969 50.3662,396.3906 C49.9444,396.6563 49.2569,396.7813 48.4912,396.7813 C46.4444,396.7813 45.1475,395.6875 45.1475,393.9844 L45.1475,392.8906 C45.1475,391.1094 46.3975,389.7969 48.1319,389.7969 C48.71,389.7969 49.3194,389.9531 49.7881,390.2031 C50.2725,390.4844 50.4444,390.7031 50.5381,391.1094 C50.6006,391.5156 50.6319,391.6406 50.7725,391.7656 C50.9131,391.9063 51.1475,392.0156 51.3662,392.0156 C51.6319,392.0156 51.8975,391.875 52.0694,391.6563 C52.1787,391.5 52.21,391.3125 52.21,390.8906 L52.21,389.4688 C52.21,389.0313 52.1944,388.9063 52.1006,388.75 C51.9444,388.4844 51.6631,388.3438 51.3662,388.3438 C51.0694,388.3438 50.8662,388.4375 50.6475,388.75 L50.4756,388.6719 Z " fill="#000000"/><text fill="#000000" font-family="sans-serif" font-size="12" lengthAdjust="spacing" textLength="49" x="62.1319" y="397.1543">BSTShip</text><line style="stroke:#A80036;stroke-width:1.5;" x1="34.1319" x2="113.1319" y1="409" y2="409"/><line style="stroke:#A80036;stroke-width:1.5;" x1="34.1319" x2="113.1319" y1="417" y2="417"/><ellipse cx="44.1319" cy="428" fill="#84BE84" rx="3" ry="3" style="stroke:#038048;stroke-width:1.0;"/><text fill="#000000" font-family="sans-serif" font-size="11" lengthAdjust="spacing" textLength="50" x="53.1319" y="431.2104">inOrder()</text><!--MD5=[02e4b9b7573f1156f41e60aa5b4e25a4]
class Company--><rect fill="#FEFECE" filter="url(#fr3chsgzugedd)" height="99.2188" id="Company" style="stroke:#A80036;stroke-width:1.5;" width="149" x="63.1319" y="198.5"/><ellipse cx="105.5819" cy="214.5" fill="#ADD1B2" rx="11" ry="11" style="stroke:#A80036;stroke-width:1.0;"/><path d="M107.9257,210.1719 C106.9882,209.7344 106.3944,209.5938 105.5194,209.5938 C102.8944,209.5938 100.8944,211.6719 100.8944,214.3906 L100.8944,215.5156 C100.8944,218.0938 103.0038,219.9844 105.8944,219.9844 C107.1132,219.9844 108.2694,219.6875 109.0194,219.1406 C109.5975,218.7344 109.9257,218.2813 109.9257,217.8906 C109.9257,217.4375 109.535,217.0469 109.0663,217.0469 C108.8475,217.0469 108.6444,217.125 108.4569,217.3125 C108.0038,217.7969 108.0038,217.7969 107.8163,217.8906 C107.3944,218.1563 106.7069,218.2813 105.9413,218.2813 C103.8944,218.2813 102.5975,217.1875 102.5975,215.4844 L102.5975,214.3906 C102.5975,212.6094 103.8475,211.2969 105.5819,211.2969 C106.16,211.2969 106.7694,211.4531 107.2382,211.7031 C107.7225,211.9844 107.8944,212.2031 107.9882,212.6094 C108.0507,213.0156 108.0819,213.1406 108.2225,213.2656 C108.3632,213.4063 108.5975,213.5156 108.8163,213.5156 C109.0819,213.5156 109.3475,213.375 109.5194,213.1563 C109.6288,213 109.66,212.8125 109.66,212.3906 L109.66,210.9688 C109.66,210.5313 109.6444,210.4063 109.5507,210.25 C109.3944,209.9844 109.1132,209.8438 108.8163,209.8438 C108.5194,209.8438 108.3163,209.9375 108.0975,210.25 L107.9257,210.1719 Z " fill="#000000"/><text fill="#000000" font-family="sans-serif" font-size="12" lengthAdjust="spacing" textLength="56" x="125.6819" y="218.6543">Company</text><line style="stroke:#A80036;stroke-width:1.5;" x1="64.1319" x2="211.1319" y1="230.5" y2="230.5"/><rect fill="none" height="6" style="stroke:#C82930;stroke-width:1.0;" width="6" x="71.1319" y="238.5"/><text fill="#000000" font-family="sans-serif" font-size="11" lengthAdjust="spacing" textLength="103" x="83.1319" y="244.7104">bstShips: BSTShip</text><line style="stroke:#A80036;stroke-width:1.5;" x1="64.1319" x2="211.1319" y1="251.3047" y2="251.3047"/><ellipse cx="74.1319" cy="262.3047" fill="#84BE84" rx="3" ry="3" style="stroke:#038048;stroke-width:1.0;"/><text fill="#000000" font-family="sans-serif" font-size="11" lengthAdjust="spacing" textLength="62" x="83.1319" y="265.5151">Company()</text><ellipse cx="74.1319" cy="275.1094" fill="#84BE84" rx="3" ry="3" style="stroke:#038048;stroke-width:1.0;"/><text fill="#000000" font-family="sans-serif" font-size="11" lengthAdjust="spacing" textLength="76" x="83.1319" y="278.3198">getBstShips()</text><ellipse cx="74.1319" cy="287.9141" fill="#84BE84" rx="3" ry="3" style="stroke:#038048;stroke-width:1.0;"/><text fill="#000000" font-family="sans-serif" font-size="11" lengthAdjust="spacing" textLength="123" x="83.1319" y="291.1245">setBstShips(ShipBST)</text><!--MD5=[0dc7f2ddb409b58bcf52b12238c25399]
class Ship--><rect fill="#FEFECE" filter="url(#fr3chsgzugedd)" height="60.8047" id="Ship" style="stroke:#A80036;stroke-width:1.5;" width="174" x="247.6314" y="217.5"/><ellipse cx="317.3814" cy="233.5" fill="#ADD1B2" rx="11" ry="11" style="stroke:#A80036;stroke-width:1.0;"/><path d="M319.7252,229.1719 C318.7877,228.7344 318.1939,228.5938 317.3189,228.5938 C314.6939,228.5938 312.6939,230.6719 312.6939,233.3906 L312.6939,234.5156 C312.6939,237.0938 314.8033,238.9844 317.6939,238.9844 C318.9127,238.9844 320.0689,238.6875 320.8189,238.1406 C321.397,237.7344 321.7252,237.2813 321.7252,236.8906 C321.7252,236.4375 321.3345,236.0469 320.8658,236.0469 C320.647,236.0469 320.4439,236.125 320.2564,236.3125 C319.8033,236.7969 319.8033,236.7969 319.6158,236.8906 C319.1939,237.1563 318.5064,237.2813 317.7408,237.2813 C315.6939,237.2813 314.397,236.1875 314.397,234.4844 L314.397,233.3906 C314.397,231.6094 315.647,230.2969 317.3814,230.2969 C317.9595,230.2969 318.5689,230.4531 319.0377,230.7031 C319.522,230.9844 319.6939,231.2031 319.7877,231.6094 C319.8502,232.0156 319.8814,232.1406 320.022,232.2656 C320.1627,232.4063 320.397,232.5156 320.6158,232.5156 C320.8814,232.5156 321.147,232.375 321.3189,232.1563 C321.4283,232 321.4595,231.8125 321.4595,231.3906 L321.4595,229.9688 C321.4595,229.5313 321.4439,229.4063 321.3502,229.25 C321.1939,228.9844 320.9127,228.8438 320.6158,228.8438 C320.3189,228.8438 320.1158,228.9375 319.897,229.25 L319.7252,229.1719 Z " fill="#000000"/><text fill="#000000" font-family="sans-serif" font-size="12" lengthAdjust="spacing" textLength="26" x="337.8814" y="237.6543">Ship</text><line style="stroke:#A80036;stroke-width:1.5;" x1="248.6314" x2="420.6314" y1="249.5" y2="249.5"/><line style="stroke:#A80036;stroke-width:1.5;" x1="248.6314" x2="420.6314" y1="257.5" y2="257.5"/><ellipse cx="258.6314" cy="268.5" fill="#84BE84" rx="3" ry="3" style="stroke:#038048;stroke-width:1.0;"/><text fill="#000000" font-family="sans-serif" font-size="11" lengthAdjust="spacing" textLength="148" x="267.6314" y="271.7104">ShipSearchByMmsi(mmsi)</text><!--MD5=[7ae728e7109ce15ce9192deec798997c]
class BSTDynData--><rect fill="#FEFECE" filter="url(#fr3chsgzugedd)" height="137.6328" id="BSTDynData" style="stroke:#A80036;stroke-width:1.5;" width="177" x="457.1314" y="179"/><ellipse cx="504.8814" cy="195" fill="#ADD1B2" rx="11" ry="11" style="stroke:#A80036;stroke-width:1.0;"/><path d="M507.2252,190.6719 C506.2877,190.2344 505.6939,190.0938 504.8189,190.0938 C502.1939,190.0938 500.1939,192.1719 500.1939,194.8906 L500.1939,196.0156 C500.1939,198.5938 502.3033,200.4844 505.1939,200.4844 C506.4127,200.4844 507.5689,200.1875 508.3189,199.6406 C508.897,199.2344 509.2252,198.7813 509.2252,198.3906 C509.2252,197.9375 508.8345,197.5469 508.3658,197.5469 C508.147,197.5469 507.9439,197.625 507.7564,197.8125 C507.3033,198.2969 507.3033,198.2969 507.1158,198.3906 C506.6939,198.6563 506.0064,198.7813 505.2408,198.7813 C503.1939,198.7813 501.897,197.6875 501.897,195.9844 L501.897,194.8906 C501.897,193.1094 503.147,191.7969 504.8814,191.7969 C505.4595,191.7969 506.0689,191.9531 506.5377,192.2031 C507.022,192.4844 507.1939,192.7031 507.2877,193.1094 C507.3502,193.5156 507.3814,193.6406 507.522,193.7656 C507.6627,193.9063 507.897,194.0156 508.1158,194.0156 C508.3814,194.0156 508.647,193.875 508.8189,193.6563 C508.9283,193.5 508.9595,193.3125 508.9595,192.8906 L508.9595,191.4688 C508.9595,191.0313 508.9439,190.9063 508.8502,190.75 C508.6939,190.4844 508.4127,190.3438 508.1158,190.3438 C507.8189,190.3438 507.6158,190.4375 507.397,190.75 L507.2252,190.6719 Z " fill="#000000"/><text fill="#000000" font-family="sans-serif" font-size="12" lengthAdjust="spacing" textLength="73" x="525.3814" y="199.1543">BSTDynData</text><line style="stroke:#A80036;stroke-width:1.5;" x1="458.1314" x2="633.1314" y1="211" y2="211"/><line style="stroke:#A80036;stroke-width:1.5;" x1="458.1314" x2="633.1314" y1="219" y2="219"/><ellipse cx="468.1314" cy="230" fill="#84BE84" rx="3" ry="3" style="stroke:#038048;stroke-width:1.0;"/><text fill="#000000" font-family="sans-serif" font-size="11" lengthAdjust="spacing" textLength="66" x="477.1314" y="233.2104">Departure()</text><ellipse cx="468.1314" cy="242.8047" fill="#84BE84" rx="3" ry="3" style="stroke:#038048;stroke-width:1.0;"/><text fill="#000000" font-family="sans-serif" font-size="11" lengthAdjust="spacing" textLength="44" x="477.1314" y="246.0151">Arrival()</text><ellipse cx="468.1314" cy="255.6094" fill="#84BE84" rx="3" ry="3" style="stroke:#038048;stroke-width:1.0;"/><text fill="#000000" font-family="sans-serif" font-size="11" lengthAdjust="spacing" textLength="50" x="477.1314" y="258.8198">inOrder()</text><ellipse cx="468.1314" cy="268.4141" fill="#84BE84" rx="3" ry="3" style="stroke:#038048;stroke-width:1.0;"/><text fill="#000000" font-family="sans-serif" font-size="11" lengthAdjust="spacing" textLength="32" x="477.1314" y="271.6245">size()</text><ellipse cx="468.1314" cy="281.2188" fill="#84BE84" rx="3" ry="3" style="stroke:#038048;stroke-width:1.0;"/><text fill="#000000" font-family="sans-serif" font-size="11" lengthAdjust="spacing" textLength="109" x="477.1314" y="284.4292">travelledDistance()</text><ellipse cx="468.1314" cy="294.0234" fill="#84BE84" rx="3" ry="3" style="stroke:#038048;stroke-width:1.0;"/><text fill="#000000" font-family="sans-serif" font-size="11" lengthAdjust="spacing" textLength="151" x="477.1314" y="297.2339">inorderCalculateDistance()</text><ellipse cx="468.1314" cy="306.8281" fill="#84BE84" rx="3" ry="3" style="stroke:#038048;stroke-width:1.0;"/><text fill="#000000" font-family="sans-serif" font-size="11" lengthAdjust="spacing" textLength="81" x="477.1314" y="310.0386">shipDynData()</text><!--MD5=[8ef2b8e4bb6592b888c82aa476e6eccf]
class PrintShipsInfo--><rect fill="#FEFECE" filter="url(#fr3chsgzugedd)" height="99.2188" id="PrintShipsInfo" style="stroke:#A80036;stroke-width:1.5;" width="176" x="669.6314" y="198.5"/><ellipse cx="713.4314" cy="214.5" fill="#ADD1B2" rx="11" ry="11" style="stroke:#A80036;stroke-width:1.0;"/><path d="M715.7751,210.1719 C714.8376,209.7344 714.2439,209.5938 713.3689,209.5938 C710.7439,209.5938 708.7439,211.6719 708.7439,214.3906 L708.7439,215.5156 C708.7439,218.0938 710.8533,219.9844 713.7439,219.9844 C714.9626,219.9844 716.1189,219.6875 716.8689,219.1406 C717.447,218.7344 717.7751,218.2813 717.7751,217.8906 C717.7751,217.4375 717.3845,217.0469 716.9158,217.0469 C716.697,217.0469 716.4939,217.125 716.3064,217.3125 C715.8533,217.7969 715.8533,217.7969 715.6658,217.8906 C715.2439,218.1563 714.5564,218.2813 713.7908,218.2813 C711.7439,218.2813 710.447,217.1875 710.447,215.4844 L710.447,214.3906 C710.447,212.6094 711.697,211.2969 713.4314,211.2969 C714.0095,211.2969 714.6189,211.4531 715.0876,211.7031 C715.572,211.9844 715.7439,212.2031 715.8376,212.6094 C715.9001,213.0156 715.9314,213.1406 716.072,213.2656 C716.2126,213.4063 716.447,213.5156 716.6658,213.5156 C716.9314,213.5156 717.197,213.375 717.3689,213.1563 C717.4783,213 717.5095,212.8125 717.5095,212.3906 L717.5095,210.9688 C717.5095,210.5313 717.4939,210.4063 717.4001,210.25 C717.2439,209.9844 716.9626,209.8438 716.6658,209.8438 C716.3689,209.8438 716.1658,209.9375 715.947,210.25 L715.7751,210.1719 Z " fill="#000000"/><text fill="#000000" font-family="sans-serif" font-size="12" lengthAdjust="spacing" textLength="80" x="733.8314" y="218.6543">PrintShipsInfo</text><line style="stroke:#A80036;stroke-width:1.5;" x1="670.6314" x2="844.6314" y1="230.5" y2="230.5"/><line style="stroke:#A80036;stroke-width:1.5;" x1="670.6314" x2="844.6314" y1="238.5" y2="238.5"/><ellipse cx="680.6314" cy="249.5" fill="#84BE84" rx="3" ry="3" style="stroke:#038048;stroke-width:1.0;"/><text fill="#000000" font-family="sans-serif" font-size="11" lengthAdjust="spacing" textLength="150" x="689.6314" y="252.7104">getNumberofMovements()</text><ellipse cx="680.6314" cy="262.3047" fill="#84BE84" rx="3" ry="3" style="stroke:#038048;stroke-width:1.0;"/><text fill="#000000" font-family="sans-serif" font-size="11" lengthAdjust="spacing" textLength="100" x="689.6314" y="265.5151">getRealdistance()</text><ellipse cx="680.6314" cy="275.1094" fill="#84BE84" rx="3" ry="3" style="stroke:#038048;stroke-width:1.0;"/><text fill="#000000" font-family="sans-serif" font-size="11" lengthAdjust="spacing" textLength="56" x="689.6314" y="278.3198">getMmsi()</text><ellipse cx="680.6314" cy="287.9141" fill="#84BE84" rx="3" ry="3" style="stroke:#038048;stroke-width:1.0;"/><text fill="#000000" font-family="sans-serif" font-size="11" lengthAdjust="spacing" textLength="106" x="689.6314" y="291.1245">getDeltadistance()</text><!--MD5=[7665df22edf1c25dab61828463591d5e]
link PrintingShipsInfoController to BSTShip--><path codeLine="1" d="M240.0544,74.218 C173.4824,86.9 88.8293,115.319 45.6319,179 C6,237.425 34.7445,324.129 56.1292,371.8591 " fill="none" id="PrintingShipsInfoController-to-BSTShip" style="stroke:#A80036;stroke-width:1.0;stroke-dasharray:7.0,7.0;"/><polygon fill="#A80036" points="58.3033,376.6361,58.2157,366.7876,56.232,372.0853,50.9344,370.1017,58.3033,376.6361" style="stroke:#A80036;stroke-width:1.0;"/><!--MD5=[9500dc07c9f9b58c79307ed4dbf5707c]
link PrintingShipsInfoController to Company--><path codeLine="2" d="M275.2584,119.154 C249.3424,143.228 219.1124,171.31 193.5964,195.013 " fill="none" id="PrintingShipsInfoController-to-Company" style="stroke:#A80036;stroke-width:1.0;stroke-dasharray:7.0,7.0;"/><polygon fill="#A80036" points="189.8664,198.477,199.1826,195.2819,193.5296,195.0739,193.7376,189.4208,189.8664,198.477" style="stroke:#A80036;stroke-width:1.0;"/><!--MD5=[9793fcf9c616d39ec506caf66dde8c24]
link PrintingShipsInfoController to Ship--><path codeLine="3" d="M334.6314,119.403 C334.6314,149.581 334.6314,186 334.6314,212.191 " fill="none" id="PrintingShipsInfoController-to-Ship" style="stroke:#A80036;stroke-width:1.0;stroke-dasharray:7.0,7.0;"/><polygon fill="#A80036" points="334.6314,217.288,338.6314,208.288,334.6314,212.288,330.6314,208.288,334.6314,217.288" style="stroke:#A80036;stroke-width:1.0;"/><!--MD5=[6f837ed67ff326e813c3371dc251d121]
link PrintingShipsInfoController to BSTDynData--><path codeLine="4" d="M398.2254,119.154 C418.5584,136.789 441.3714,156.575 462.8634,175.215 " fill="none" id="PrintingShipsInfoController-to-BSTDynData" style="stroke:#A80036;stroke-width:1.0;stroke-dasharray:7.0,7.0;"/><polygon fill="#A80036" points="466.8604,178.682,462.6819,169.7635,463.083,175.4061,457.4404,175.8073,466.8604,178.682" style="stroke:#A80036;stroke-width:1.0;"/><!--MD5=[9f1af82e1b0b88ebf71b66d77c11ec76]
link PrintingShipsInfoController to PrintShipsInfo--><path codeLine="5" d="M429.1344,92.176 C493.3774,112.793 579.4724,143.321 651.6314,179 C661.7494,184.003 672.0974,189.753 682.1714,195.746 " fill="none" id="PrintingShipsInfoController-to-PrintShipsInfo" style="stroke:#A80036;stroke-width:1.0;stroke-dasharray:7.0,7.0;"/><polygon fill="#A80036" points="686.4704,198.328,680.8149,190.2648,682.1842,195.7534,676.6956,197.1227,686.4704,198.328" style="stroke:#A80036;stroke-width:1.0;"/><!--MD5=[662567d9e10e593fef100fb7b5669386]
link Company to BSTShip--><path codeLine="18" d="M117.9075,297.54 C108.1419,321.573 96.5785,350.0298 87.7182,371.8345 " fill="none" id="Company-to-BSTShip" style="stroke:#A80036;stroke-width:1.0;stroke-dasharray:7.0,7.0;"/><polygon fill="#A80036" points="85.7562,376.6628,92.8501,369.8307,87.6385,372.0306,85.4386,366.8191,85.7562,376.6628" style="stroke:#A80036;stroke-width:1.0;"/><!--MD5=[3f99b3a72bba9ad411762feb01b27dec]
@startuml
PrintingShipsInfoController ..>BSTShip
PrintingShipsInfoController ..>Company
PrintingShipsInfoController ..>Ship
PrintingShipsInfoController ..>BSTDynData
PrintingShipsInfoController ..>PrintShipsInfo

PrintingShipsInfoController : +getShips()
PrintingShipsInfoController : +organizeInformation()
PrintingShipsInfoController : +organizeAsc()
PrintingShipsInfoController : +printInformation()
PrintingShipsInfoController : +organizeDesc()

Company : -bstShips: BSTShip
Company : +Company()
Company : +getBstShips()
Company : +setBstShips(ShipBST)

Company ..>BSTShip

BSTDynData : +Departure()
BSTDynData : +Arrival()
BSTDynData : +inOrder()
BSTDynData : +size()
BSTDynData : +travelledDistance()
BSTDynData : +inorderCalculateDistance()
BSTDynData : +shipDynData()

BSTShip : +inOrder()

PrintShipsInfo : +getNumberofMovements()
PrintShipsInfo : +getRealdistance()
PrintShipsInfo : +getMmsi()
PrintShipsInfo : +getDeltadistance()

Ship : +ShipSearchByMmsi(mmsi)
@enduml

PlantUML version 1.2021.14(Fri Nov 12 16:46:50 UTC 2021)
(GPL source distribution)
Java Runtime: Java(TM) SE Runtime Environment
JVM: Java HotSpot(TM) 64-Bit Server VM
Default Encoding: UTF-8
Language: en
Country: US
--></g></svg>