<?xml version="1.0" encoding="UTF-8" standalone="no"?><svg xmlns="http://www.w3.org/2000/svg" xmlns:xlink="http://www.w3.org/1999/xlink" contentScriptType="application/ecmascript" contentStyleType="text/css" height="496px" preserveAspectRatio="none" style="width:1453px;height:496px;background:#FFFFFF;" version="1.1" viewBox="0 0 1453 496" width="1453px" zoomAndPan="magnify"><defs><filter height="300%" id="f16c7dzrrjhhhg" width="300%" x="-1" y="-1"><feGaussianBlur result="blurOut" stdDeviation="2.0"/><feColorMatrix in="blurOut" result="blurOut2" type="matrix" values="0 0 0 0 0 0 0 0 0 0 0 0 0 0 0 0 0 0 .4 0"/><feOffset dx="4.0" dy="4.0" in="blurOut2" result="blurOut3"/><feBlend in="SourceGraphic" in2="blurOut3" mode="normal"/></filter></defs><g><rect fill="#FFFFFF" filter="url(#f16c7dzrrjhhhg)" height="296.3281" style="stroke:#A80036;stroke-width:1.0;" width="10" x="51" y="98.2969"/><rect fill="#FFFFFF" filter="url(#f16c7dzrrjhhhg)" height="29.1328" style="stroke:#A80036;stroke-width:1.0;" width="10" x="806" y="119.4297"/><rect fill="#FFFFFF" filter="url(#f16c7dzrrjhhhg)" height="216.9297" style="stroke:#A80036;stroke-width:1.0;" width="10" x="806" y="177.6953"/><rect fill="#FFFFFF" filter="url(#f16c7dzrrjhhhg)" height="187.7969" style="stroke:#A80036;stroke-width:1.0;" width="10" x="1004" y="206.8281"/><rect fill="#FFFFFF" filter="url(#f16c7dzrrjhhhg)" height="71.2656" style="stroke:#A80036;stroke-width:1.0;" width="10" x="1157" y="235.9609"/><rect fill="#FFFFFF" filter="url(#f16c7dzrrjhhhg)" height="29.1328" style="stroke:#A80036;stroke-width:1.0;" width="10" x="1378" y="307.2266"/><line style="stroke:#A80036;stroke-width:1.0;stroke-dasharray:5.0,5.0;" x1="56" x2="56" y1="88.2969" y2="412.625"/><line style="stroke:#A80036;stroke-width:1.0;stroke-dasharray:5.0,5.0;" x1="811" x2="811" y1="88.2969" y2="412.625"/><line style="stroke:#A80036;stroke-width:1.0;stroke-dasharray:5.0,5.0;" x1="1009" x2="1009" y1="88.2969" y2="412.625"/><line style="stroke:#A80036;stroke-width:1.0;stroke-dasharray:5.0,5.0;" x1="1162" x2="1162" y1="88.2969" y2="412.625"/><line style="stroke:#A80036;stroke-width:1.0;stroke-dasharray:5.0,5.0;" x1="1382.5" x2="1382.5" y1="88.2969" y2="412.625"/><text fill="#000000" font-family="sans-serif" font-size="14" lengthAdjust="spacing" textLength="96" x="5" y="84.9951">Port Manager</text><ellipse cx="56" cy="15" fill="#FEFECE" filter="url(#f16c7dzrrjhhhg)" rx="8" ry="8" style="stroke:#A80036;stroke-width:2.0;"/><path d="M56,23 L56,50 M43,31 L69,31 M56,50 L43,65 M56,50 L69,65 " fill="none" filter="url(#f16c7dzrrjhhhg)" style="stroke:#A80036;stroke-width:2.0;"/><text fill="#000000" font-family="sans-serif" font-size="14" lengthAdjust="spacing" textLength="96" x="5" y="424.6201">Port Manager</text><ellipse cx="56" cy="437.9219" fill="#FEFECE" filter="url(#f16c7dzrrjhhhg)" rx="8" ry="8" style="stroke:#A80036;stroke-width:2.0;"/><path d="M56,445.9219 L56,472.9219 M43,453.9219 L69,453.9219 M56,472.9219 L43,487.9219 M56,472.9219 L69,487.9219 " fill="none" filter="url(#f16c7dzrrjhhhg)" style="stroke:#A80036;stroke-width:2.0;"/><rect fill="#FEFECE" filter="url(#f16c7dzrrjhhhg)" height="30.2969" style="stroke:#A80036;stroke-width:1.5;" width="154" x="732" y="53"/><text fill="#000000" font-family="sans-serif" font-size="14" lengthAdjust="spacing" textLength="140" x="739" y="72.9951">:WarningCapacityUI</text><rect fill="#FEFECE" filter="url(#f16c7dzrrjhhhg)" height="30.2969" style="stroke:#A80036;stroke-width:1.5;" width="154" x="732" y="411.625"/><text fill="#000000" font-family="sans-serif" font-size="14" lengthAdjust="spacing" textLength="140" x="739" y="431.6201">:WarningCapacityUI</text><rect fill="#FEFECE" filter="url(#f16c7dzrrjhhhg)" height="30.2969" style="stroke:#A80036;stroke-width:1.5;" width="214" x="900" y="53"/><text fill="#000000" font-family="sans-serif" font-size="14" lengthAdjust="spacing" textLength="200" x="907" y="72.9951">:WarningCapacityController</text><rect fill="#FEFECE" filter="url(#f16c7dzrrjhhhg)" height="30.2969" style="stroke:#A80036;stroke-width:1.5;" width="214" x="900" y="411.625"/><text fill="#000000" font-family="sans-serif" font-size="14" lengthAdjust="spacing" textLength="200" x="907" y="431.6201">:WarningCapacityController</text><rect fill="#FEFECE" filter="url(#f16c7dzrrjhhhg)" height="30.2969" style="stroke:#A80036;stroke-width:1.5;" width="64" x="1128" y="53"/><text fill="#000000" font-family="sans-serif" font-size="14" lengthAdjust="spacing" textLength="50" x="1135" y="72.9951">:US307</text><rect fill="#FEFECE" filter="url(#f16c7dzrrjhhhg)" height="30.2969" style="stroke:#A80036;stroke-width:1.5;" width="64" x="1128" y="411.625"/><text fill="#000000" font-family="sans-serif" font-size="14" lengthAdjust="spacing" textLength="50" x="1135" y="431.6201">:US307</text><rect fill="#FEFECE" filter="url(#f16c7dzrrjhhhg)" height="30.2969" style="stroke:#A80036;stroke-width:1.5;" width="117" x="1322.5" y="53"/><text fill="#000000" font-family="sans-serif" font-size="14" lengthAdjust="spacing" textLength="103" x="1329.5" y="72.9951">:FileOperation</text><rect fill="#FEFECE" filter="url(#f16c7dzrrjhhhg)" height="30.2969" style="stroke:#A80036;stroke-width:1.5;" width="117" x="1322.5" y="411.625"/><text fill="#000000" font-family="sans-serif" font-size="14" lengthAdjust="spacing" textLength="103" x="1329.5" y="431.6201">:FileOperation</text><rect fill="#FFFFFF" filter="url(#f16c7dzrrjhhhg)" height="296.3281" style="stroke:#A80036;stroke-width:1.0;" width="10" x="51" y="98.2969"/><rect fill="#FFFFFF" filter="url(#f16c7dzrrjhhhg)" height="29.1328" style="stroke:#A80036;stroke-width:1.0;" width="10" x="806" y="119.4297"/><rect fill="#FFFFFF" filter="url(#f16c7dzrrjhhhg)" height="216.9297" style="stroke:#A80036;stroke-width:1.0;" width="10" x="806" y="177.6953"/><rect fill="#FFFFFF" filter="url(#f16c7dzrrjhhhg)" height="187.7969" style="stroke:#A80036;stroke-width:1.0;" width="10" x="1004" y="206.8281"/><rect fill="#FFFFFF" filter="url(#f16c7dzrrjhhhg)" height="71.2656" style="stroke:#A80036;stroke-width:1.0;" width="10" x="1157" y="235.9609"/><rect fill="#FFFFFF" filter="url(#f16c7dzrrjhhhg)" height="29.1328" style="stroke:#A80036;stroke-width:1.0;" width="10" x="1378" y="307.2266"/><polygon fill="#A80036" points="794,115.4297,804,119.4297,794,123.4297,798,119.4297" style="stroke:#A80036;stroke-width:1.0;"/><line style="stroke:#A80036;stroke-width:1.0;" x1="61" x2="800" y1="119.4297" y2="119.4297"/><text fill="#000000" font-family="sans-serif" font-size="13" font-weight="bold" lengthAdjust="spacing" textLength="9" x="68" y="114.3638">1</text><text fill="#000000" font-family="sans-serif" font-size="13" lengthAdjust="spacing" textLength="713" x="81" y="114.3638">wish to  have access to audit trails for a given container and to a list of all operations performed on a container</text><polygon fill="#A80036" points="72,144.5625,62,148.5625,72,152.5625,68,148.5625" style="stroke:#A80036;stroke-width:1.0;"/><line style="stroke:#A80036;stroke-width:1.0;stroke-dasharray:2.0,2.0;" x1="66" x2="810" y1="148.5625" y2="148.5625"/><text fill="#000000" font-family="sans-serif" font-size="13" font-weight="bold" lengthAdjust="spacing" textLength="9" x="78" y="143.4966">2</text><text fill="#000000" font-family="sans-serif" font-size="13" lengthAdjust="spacing" textLength="171" x="91" y="143.4966">request the data to search</text><polygon fill="#A80036" points="794,173.6953,804,177.6953,794,181.6953,798,177.6953" style="stroke:#A80036;stroke-width:1.0;"/><line style="stroke:#A80036;stroke-width:1.0;" x1="61" x2="800" y1="177.6953" y2="177.6953"/><text fill="#000000" font-family="sans-serif" font-size="13" font-weight="bold" lengthAdjust="spacing" textLength="8" x="68" y="172.6294">3</text><text fill="#000000" font-family="sans-serif" font-size="13" lengthAdjust="spacing" textLength="399" x="80" y="172.6294">types the container identifier and the cargo manifest identifier</text><polygon fill="#A80036" points="992,202.8281,1002,206.8281,992,210.8281,996,206.8281" style="stroke:#A80036;stroke-width:1.0;"/><line style="stroke:#A80036;stroke-width:1.0;" x1="816" x2="998" y1="206.8281" y2="206.8281"/><text fill="#000000" font-family="sans-serif" font-size="13" font-weight="bold" lengthAdjust="spacing" textLength="9" x="823" y="201.7622">4</text><text fill="#000000" font-family="sans-serif" font-size="13" lengthAdjust="spacing" textLength="82" x="836" y="201.7622">createUS304</text><polygon fill="#A80036" points="1145,231.9609,1155,235.9609,1145,239.9609,1149,235.9609" style="stroke:#A80036;stroke-width:1.0;"/><line style="stroke:#A80036;stroke-width:1.0;" x1="1014" x2="1151" y1="235.9609" y2="235.9609"/><text fill="#000000" font-family="sans-serif" font-size="13" font-weight="bold" lengthAdjust="spacing" textLength="9" x="1021" y="230.895">5</text><text fill="#000000" font-family="sans-serif" font-size="13" lengthAdjust="spacing" textLength="92" x="1034" y="230.895">demo(INSERT)</text><line style="stroke:#A80036;stroke-width:1.0;" x1="1167" x2="1209" y1="265.0938" y2="265.0938"/><line style="stroke:#A80036;stroke-width:1.0;" x1="1209" x2="1209" y1="265.0938" y2="278.0938"/><line style="stroke:#A80036;stroke-width:1.0;" x1="1168" x2="1209" y1="278.0938" y2="278.0938"/><polygon fill="#A80036" points="1178,274.0938,1168,278.0938,1178,282.0938,1174,278.0938" style="stroke:#A80036;stroke-width:1.0;"/><text fill="#000000" font-family="sans-serif" font-size="13" font-weight="bold" lengthAdjust="spacing" textLength="9" x="1174" y="260.0278">6</text><text fill="#000000" font-family="sans-serif" font-size="13" lengthAdjust="spacing" textLength="51" x="1187" y="260.0278">initialize</text><polygon fill="#A80036" points="1366,303.2266,1376,307.2266,1366,311.2266,1370,307.2266" style="stroke:#A80036;stroke-width:1.0;"/><line style="stroke:#A80036;stroke-width:1.0;" x1="1162" x2="1372" y1="307.2266" y2="307.2266"/><text fill="#000000" font-family="sans-serif" font-size="13" font-weight="bold" lengthAdjust="spacing" textLength="9" x="1169" y="302.1606">7</text><text fill="#000000" font-family="sans-serif" font-size="13" lengthAdjust="spacing" textLength="179" x="1182" y="302.1606">WriteToAFile(e.getMessage)</text><polygon fill="#A80036" points="1025,332.3594,1015,336.3594,1025,340.3594,1021,336.3594" style="stroke:#A80036;stroke-width:1.0;"/><line style="stroke:#A80036;stroke-width:1.0;stroke-dasharray:2.0,2.0;" x1="1019" x2="1382" y1="336.3594" y2="336.3594"/><text fill="#000000" font-family="sans-serif" font-size="13" font-weight="bold" lengthAdjust="spacing" textLength="9" x="1031" y="331.2935">8</text><text fill="#000000" font-family="sans-serif" font-size="13" lengthAdjust="spacing" textLength="19" x="1044" y="331.2935">file</text><polygon fill="#A80036" points="827,361.4922,817,365.4922,827,369.4922,823,365.4922" style="stroke:#A80036;stroke-width:1.0;"/><line style="stroke:#A80036;stroke-width:1.0;stroke-dasharray:2.0,2.0;" x1="821" x2="1003" y1="365.4922" y2="365.4922"/><text fill="#000000" font-family="sans-serif" font-size="13" font-weight="bold" lengthAdjust="spacing" textLength="9" x="833" y="360.4263">9</text><text fill="#000000" font-family="sans-serif" font-size="13" lengthAdjust="spacing" textLength="19" x="846" y="360.4263">file</text><polygon fill="#A80036" points="67,390.625,57,394.625,67,398.625,63,394.625" style="stroke:#A80036;stroke-width:1.0;"/><line style="stroke:#A80036;stroke-width:1.0;stroke-dasharray:2.0,2.0;" x1="61" x2="810" y1="394.625" y2="394.625"/><text fill="#000000" font-family="sans-serif" font-size="13" font-weight="bold" lengthAdjust="spacing" textLength="19" x="73" y="389.5591">10</text><text fill="#000000" font-family="sans-serif" font-size="13" lengthAdjust="spacing" textLength="168" x="96" y="389.5591">shows the requested data</text><!--MD5=[5fc09a3361b0f64c84a526811e9e37ff]
@startuml
actor "Port Manager" as Adm
participant ":WarningCapacityUI" as System
participant ":WarningCapacityController" as SSC
participant ":US307" as us
participant ":FileOperation" as f

autonumber

activate Adm

Adm -> System: wish to  have access to audit trails for a given container and to a list of all operations performed on a container

activate System

System - -> Adm: request the data to search

deactivate System

Adm -> System: types the container identifier and the cargo manifest identifier

activate System

System -> SSC: createUS304

activate SSC

SSC -> us: demo(INSERT)

activate us

us -> us: initialize

us -> f: WriteToAFile(e.getMessage)

deactivate us

activate f

f - -> SSC: file

deactivate f

SSC - -> System: file

System - -> Adm: shows the requested data

deactivate SSC

deactivate System

deactivate Adm
@enduml

PlantUML version 1.2021.17beta7(Unknown compile time)
(GPL source distribution)
Java Runtime: Java(TM) SE Runtime Environment
JVM: Java HotSpot(TM) 64-Bit Server VM
Default Encoding: UTF-8
Language: en
Country: US
--></g></svg>