<?xml version="1.0" encoding="UTF-8" standalone="no"?><svg xmlns="http://www.w3.org/2000/svg" xmlns:xlink="http://www.w3.org/1999/xlink" contentScriptType="application/ecmascript" contentStyleType="text/css" height="496px" preserveAspectRatio="none" style="width:1529px;height:496px;background:#FFFFFF;" version="1.1" viewBox="0 0 1529 496" width="1529px" zoomAndPan="magnify"><defs><filter height="300%" id="f710xnx7f0pes" width="300%" x="-1" y="-1"><feGaussianBlur result="blurOut" stdDeviation="2.0"/><feColorMatrix in="blurOut" result="blurOut2" type="matrix" values="0 0 0 0 0 0 0 0 0 0 0 0 0 0 0 0 0 0 .4 0"/><feOffset dx="4.0" dy="4.0" in="blurOut2" result="blurOut3"/><feBlend in="SourceGraphic" in2="blurOut3" mode="normal"/></filter></defs><g><rect fill="#FFFFFF" filter="url(#f710xnx7f0pes)" height="296.3281" style="stroke:#A80036;stroke-width:1.0;" width="10" x="51" y="98.2969"/><rect fill="#FFFFFF" filter="url(#f710xnx7f0pes)" height="29.1328" style="stroke:#A80036;stroke-width:1.0;" width="10" x="675" y="119.4297"/><rect fill="#FFFFFF" filter="url(#f710xnx7f0pes)" height="216.9297" style="stroke:#A80036;stroke-width:1.0;" width="10" x="675" y="177.6953"/><rect fill="#FFFFFF" filter="url(#f710xnx7f0pes)" height="187.7969" style="stroke:#A80036;stroke-width:1.0;" width="10" x="952" y="206.8281"/><rect fill="#FFFFFF" filter="url(#f710xnx7f0pes)" height="71.2656" style="stroke:#A80036;stroke-width:1.0;" width="10" x="1256" y="235.9609"/><rect fill="#FFFFFF" filter="url(#f710xnx7f0pes)" height="29.1328" style="stroke:#A80036;stroke-width:1.0;" width="10" x="1454" y="307.2266"/><line style="stroke:#A80036;stroke-width:1.0;stroke-dasharray:5.0,5.0;" x1="56" x2="56" y1="88.2969" y2="412.625"/><line style="stroke:#A80036;stroke-width:1.0;stroke-dasharray:5.0,5.0;" x1="679.5" x2="679.5" y1="88.2969" y2="412.625"/><line style="stroke:#A80036;stroke-width:1.0;stroke-dasharray:5.0,5.0;" x1="956.5" x2="956.5" y1="88.2969" y2="412.625"/><line style="stroke:#A80036;stroke-width:1.0;stroke-dasharray:5.0,5.0;" x1="1261" x2="1261" y1="88.2969" y2="412.625"/><line style="stroke:#A80036;stroke-width:1.0;stroke-dasharray:5.0,5.0;" x1="1458.5" x2="1458.5" y1="88.2969" y2="412.625"/><text fill="#000000" font-family="sans-serif" font-size="14" lengthAdjust="spacing" textLength="96" x="5" y="84.9951">Port Manager</text><ellipse cx="56" cy="15" fill="#FEFECE" filter="url(#f710xnx7f0pes)" rx="8" ry="8" style="stroke:#A80036;stroke-width:2.0;"/><path d="M56,23 L56,50 M43,31 L69,31 M56,50 L43,65 M56,50 L69,65 " fill="none" filter="url(#f710xnx7f0pes)" style="stroke:#A80036;stroke-width:2.0;"/><text fill="#000000" font-family="sans-serif" font-size="14" lengthAdjust="spacing" textLength="96" x="5" y="424.6201">Port Manager</text><ellipse cx="56" cy="437.9219" fill="#FEFECE" filter="url(#f710xnx7f0pes)" rx="8" ry="8" style="stroke:#A80036;stroke-width:2.0;"/><path d="M56,445.9219 L56,472.9219 M43,453.9219 L69,453.9219 M56,472.9219 L43,487.9219 M56,472.9219 L69,487.9219 " fill="none" filter="url(#f710xnx7f0pes)" style="stroke:#A80036;stroke-width:2.0;"/><rect fill="#FEFECE" filter="url(#f710xnx7f0pes)" height="30.2969" style="stroke:#A80036;stroke-width:1.5;" width="233" x="561.5" y="53"/><text fill="#000000" font-family="sans-serif" font-size="14" lengthAdjust="spacing" textLength="219" x="568.5" y="72.9951">:WarningWarehouseCapacityUI</text><rect fill="#FEFECE" filter="url(#f710xnx7f0pes)" height="30.2969" style="stroke:#A80036;stroke-width:1.5;" width="233" x="561.5" y="411.625"/><text fill="#000000" font-family="sans-serif" font-size="14" lengthAdjust="spacing" textLength="219" x="568.5" y="431.6201">:WarningWarehouseCapacityUI</text><rect fill="#FEFECE" filter="url(#f710xnx7f0pes)" height="30.2969" style="stroke:#A80036;stroke-width:1.5;" width="293" x="808.5" y="53"/><text fill="#000000" font-family="sans-serif" font-size="14" lengthAdjust="spacing" textLength="279" x="815.5" y="72.9951">:WarningWarehouseCapacityController</text><rect fill="#FEFECE" filter="url(#f710xnx7f0pes)" height="30.2969" style="stroke:#A80036;stroke-width:1.5;" width="293" x="808.5" y="411.625"/><text fill="#000000" font-family="sans-serif" font-size="14" lengthAdjust="spacing" textLength="279" x="815.5" y="431.6201">:WarningWarehouseCapacityController</text><rect fill="#FEFECE" filter="url(#f710xnx7f0pes)" height="30.2969" style="stroke:#A80036;stroke-width:1.5;" width="64" x="1227" y="53"/><text fill="#000000" font-family="sans-serif" font-size="14" lengthAdjust="spacing" textLength="50" x="1234" y="72.9951">:US307</text><rect fill="#FEFECE" filter="url(#f710xnx7f0pes)" height="30.2969" style="stroke:#A80036;stroke-width:1.5;" width="64" x="1227" y="411.625"/><text fill="#000000" font-family="sans-serif" font-size="14" lengthAdjust="spacing" textLength="50" x="1234" y="431.6201">:US307</text><rect fill="#FEFECE" filter="url(#f710xnx7f0pes)" height="30.2969" style="stroke:#A80036;stroke-width:1.5;" width="117" x="1398.5" y="53"/><text fill="#000000" font-family="sans-serif" font-size="14" lengthAdjust="spacing" textLength="103" x="1405.5" y="72.9951">:FileOperation</text><rect fill="#FEFECE" filter="url(#f710xnx7f0pes)" height="30.2969" style="stroke:#A80036;stroke-width:1.5;" width="117" x="1398.5" y="411.625"/><text fill="#000000" font-family="sans-serif" font-size="14" lengthAdjust="spacing" textLength="103" x="1405.5" y="431.6201">:FileOperation</text><rect fill="#FFFFFF" filter="url(#f710xnx7f0pes)" height="296.3281" style="stroke:#A80036;stroke-width:1.0;" width="10" x="51" y="98.2969"/><rect fill="#FFFFFF" filter="url(#f710xnx7f0pes)" height="29.1328" style="stroke:#A80036;stroke-width:1.0;" width="10" x="675" y="119.4297"/><rect fill="#FFFFFF" filter="url(#f710xnx7f0pes)" height="216.9297" style="stroke:#A80036;stroke-width:1.0;" width="10" x="675" y="177.6953"/><rect fill="#FFFFFF" filter="url(#f710xnx7f0pes)" height="187.7969" style="stroke:#A80036;stroke-width:1.0;" width="10" x="952" y="206.8281"/><rect fill="#FFFFFF" filter="url(#f710xnx7f0pes)" height="71.2656" style="stroke:#A80036;stroke-width:1.0;" width="10" x="1256" y="235.9609"/><rect fill="#FFFFFF" filter="url(#f710xnx7f0pes)" height="29.1328" style="stroke:#A80036;stroke-width:1.0;" width="10" x="1454" y="307.2266"/><polygon fill="#A80036" points="663,115.4297,673,119.4297,663,123.4297,667,119.4297" style="stroke:#A80036;stroke-width:1.0;"/><line style="stroke:#A80036;stroke-width:1.0;" x1="61" x2="669" y1="119.4297" y2="119.4297"/><text fill="#000000" font-family="sans-serif" font-size="13" font-weight="bold" lengthAdjust="spacing" textLength="9" x="68" y="114.3638">1</text><text fill="#000000" font-family="sans-serif" font-size="13" lengthAdjust="spacing" textLength="582" x="81" y="114.3638">wish to know if the warehouse have available capacity to accommodate the new manifest</text><polygon fill="#A80036" points="72,144.5625,62,148.5625,72,152.5625,68,148.5625" style="stroke:#A80036;stroke-width:1.0;"/><line style="stroke:#A80036;stroke-width:1.0;stroke-dasharray:2.0,2.0;" x1="66" x2="679" y1="148.5625" y2="148.5625"/><text fill="#000000" font-family="sans-serif" font-size="13" font-weight="bold" lengthAdjust="spacing" textLength="9" x="78" y="143.4966">2</text><text fill="#000000" font-family="sans-serif" font-size="13" lengthAdjust="spacing" textLength="333" x="91" y="143.4966">request the cargo manifest id and the warehouse id</text><polygon fill="#A80036" points="663,173.6953,673,177.6953,663,181.6953,667,177.6953" style="stroke:#A80036;stroke-width:1.0;"/><line style="stroke:#A80036;stroke-width:1.0;" x1="61" x2="669" y1="177.6953" y2="177.6953"/><text fill="#000000" font-family="sans-serif" font-size="13" font-weight="bold" lengthAdjust="spacing" textLength="8" x="68" y="172.6294">3</text><text fill="#000000" font-family="sans-serif" font-size="13" lengthAdjust="spacing" textLength="138" x="80" y="172.6294">types requested data</text><polygon fill="#A80036" points="940,202.8281,950,206.8281,940,210.8281,944,206.8281" style="stroke:#A80036;stroke-width:1.0;"/><line style="stroke:#A80036;stroke-width:1.0;" x1="685" x2="946" y1="206.8281" y2="206.8281"/><text fill="#000000" font-family="sans-serif" font-size="13" font-weight="bold" lengthAdjust="spacing" textLength="9" x="692" y="201.7622">4</text><text fill="#000000" font-family="sans-serif" font-size="13" lengthAdjust="spacing" textLength="82" x="705" y="201.7622">createUS307</text><polygon fill="#A80036" points="1244,231.9609,1254,235.9609,1244,239.9609,1248,235.9609" style="stroke:#A80036;stroke-width:1.0;"/><line style="stroke:#A80036;stroke-width:1.0;" x1="962" x2="1250" y1="235.9609" y2="235.9609"/><text fill="#000000" font-family="sans-serif" font-size="13" font-weight="bold" lengthAdjust="spacing" textLength="9" x="969" y="230.895">5</text><text fill="#000000" font-family="sans-serif" font-size="13" lengthAdjust="spacing" textLength="262" x="982" y="230.895">demo(cargo_manifest_id, warehouse_id)</text><line style="stroke:#A80036;stroke-width:1.0;" x1="1266" x2="1308" y1="265.0938" y2="265.0938"/><line style="stroke:#A80036;stroke-width:1.0;" x1="1308" x2="1308" y1="265.0938" y2="278.0938"/><line style="stroke:#A80036;stroke-width:1.0;" x1="1267" x2="1308" y1="278.0938" y2="278.0938"/><polygon fill="#A80036" points="1277,274.0938,1267,278.0938,1277,282.0938,1273,278.0938" style="stroke:#A80036;stroke-width:1.0;"/><text fill="#000000" font-family="sans-serif" font-size="13" font-weight="bold" lengthAdjust="spacing" textLength="9" x="1273" y="260.0278">6</text><text fill="#000000" font-family="sans-serif" font-size="13" lengthAdjust="spacing" textLength="51" x="1286" y="260.0278">initialize</text><polygon fill="#A80036" points="1442,303.2266,1452,307.2266,1442,311.2266,1446,307.2266" style="stroke:#A80036;stroke-width:1.0;"/><line style="stroke:#A80036;stroke-width:1.0;" x1="1261" x2="1448" y1="307.2266" y2="307.2266"/><text fill="#000000" font-family="sans-serif" font-size="13" font-weight="bold" lengthAdjust="spacing" textLength="9" x="1268" y="302.1606">7</text><text fill="#000000" font-family="sans-serif" font-size="13" lengthAdjust="spacing" textLength="156" x="1281" y="302.1606">WriteToAFile(path, data)</text><polygon fill="#A80036" points="973,332.3594,963,336.3594,973,340.3594,969,336.3594" style="stroke:#A80036;stroke-width:1.0;"/><line style="stroke:#A80036;stroke-width:1.0;stroke-dasharray:2.0,2.0;" x1="967" x2="1458" y1="336.3594" y2="336.3594"/><text fill="#000000" font-family="sans-serif" font-size="13" font-weight="bold" lengthAdjust="spacing" textLength="9" x="979" y="331.2935">8</text><text fill="#000000" font-family="sans-serif" font-size="13" lengthAdjust="spacing" textLength="19" x="992" y="331.2935">file</text><polygon fill="#A80036" points="696,361.4922,686,365.4922,696,369.4922,692,365.4922" style="stroke:#A80036;stroke-width:1.0;"/><line style="stroke:#A80036;stroke-width:1.0;stroke-dasharray:2.0,2.0;" x1="690" x2="951" y1="365.4922" y2="365.4922"/><text fill="#000000" font-family="sans-serif" font-size="13" font-weight="bold" lengthAdjust="spacing" textLength="9" x="702" y="360.4263">9</text><text fill="#000000" font-family="sans-serif" font-size="13" lengthAdjust="spacing" textLength="19" x="715" y="360.4263">file</text><polygon fill="#A80036" points="67,390.625,57,394.625,67,398.625,63,394.625" style="stroke:#A80036;stroke-width:1.0;"/><line style="stroke:#A80036;stroke-width:1.0;stroke-dasharray:2.0,2.0;" x1="61" x2="679" y1="394.625" y2="394.625"/><text fill="#000000" font-family="sans-serif" font-size="13" font-weight="bold" lengthAdjust="spacing" textLength="19" x="73" y="389.5591">10</text><text fill="#000000" font-family="sans-serif" font-size="13" lengthAdjust="spacing" textLength="168" x="96" y="389.5591">shows the requested data</text><!--MD5=[aeaafd42bd87bb266530868e4e8e3842]
@startuml
actor "Port Manager" as Adm
participant ":WarningWarehouseCapacityUI" as System
participant ":WarningWarehouseCapacityController" as SSC
participant ":US307" as us
participant ":FileOperation" as f

autonumber

activate Adm

Adm -> System: wish to know if the warehouse have available capacity to accommodate the new manifest

activate System

System - -> Adm: request the cargo manifest id and the warehouse id

deactivate System

Adm -> System: types requested data

activate System

System -> SSC: createUS307

activate SSC

SSC -> us: demo(cargo_manifest_id, warehouse_id)

activate us

us -> us: initialize

us -> f: WriteToAFile(path, data)

deactivate us

activate f

f - -> SSC: file

deactivate f

SSC - -> System: file

System - -> Adm: shows the requested data

deactivate SSC

deactivate System

deactivate Adm
@enduml

PlantUML version 1.2021.17beta3(Unknown compile time)
(GPL source distribution)
Java Runtime: Java(TM) SE Runtime Environment
JVM: Java HotSpot(TM) 64-Bit Server VM
Default Encoding: UTF-8
Language: en
Country: US
--></g></svg>