<?xml version="1.0" encoding="UTF-8" standalone="no"?><svg xmlns="http://www.w3.org/2000/svg" xmlns:xlink="http://www.w3.org/1999/xlink" contentScriptType="application/ecmascript" contentStyleType="text/css" height="374px" preserveAspectRatio="none" style="width:896px;height:374px;background:#FFFFFF;" version="1.1" viewBox="0 0 896 374" width="896px" zoomAndPan="magnify"><defs><filter height="300%" id="frofuxoghu7vp" width="300%" x="-1" y="-1"><feGaussianBlur result="blurOut" stdDeviation="2.0"/><feColorMatrix in="blurOut" result="blurOut2" type="matrix" values="0 0 0 0 0 0 0 0 0 0 0 0 0 0 0 0 0 0 .4 0"/><feOffset dx="4.0" dy="4.0" in="blurOut2" result="blurOut3"/><feBlend in="SourceGraphic" in2="blurOut3" mode="normal"/></filter></defs><g><!--MD5=[54911c9bd24907ebc2dd06391b65eb7e]
class TopNshipsPerKmController--><rect fill="#FEFECE" filter="url(#frofuxoghu7vp)" height="73.6094" id="TopNshipsPerKmController" style="stroke:#A80036;stroke-width:1.5;" width="192" x="204.0451" y="7"/><ellipse cx="219.0451" cy="23" fill="#ADD1B2" rx="11" ry="11" style="stroke:#A80036;stroke-width:1.0;"/><path d="M221.3889,18.6719 C220.4514,18.2344 219.8576,18.0938 218.9826,18.0938 C216.3576,18.0938 214.3576,20.1719 214.3576,22.8906 L214.3576,24.0156 C214.3576,26.5938 216.467,28.4844 219.3576,28.4844 C220.5764,28.4844 221.7326,28.1875 222.4826,27.6406 C223.0607,27.2344 223.3889,26.7813 223.3889,26.3906 C223.3889,25.9375 222.9982,25.5469 222.5295,25.5469 C222.3107,25.5469 222.1076,25.625 221.9201,25.8125 C221.467,26.2969 221.467,26.2969 221.2795,26.3906 C220.8576,26.6563 220.1701,26.7813 219.4045,26.7813 C217.3576,26.7813 216.0607,25.6875 216.0607,23.9844 L216.0607,22.8906 C216.0607,21.1094 217.3107,19.7969 219.0451,19.7969 C219.6232,19.7969 220.2326,19.9531 220.7014,20.2031 C221.1857,20.4844 221.3576,20.7031 221.4514,21.1094 C221.5139,21.5156 221.5451,21.6406 221.6857,21.7656 C221.8264,21.9063 222.0607,22.0156 222.2795,22.0156 C222.5451,22.0156 222.8107,21.875 222.9826,21.6563 C223.092,21.5 223.1232,21.3125 223.1232,20.8906 L223.1232,19.4688 C223.1232,19.0313 223.1076,18.9063 223.0139,18.75 C222.8576,18.4844 222.5764,18.3438 222.2795,18.3438 C221.9826,18.3438 221.7795,18.4375 221.5607,18.75 L221.3889,18.6719 Z " fill="#000000"/><text fill="#000000" font-family="sans-serif" font-size="12" lengthAdjust="spacing" textLength="160" x="233.0451" y="27.1543">TopNshipsPerKmController</text><line style="stroke:#A80036;stroke-width:1.5;" x1="205.0451" x2="395.0451" y1="39" y2="39"/><line style="stroke:#A80036;stroke-width:1.5;" x1="205.0451" x2="395.0451" y1="47" y2="47"/><ellipse cx="215.0451" cy="58" fill="#84BE84" rx="3" ry="3" style="stroke:#038048;stroke-width:1.0;"/><text fill="#000000" font-family="sans-serif" font-size="11" lengthAdjust="spacing" textLength="139" x="224.0451" y="61.2104">printNshipsMostKm(path)</text><ellipse cx="215.0451" cy="70.8047" fill="#84BE84" rx="3" ry="3" style="stroke:#038048;stroke-width:1.0;"/><text fill="#000000" font-family="sans-serif" font-size="11" lengthAdjust="spacing" textLength="95" x="224.0451" y="74.0151">sortByValue(hm)</text><!--MD5=[8a61326b4f5c9e6ed3a15cb6e1c143c5]
class BSTShip--><rect fill="#FEFECE" filter="url(#frofuxoghu7vp)" height="60.8047" id="BSTShip" style="stroke:#A80036;stroke-width:1.5;" width="81" x="25.5448" y="300"/><ellipse cx="40.5448" cy="316" fill="#ADD1B2" rx="11" ry="11" style="stroke:#A80036;stroke-width:1.0;"/><path d="M42.8886,311.6719 C41.9511,311.2344 41.3573,311.0938 40.4823,311.0938 C37.8573,311.0938 35.8573,313.1719 35.8573,315.8906 L35.8573,317.0156 C35.8573,319.5938 37.9667,321.4844 40.8573,321.4844 C42.0761,321.4844 43.2323,321.1875 43.9823,320.6406 C44.5605,320.2344 44.8886,319.7813 44.8886,319.3906 C44.8886,318.9375 44.498,318.5469 44.0292,318.5469 C43.8105,318.5469 43.6073,318.625 43.4198,318.8125 C42.9667,319.2969 42.9667,319.2969 42.7792,319.3906 C42.3573,319.6563 41.6698,319.7813 40.9042,319.7813 C38.8573,319.7813 37.5605,318.6875 37.5605,316.9844 L37.5605,315.8906 C37.5605,314.1094 38.8105,312.7969 40.5448,312.7969 C41.123,312.7969 41.7323,312.9531 42.2011,313.2031 C42.6855,313.4844 42.8573,313.7031 42.9511,314.1094 C43.0136,314.5156 43.0448,314.6406 43.1855,314.7656 C43.3261,314.9063 43.5605,315.0156 43.7792,315.0156 C44.0448,315.0156 44.3105,314.875 44.4823,314.6563 C44.5917,314.5 44.623,314.3125 44.623,313.8906 L44.623,312.4688 C44.623,312.0313 44.6073,311.9063 44.5136,311.75 C44.3573,311.4844 44.0761,311.3438 43.7792,311.3438 C43.4823,311.3438 43.2792,311.4375 43.0605,311.75 L42.8886,311.6719 Z " fill="#000000"/><text fill="#000000" font-family="sans-serif" font-size="12" lengthAdjust="spacing" textLength="49" x="54.5448" y="320.1543">BSTShip</text><line style="stroke:#A80036;stroke-width:1.5;" x1="26.5448" x2="105.5448" y1="332" y2="332"/><line style="stroke:#A80036;stroke-width:1.5;" x1="26.5448" x2="105.5448" y1="340" y2="340"/><ellipse cx="36.5448" cy="351" fill="#84BE84" rx="3" ry="3" style="stroke:#038048;stroke-width:1.0;"/><text fill="#000000" font-family="sans-serif" font-size="11" lengthAdjust="spacing" textLength="50" x="45.5448" y="354.2104">inOrder()</text><!--MD5=[02e4b9b7573f1156f41e60aa5b4e25a4]
class Company--><rect fill="#FEFECE" filter="url(#frofuxoghu7vp)" height="99.2188" id="Company" style="stroke:#A80036;stroke-width:1.5;" width="149" x="55.5448" y="141"/><ellipse cx="97.9948" cy="157" fill="#ADD1B2" rx="11" ry="11" style="stroke:#A80036;stroke-width:1.0;"/><path d="M100.3386,152.6719 C99.4011,152.2344 98.8073,152.0938 97.9323,152.0938 C95.3073,152.0938 93.3073,154.1719 93.3073,156.8906 L93.3073,158.0156 C93.3073,160.5938 95.4167,162.4844 98.3073,162.4844 C99.5261,162.4844 100.6823,162.1875 101.4323,161.6406 C102.0104,161.2344 102.3386,160.7813 102.3386,160.3906 C102.3386,159.9375 101.9479,159.5469 101.4792,159.5469 C101.2604,159.5469 101.0573,159.625 100.8698,159.8125 C100.4167,160.2969 100.4167,160.2969 100.2292,160.3906 C99.8073,160.6563 99.1198,160.7813 98.3542,160.7813 C96.3073,160.7813 95.0104,159.6875 95.0104,157.9844 L95.0104,156.8906 C95.0104,155.1094 96.2604,153.7969 97.9948,153.7969 C98.5729,153.7969 99.1823,153.9531 99.6511,154.2031 C100.1354,154.4844 100.3073,154.7031 100.4011,155.1094 C100.4636,155.5156 100.4948,155.6406 100.6354,155.7656 C100.7761,155.9063 101.0104,156.0156 101.2292,156.0156 C101.4948,156.0156 101.7604,155.875 101.9323,155.6563 C102.0417,155.5 102.0729,155.3125 102.0729,154.8906 L102.0729,153.4688 C102.0729,153.0313 102.0573,152.9063 101.9636,152.75 C101.8073,152.4844 101.5261,152.3438 101.2292,152.3438 C100.9323,152.3438 100.7292,152.4375 100.5104,152.75 L100.3386,152.6719 Z " fill="#000000"/><text fill="#000000" font-family="sans-serif" font-size="12" lengthAdjust="spacing" textLength="56" x="118.0948" y="161.1543">Company</text><line style="stroke:#A80036;stroke-width:1.5;" x1="56.5448" x2="203.5448" y1="173" y2="173"/><rect fill="none" height="6" style="stroke:#C82930;stroke-width:1.0;" width="6" x="63.5448" y="181"/><text fill="#000000" font-family="sans-serif" font-size="11" lengthAdjust="spacing" textLength="103" x="75.5448" y="187.2104">bstShips: BSTShip</text><line style="stroke:#A80036;stroke-width:1.5;" x1="56.5448" x2="203.5448" y1="193.8047" y2="193.8047"/><ellipse cx="66.5448" cy="204.8047" fill="#84BE84" rx="3" ry="3" style="stroke:#038048;stroke-width:1.0;"/><text fill="#000000" font-family="sans-serif" font-size="11" lengthAdjust="spacing" textLength="62" x="75.5448" y="208.0151">Company()</text><ellipse cx="66.5448" cy="217.6094" fill="#84BE84" rx="3" ry="3" style="stroke:#038048;stroke-width:1.0;"/><text fill="#000000" font-family="sans-serif" font-size="11" lengthAdjust="spacing" textLength="76" x="75.5448" y="220.8198">getBstShips()</text><ellipse cx="66.5448" cy="230.4141" fill="#84BE84" rx="3" ry="3" style="stroke:#038048;stroke-width:1.0;"/><text fill="#000000" font-family="sans-serif" font-size="11" lengthAdjust="spacing" textLength="123" x="75.5448" y="233.6245">setBstShips(ShipBST)</text><!--MD5=[0dc7f2ddb409b58bcf52b12238c25399]
class Ship--><rect fill="#FEFECE" filter="url(#frofuxoghu7vp)" height="60.8047" id="Ship" style="stroke:#A80036;stroke-width:1.5;" width="121" x="239.5451" y="160"/><ellipse cx="282.8951" cy="176" fill="#ADD1B2" rx="11" ry="11" style="stroke:#A80036;stroke-width:1.0;"/><path d="M285.2389,171.6719 C284.3014,171.2344 283.7076,171.0938 282.8326,171.0938 C280.2076,171.0938 278.2076,173.1719 278.2076,175.8906 L278.2076,177.0156 C278.2076,179.5938 280.317,181.4844 283.2076,181.4844 C284.4264,181.4844 285.5826,181.1875 286.3326,180.6406 C286.9107,180.2344 287.2389,179.7813 287.2389,179.3906 C287.2389,178.9375 286.8482,178.5469 286.3795,178.5469 C286.1607,178.5469 285.9576,178.625 285.7701,178.8125 C285.317,179.2969 285.317,179.2969 285.1295,179.3906 C284.7076,179.6563 284.0201,179.7813 283.2545,179.7813 C281.2076,179.7813 279.9107,178.6875 279.9107,176.9844 L279.9107,175.8906 C279.9107,174.1094 281.1607,172.7969 282.8951,172.7969 C283.4732,172.7969 284.0826,172.9531 284.5514,173.2031 C285.0357,173.4844 285.2076,173.7031 285.3014,174.1094 C285.3639,174.5156 285.3951,174.6406 285.5357,174.7656 C285.6764,174.9063 285.9107,175.0156 286.1295,175.0156 C286.3951,175.0156 286.6607,174.875 286.8326,174.6563 C286.942,174.5 286.9732,174.3125 286.9732,173.8906 L286.9732,172.4688 C286.9732,172.0313 286.9576,171.9063 286.8639,171.75 C286.7076,171.4844 286.4264,171.3438 286.1295,171.3438 C285.8326,171.3438 285.6295,171.4375 285.4107,171.75 L285.2389,171.6719 Z " fill="#000000"/><text fill="#000000" font-family="sans-serif" font-size="12" lengthAdjust="spacing" textLength="26" x="303.1951" y="180.1543">Ship</text><line style="stroke:#A80036;stroke-width:1.5;" x1="240.5451" x2="359.5451" y1="192" y2="192"/><line style="stroke:#A80036;stroke-width:1.5;" x1="240.5451" x2="359.5451" y1="200" y2="200"/><ellipse cx="250.5451" cy="211" fill="#84BE84" rx="3" ry="3" style="stroke:#038048;stroke-width:1.0;"/><text fill="#000000" font-family="sans-serif" font-size="11" lengthAdjust="spacing" textLength="95" x="259.5451" y="214.2104">getVesselType()</text><!--MD5=[7ae728e7109ce15ce9192deec798997c]
class BSTDynData--><rect fill="#FEFECE" filter="url(#frofuxoghu7vp)" height="86.4141" id="BSTDynData" style="stroke:#A80036;stroke-width:1.5;" width="177" x="395.5451" y="147.5"/><ellipse cx="443.2951" cy="163.5" fill="#ADD1B2" rx="11" ry="11" style="stroke:#A80036;stroke-width:1.0;"/><path d="M445.6389,159.1719 C444.7014,158.7344 444.1076,158.5938 443.2326,158.5938 C440.6076,158.5938 438.6076,160.6719 438.6076,163.3906 L438.6076,164.5156 C438.6076,167.0938 440.717,168.9844 443.6076,168.9844 C444.8264,168.9844 445.9826,168.6875 446.7326,168.1406 C447.3107,167.7344 447.6389,167.2813 447.6389,166.8906 C447.6389,166.4375 447.2482,166.0469 446.7795,166.0469 C446.5607,166.0469 446.3576,166.125 446.1701,166.3125 C445.717,166.7969 445.717,166.7969 445.5295,166.8906 C445.1076,167.1563 444.4201,167.2813 443.6545,167.2813 C441.6076,167.2813 440.3107,166.1875 440.3107,164.4844 L440.3107,163.3906 C440.3107,161.6094 441.5607,160.2969 443.2951,160.2969 C443.8732,160.2969 444.4826,160.4531 444.9514,160.7031 C445.4357,160.9844 445.6076,161.2031 445.7014,161.6094 C445.7639,162.0156 445.7951,162.1406 445.9357,162.2656 C446.0764,162.4063 446.3107,162.5156 446.5295,162.5156 C446.7951,162.5156 447.0607,162.375 447.2326,162.1563 C447.342,162 447.3732,161.8125 447.3732,161.3906 L447.3732,159.9688 C447.3732,159.5313 447.3576,159.4063 447.2639,159.25 C447.1076,158.9844 446.8264,158.8438 446.5295,158.8438 C446.2326,158.8438 446.0295,158.9375 445.8107,159.25 L445.6389,159.1719 Z " fill="#000000"/><text fill="#000000" font-family="sans-serif" font-size="12" lengthAdjust="spacing" textLength="73" x="463.7951" y="167.6543">BSTDynData</text><line style="stroke:#A80036;stroke-width:1.5;" x1="396.5451" x2="571.5451" y1="179.5" y2="179.5"/><line style="stroke:#A80036;stroke-width:1.5;" x1="396.5451" x2="571.5451" y1="187.5" y2="187.5"/><ellipse cx="406.5451" cy="198.5" fill="#84BE84" rx="3" ry="3" style="stroke:#038048;stroke-width:1.0;"/><text fill="#000000" font-family="sans-serif" font-size="11" lengthAdjust="spacing" textLength="50" x="415.5451" y="201.7104">inOrder()</text><ellipse cx="406.5451" cy="211.3047" fill="#84BE84" rx="3" ry="3" style="stroke:#038048;stroke-width:1.0;"/><text fill="#000000" font-family="sans-serif" font-size="11" lengthAdjust="spacing" textLength="151" x="415.5451" y="214.5151">inorderCalculateDistance()</text><ellipse cx="406.5451" cy="224.1094" fill="#84BE84" rx="3" ry="3" style="stroke:#038048;stroke-width:1.0;"/><text fill="#000000" font-family="sans-serif" font-size="11" lengthAdjust="spacing" textLength="81" x="415.5451" y="227.3198">shipDynData()</text><!--MD5=[0a0f88286b74aafac530d7452eaadf03]
class InfoShip--><rect fill="#FEFECE" filter="url(#frofuxoghu7vp)" height="99.2188" id="InfoShip" style="stroke:#A80036;stroke-width:1.5;" width="275" x="607.5451" y="141"/><ellipse cx="716.7951" cy="157" fill="#ADD1B2" rx="11" ry="11" style="stroke:#A80036;stroke-width:1.0;"/><path d="M719.1388,152.6719 C718.2013,152.2344 717.6076,152.0938 716.7326,152.0938 C714.1076,152.0938 712.1076,154.1719 712.1076,156.8906 L712.1076,158.0156 C712.1076,160.5938 714.217,162.4844 717.1076,162.4844 C718.3263,162.4844 719.4826,162.1875 720.2326,161.6406 C720.8107,161.2344 721.1388,160.7813 721.1388,160.3906 C721.1388,159.9375 720.7482,159.5469 720.2795,159.5469 C720.0607,159.5469 719.8576,159.625 719.6701,159.8125 C719.217,160.2969 719.217,160.2969 719.0295,160.3906 C718.6076,160.6563 717.9201,160.7813 717.1545,160.7813 C715.1076,160.7813 713.8107,159.6875 713.8107,157.9844 L713.8107,156.8906 C713.8107,155.1094 715.0607,153.7969 716.7951,153.7969 C717.3732,153.7969 717.9826,153.9531 718.4513,154.2031 C718.9357,154.4844 719.1076,154.7031 719.2013,155.1094 C719.2638,155.5156 719.2951,155.6406 719.4357,155.7656 C719.5763,155.9063 719.8107,156.0156 720.0295,156.0156 C720.2951,156.0156 720.5607,155.875 720.7326,155.6563 C720.842,155.5 720.8732,155.3125 720.8732,154.8906 L720.8732,153.4688 C720.8732,153.0313 720.8576,152.9063 720.7638,152.75 C720.6076,152.4844 720.3263,152.3438 720.0295,152.3438 C719.7326,152.3438 719.5295,152.4375 719.3107,152.75 L719.1388,152.6719 Z " fill="#000000"/><text fill="#000000" font-family="sans-serif" font-size="12" lengthAdjust="spacing" textLength="48" x="737.2951" y="161.1543">InfoShip</text><line style="stroke:#A80036;stroke-width:1.5;" x1="608.5451" x2="881.5451" y1="173" y2="173"/><line style="stroke:#A80036;stroke-width:1.5;" x1="608.5451" x2="881.5451" y1="181" y2="181"/><ellipse cx="618.5451" cy="192" fill="#84BE84" rx="3" ry="3" style="stroke:#038048;stroke-width:1.0;"/><text fill="#000000" font-family="sans-serif" font-size="11" lengthAdjust="spacing" textLength="249" x="627.5451" y="195.2104">calculateAverageSpeed(ship, date1, date2)</text><ellipse cx="618.5451" cy="204.8047" fill="#84BE84" rx="3" ry="3" style="stroke:#038048;stroke-width:1.0;"/><text fill="#000000" font-family="sans-serif" font-size="11" lengthAdjust="spacing" textLength="114" x="627.5451" y="208.0151">getAverageSpeed()</text><ellipse cx="618.5451" cy="217.6094" fill="#84BE84" rx="3" ry="3" style="stroke:#038048;stroke-width:1.0;"/><text fill="#000000" font-family="sans-serif" font-size="11" lengthAdjust="spacing" textLength="131" x="627.5451" y="220.8198">getTravelledDistance()</text><ellipse cx="618.5451" cy="230.4141" fill="#84BE84" rx="3" ry="3" style="stroke:#038048;stroke-width:1.0;"/><text fill="#000000" font-family="sans-serif" font-size="11" lengthAdjust="spacing" textLength="56" x="627.5451" y="233.6245">getMmsi()</text><!--MD5=[0b1c2db5098bd7e2a0b4fc03be35b105]
link TopNshipsPerKmController to BSTShip--><path codeLine="1" d="M203.9041,53.311 C145.5241,63.888 75.2901,87.686 38.0448,141 C6,186.87 28.5163,254.403 47.4887,294.9567 " fill="none" id="TopNshipsPerKmController-to-BSTShip" style="stroke:#A80036;stroke-width:1.0;stroke-dasharray:7.0,7.0;"/><polygon fill="#A80036" points="49.7809,299.7652,49.5188,289.9198,47.6293,295.2518,42.2974,293.3623,49.7809,299.7652" style="stroke:#A80036;stroke-width:1.0;"/><!--MD5=[72a6f09efae4006b95403a6cdee92783]
link TopNshipsPerKmController to Company--><path codeLine="2" d="M257.5851,81.091 C237.5871,98.089 213.3571,118.685 191.4101,137.34 " fill="none" id="TopNshipsPerKmController-to-Company" style="stroke:#A80036;stroke-width:1.0;stroke-dasharray:7.0,7.0;"/><polygon fill="#A80036" points="187.3401,140.799,196.7876,138.0161,191.1492,137.56,191.6052,131.9216,187.3401,140.799" style="stroke:#A80036;stroke-width:1.0;"/><!--MD5=[51fdeb817c81bebf40d148a13108401d]
link TopNshipsPerKmController to Ship--><path codeLine="3" d="M300.0451,81.091 C300.0451,103.534 300.0451,132.248 300.0451,154.486 " fill="none" id="TopNshipsPerKmController-to-Ship" style="stroke:#A80036;stroke-width:1.0;stroke-dasharray:7.0,7.0;"/><polygon fill="#A80036" points="300.0451,159.703,304.0451,150.703,300.0451,154.703,296.0451,150.703,300.0451,159.703" style="stroke:#A80036;stroke-width:1.0;"/><!--MD5=[68992dd742b5d3138706995ea2523dab]
link TopNshipsPerKmController to BSTDynData--><path codeLine="4" d="M346.0011,81.091 C370.3511,100.214 400.5001,123.89 426.4041,144.234 " fill="none" id="TopNshipsPerKmController-to-BSTDynData" style="stroke:#A80036;stroke-width:1.0;stroke-dasharray:7.0,7.0;"/><polygon fill="#A80036" points="430.5241,147.469,425.9164,138.7644,426.5918,144.3808,420.9754,145.0562,430.5241,147.469" style="stroke:#A80036;stroke-width:1.0;"/><!--MD5=[0c5338f396154d2b1ee9b430116712b9]
link TopNshipsPerKmController to InfoShip--><path codeLine="5" d="M396.0551,76.176 C456.3131,95.743 535.1051,121.329 602.5721,143.236 " fill="none" id="TopNshipsPerKmController-to-InfoShip" style="stroke:#A80036;stroke-width:1.0;stroke-dasharray:7.0,7.0;"/><polygon fill="#A80036" points="607.4101,144.807,600.0855,138.2229,602.6545,143.2628,597.6147,145.8318,607.4101,144.807" style="stroke:#A80036;stroke-width:1.0;"/><!--MD5=[662567d9e10e593fef100fb7b5669386]
link Company to BSTShip--><path codeLine="15" d="M107.4808,240.154 C99.0596,258.312 89.6808,278.5349 81.9788,295.1424 " fill="none" id="Company-to-BSTShip" style="stroke:#A80036;stroke-width:1.0;stroke-dasharray:7.0,7.0;"/><polygon fill="#A80036" points="79.8531,299.726,87.2685,293.2444,81.9568,295.1901,80.0111,289.8784,79.8531,299.726" style="stroke:#A80036;stroke-width:1.0;"/><!--MD5=[befa6549b747d5a4b391c651f9d72424]
@startuml
TopNshipsPerKmController ..>BSTShip
TopNshipsPerKmController ..>Company
TopNshipsPerKmController ..>Ship
TopNshipsPerKmController ..>BSTDynData
TopNshipsPerKmController ..>InfoShip

TopNshipsPerKmController : +printNshipsMostKm(path)
TopNshipsPerKmController : +sortByValue(hm)

Company : -bstShips: BSTShip
Company : +Company()
Company : +getBstShips()
Company : +setBstShips(ShipBST)

Company ..>BSTShip

BSTDynData : +inOrder()
BSTDynData : +inorderCalculateDistance()
BSTDynData : +shipDynData()

BSTShip : +inOrder()

InfoShip : +calculateAverageSpeed(ship, date1, date2)
InfoShip : +getAverageSpeed()
InfoShip : +getTravelledDistance()
InfoShip : +getMmsi()

Ship : +getVesselType()
@enduml

PlantUML version 1.2021.14(Fri Nov 12 16:46:50 UTC 2021)
(GPL source distribution)
Java Runtime: Java(TM) SE Runtime Environment
JVM: Java HotSpot(TM) 64-Bit Server VM
Default Encoding: UTF-8
Language: en
Country: US
--></g></svg>