<?xml version="1.0" encoding="UTF-8" standalone="no"?><svg xmlns="http://www.w3.org/2000/svg" xmlns:xlink="http://www.w3.org/1999/xlink" contentScriptType="application/ecmascript" contentStyleType="text/css" height="559px" preserveAspectRatio="none" style="width:473px;height:559px;background:#FFFFFF;" version="1.1" viewBox="0 0 473 559" width="473px" zoomAndPan="magnify"><defs><filter height="300%" id="f16vels5smkwtr" width="300%" x="-1" y="-1"><feGaussianBlur result="blurOut" stdDeviation="2.0"/><feColorMatrix in="blurOut" result="blurOut2" type="matrix" values="0 0 0 0 0 0 0 0 0 0 0 0 0 0 0 0 0 0 .4 0"/><feOffset dx="4.0" dy="4.0" in="blurOut2" result="blurOut3"/><feBlend in="SourceGraphic" in2="blurOut3" mode="normal"/></filter></defs><g><rect fill="#FFFFFF" filter="url(#f16vels5smkwtr)" height="366.875" style="stroke:#A80036;stroke-width:1.0;" width="10" x="74" y="98.2969"/><rect fill="#FFFFFF" filter="url(#f16vels5smkwtr)" height="29.1328" style="stroke:#A80036;stroke-width:1.0;" width="10" x="406" y="119.4297"/><rect fill="#FFFFFF" filter="url(#f16vels5smkwtr)" height="29.1328" style="stroke:#A80036;stroke-width:1.0;" width="10" x="406" y="177.6953"/><rect fill="#FFFFFF" filter="url(#f16vels5smkwtr)" height="29.1328" style="stroke:#A80036;stroke-width:1.0;" width="10" x="406" y="274.8984"/><rect fill="#FFFFFF" filter="url(#f16vels5smkwtr)" height="29.1328" style="stroke:#A80036;stroke-width:1.0;" width="10" x="406" y="347.9688"/><rect fill="#FFFFFF" filter="url(#f16vels5smkwtr)" height="29.1328" style="stroke:#A80036;stroke-width:1.0;" width="10" x="406" y="421.0391"/><rect fill="#FFFFFF" filter="url(#f16vels5smkwtr)" height="236.3438" style="stroke:#000000;stroke-width:2.0;" width="449.5" x="10" y="221.8281"/><rect fill="#FFFFFF" height="73.0703" style="stroke:none;stroke-width:1.0;" width="449.5" x="10" y="238.9609"/><rect fill="#FFFFFF" height="73.0703" style="stroke:none;stroke-width:1.0;" width="449.5" x="10" y="312.0313"/><rect fill="#FFFFFF" height="73.0703" style="stroke:none;stroke-width:1.0;" width="449.5" x="10" y="385.1016"/><line style="stroke:#A80036;stroke-width:1.0;stroke-dasharray:5.0,5.0;" x1="79" x2="79" y1="88.2969" y2="475.1719"/><line style="stroke:#A80036;stroke-width:1.0;stroke-dasharray:5.0,5.0;" x1="410.5" x2="410.5" y1="88.2969" y2="475.1719"/><text fill="#000000" font-family="sans-serif" font-size="14" lengthAdjust="spacing" textLength="112" x="20" y="84.9951">Traffic Manager</text><ellipse cx="79" cy="15" fill="#FEFECE" filter="url(#f16vels5smkwtr)" rx="8" ry="8" style="stroke:#A80036;stroke-width:2.0;"/><path d="M79,23 L79,50 M66,31 L92,31 M79,50 L66,65 M79,50 L92,65 " fill="none" filter="url(#f16vels5smkwtr)" style="stroke:#A80036;stroke-width:2.0;"/><text fill="#000000" font-family="sans-serif" font-size="14" lengthAdjust="spacing" textLength="112" x="20" y="487.167">Traffic Manager</text><ellipse cx="79" cy="500.4688" fill="#FEFECE" filter="url(#f16vels5smkwtr)" rx="8" ry="8" style="stroke:#A80036;stroke-width:2.0;"/><path d="M79,508.4688 L79,535.4688 M66,516.4688 L92,516.4688 M79,535.4688 L66,550.4688 M79,535.4688 L92,550.4688 " fill="none" filter="url(#f16vels5smkwtr)" style="stroke:#A80036;stroke-width:2.0;"/><rect fill="#FEFECE" filter="url(#f16vels5smkwtr)" height="30.2969" style="stroke:#A80036;stroke-width:1.5;" width="73" x="372.5" y="53"/><text fill="#000000" font-family="sans-serif" font-size="14" lengthAdjust="spacing" textLength="59" x="379.5" y="72.9951">:System</text><rect fill="#FEFECE" filter="url(#f16vels5smkwtr)" height="30.2969" style="stroke:#A80036;stroke-width:1.5;" width="73" x="372.5" y="474.1719"/><text fill="#000000" font-family="sans-serif" font-size="14" lengthAdjust="spacing" textLength="59" x="379.5" y="494.167">:System</text><rect fill="#FFFFFF" filter="url(#f16vels5smkwtr)" height="366.875" style="stroke:#A80036;stroke-width:1.0;" width="10" x="74" y="98.2969"/><rect fill="#FFFFFF" filter="url(#f16vels5smkwtr)" height="29.1328" style="stroke:#A80036;stroke-width:1.0;" width="10" x="406" y="119.4297"/><rect fill="#FFFFFF" filter="url(#f16vels5smkwtr)" height="29.1328" style="stroke:#A80036;stroke-width:1.0;" width="10" x="406" y="177.6953"/><rect fill="#FFFFFF" filter="url(#f16vels5smkwtr)" height="29.1328" style="stroke:#A80036;stroke-width:1.0;" width="10" x="406" y="274.8984"/><rect fill="#FFFFFF" filter="url(#f16vels5smkwtr)" height="29.1328" style="stroke:#A80036;stroke-width:1.0;" width="10" x="406" y="347.9688"/><rect fill="#FFFFFF" filter="url(#f16vels5smkwtr)" height="29.1328" style="stroke:#A80036;stroke-width:1.0;" width="10" x="406" y="421.0391"/><polygon fill="#A80036" points="394,115.4297,404,119.4297,394,123.4297,398,119.4297" style="stroke:#A80036;stroke-width:1.0;"/><line style="stroke:#A80036;stroke-width:1.0;" x1="84" x2="400" y1="119.4297" y2="119.4297"/><text fill="#000000" font-family="sans-serif" font-size="13" font-weight="bold" lengthAdjust="spacing" textLength="9" x="91" y="114.3638">1</text><text fill="#000000" font-family="sans-serif" font-size="13" lengthAdjust="spacing" textLength="149" x="104" y="114.3638">Search details of a ship</text><polygon fill="#A80036" points="95,144.5625,85,148.5625,95,152.5625,91,148.5625" style="stroke:#A80036;stroke-width:1.0;"/><line style="stroke:#A80036;stroke-width:1.0;stroke-dasharray:2.0,2.0;" x1="89" x2="410" y1="148.5625" y2="148.5625"/><text fill="#000000" font-family="sans-serif" font-size="13" font-weight="bold" lengthAdjust="spacing" textLength="9" x="101" y="143.4966">2</text><text fill="#000000" font-family="sans-serif" font-size="13" lengthAdjust="spacing" textLength="285" x="114" y="143.4966">request to choose filter (MMSI, ISO, Call Sign)</text><polygon fill="#A80036" points="394,173.6953,404,177.6953,394,181.6953,398,177.6953" style="stroke:#A80036;stroke-width:1.0;"/><line style="stroke:#A80036;stroke-width:1.0;" x1="84" x2="400" y1="177.6953" y2="177.6953"/><text fill="#000000" font-family="sans-serif" font-size="13" font-weight="bold" lengthAdjust="spacing" textLength="8" x="91" y="172.6294">3</text><text fill="#000000" font-family="sans-serif" font-size="13" lengthAdjust="spacing" textLength="79" x="103" y="172.6294">choose filter</text><polygon fill="#A80036" points="95,202.8281,85,206.8281,95,210.8281,91,206.8281" style="stroke:#A80036;stroke-width:1.0;"/><line style="stroke:#A80036;stroke-width:1.0;stroke-dasharray:2.0,2.0;" x1="89" x2="410" y1="206.8281" y2="206.8281"/><text fill="#000000" font-family="sans-serif" font-size="13" font-weight="bold" lengthAdjust="spacing" textLength="9" x="101" y="201.7622">4</text><text fill="#000000" font-family="sans-serif" font-size="13" lengthAdjust="spacing" textLength="82" x="114" y="201.7622">request data</text><path d="M10,221.8281 L76,221.8281 L76,228.8281 L66,238.8281 L10,238.8281 L10,221.8281 " fill="#EEEEEE" style="stroke:#000000;stroke-width:1.0;"/><rect fill="none" height="236.3438" style="stroke:#000000;stroke-width:2.0;" width="449.5" x="10" y="221.8281"/><text fill="#000000" font-family="sans-serif" font-size="13" font-weight="bold" lengthAdjust="spacing" textLength="21" x="25" y="234.895">alt</text><line style="stroke:#000000;stroke-width:1.0;stroke-dasharray:2.0,2.0;" x1="10" x2="459.5" y1="239.9609" y2="239.9609"/><text fill="#000000" font-family="sans-serif" font-size="11" font-weight="bold" lengthAdjust="spacing" textLength="80" x="15" y="250.1714">[MMSI code]</text><polygon fill="#A80036" points="394,270.8984,404,274.8984,394,278.8984,398,274.8984" style="stroke:#A80036;stroke-width:1.0;"/><line style="stroke:#A80036;stroke-width:1.0;" x1="84" x2="400" y1="274.8984" y2="274.8984"/><text fill="#000000" font-family="sans-serif" font-size="13" font-weight="bold" lengthAdjust="spacing" textLength="9" x="91" y="269.8325">5</text><text fill="#000000" font-family="sans-serif" font-size="13" lengthAdjust="spacing" textLength="138" x="104" y="269.8325">types requested data</text><polygon fill="#A80036" points="95,300.0313,85,304.0313,95,308.0313,91,304.0313" style="stroke:#A80036;stroke-width:1.0;"/><line style="stroke:#A80036;stroke-width:1.0;stroke-dasharray:2.0,2.0;" x1="89" x2="410" y1="304.0313" y2="304.0313"/><text fill="#000000" font-family="sans-serif" font-size="13" font-weight="bold" lengthAdjust="spacing" textLength="9" x="101" y="298.9653">6</text><text fill="#000000" font-family="sans-serif" font-size="13" lengthAdjust="spacing" textLength="161" x="114" y="298.9653">shows all requested data</text><line style="stroke:#000000;stroke-width:1.0;stroke-dasharray:2.0,2.0;" x1="10" x2="459.5" y1="313.0313" y2="313.0313"/><text fill="#000000" font-family="sans-serif" font-size="11" font-weight="bold" lengthAdjust="spacing" textLength="71" x="15" y="323.2417">[IMO code]</text><polygon fill="#A80036" points="394,343.9688,404,347.9688,394,351.9688,398,347.9688" style="stroke:#A80036;stroke-width:1.0;"/><line style="stroke:#A80036;stroke-width:1.0;" x1="84" x2="400" y1="347.9688" y2="347.9688"/><text fill="#000000" font-family="sans-serif" font-size="13" font-weight="bold" lengthAdjust="spacing" textLength="9" x="91" y="342.9028">7</text><text fill="#000000" font-family="sans-serif" font-size="13" lengthAdjust="spacing" textLength="138" x="104" y="342.9028">types requested data</text><polygon fill="#A80036" points="95,373.1016,85,377.1016,95,381.1016,91,377.1016" style="stroke:#A80036;stroke-width:1.0;"/><line style="stroke:#A80036;stroke-width:1.0;stroke-dasharray:2.0,2.0;" x1="89" x2="410" y1="377.1016" y2="377.1016"/><text fill="#000000" font-family="sans-serif" font-size="13" font-weight="bold" lengthAdjust="spacing" textLength="9" x="101" y="372.0356">8</text><text fill="#000000" font-family="sans-serif" font-size="13" lengthAdjust="spacing" textLength="161" x="114" y="372.0356">shows all requested data</text><line style="stroke:#000000;stroke-width:1.0;stroke-dasharray:2.0,2.0;" x1="10" x2="459.5" y1="386.1016" y2="386.1016"/><text fill="#000000" font-family="sans-serif" font-size="11" font-weight="bold" lengthAdjust="spacing" textLength="103" x="15" y="396.312">[Call Sign code]</text><polygon fill="#A80036" points="394,417.0391,404,421.0391,394,425.0391,398,421.0391" style="stroke:#A80036;stroke-width:1.0;"/><line style="stroke:#A80036;stroke-width:1.0;" x1="84" x2="400" y1="421.0391" y2="421.0391"/><text fill="#000000" font-family="sans-serif" font-size="13" font-weight="bold" lengthAdjust="spacing" textLength="9" x="91" y="415.9731">9</text><text fill="#000000" font-family="sans-serif" font-size="13" lengthAdjust="spacing" textLength="138" x="104" y="415.9731">types requested data</text><polygon fill="#A80036" points="95,446.1719,85,450.1719,95,454.1719,91,450.1719" style="stroke:#A80036;stroke-width:1.0;"/><line style="stroke:#A80036;stroke-width:1.0;stroke-dasharray:2.0,2.0;" x1="89" x2="410" y1="450.1719" y2="450.1719"/><text fill="#000000" font-family="sans-serif" font-size="13" font-weight="bold" lengthAdjust="spacing" textLength="19" x="101" y="445.106">10</text><text fill="#000000" font-family="sans-serif" font-size="13" lengthAdjust="spacing" textLength="161" x="124" y="445.106">shows all requested data</text><!--MD5=[d419d14e73c729fcedc6006f822dd9c0]
@startuml
actor "Traffic Manager" as Adm
participant ":System" as System

autonumber
activate Adm
Adm -> System: Search details of a ship
activate System
System - -> Adm: request to choose filter (MMSI, ISO, Call Sign)
deactivate System
Adm -> System: choose filter
activate System
System - -> Adm: request data
deactivate System
alt

else MMSI code
Adm -> System: types requested data
activate System
System - -> Adm: shows all requested data
deactivate System

else IMO code
Adm -> System: types requested data
activate System
System - -> Adm: shows all requested data
deactivate System

else Call Sign code
Adm -> System: types requested data
activate System
System - -> Adm: shows all requested data
deactivate System

end

deactivate System
deactivate Adm
@enduml

PlantUML version 1.2021.14(Fri Nov 12 16:46:50 UTC 2021)
(GPL source distribution)
Java Runtime: Java(TM) SE Runtime Environment
JVM: Java HotSpot(TM) 64-Bit Server VM
Default Encoding: UTF-8
Language: en
Country: US
--></g></svg>