<?xml version="1.0" encoding="UTF-8" standalone="no"?><svg xmlns="http://www.w3.org/2000/svg" xmlns:xlink="http://www.w3.org/1999/xlink" contentScriptType="application/ecmascript" contentStyleType="text/css" height="412px" preserveAspectRatio="none" style="width:380px;height:412px;background:#FFFFFF;" version="1.1" viewBox="0 0 380 412" width="380px" zoomAndPan="magnify"><defs><filter height="300%" id="f1g8akfnka0qg9" width="300%" x="-1" y="-1"><feGaussianBlur result="blurOut" stdDeviation="2.0"/><feColorMatrix in="blurOut" result="blurOut2" type="matrix" values="0 0 0 0 0 0 0 0 0 0 0 0 0 0 0 0 0 0 .4 0"/><feOffset dx="4.0" dy="4.0" in="blurOut2" result="blurOut3"/><feBlend in="SourceGraphic" in2="blurOut3" mode="normal"/></filter></defs><g><!--MD5=[e6f2cb470f06694f6a02b571e2ffcbb5]
class SearchShipController--><rect fill="#FEFECE" filter="url(#f1g8akfnka0qg9)" height="112.0234" id="SearchShipController" style="stroke:#A80036;stroke-width:1.5;" width="202" x="15.1317" y="7"/><ellipse cx="49.4817" cy="23" fill="#ADD1B2" rx="11" ry="11" style="stroke:#A80036;stroke-width:1.0;"/><path d="M51.8254,18.6719 C50.8879,18.2344 50.2942,18.0938 49.4192,18.0938 C46.7942,18.0938 44.7942,20.1719 44.7942,22.8906 L44.7942,24.0156 C44.7942,26.5938 46.9035,28.4844 49.7942,28.4844 C51.0129,28.4844 52.1692,28.1875 52.9192,27.6406 C53.4973,27.2344 53.8254,26.7813 53.8254,26.3906 C53.8254,25.9375 53.4348,25.5469 52.966,25.5469 C52.7473,25.5469 52.5442,25.625 52.3567,25.8125 C51.9035,26.2969 51.9035,26.2969 51.716,26.3906 C51.2942,26.6563 50.6067,26.7813 49.841,26.7813 C47.7942,26.7813 46.4973,25.6875 46.4973,23.9844 L46.4973,22.8906 C46.4973,21.1094 47.7473,19.7969 49.4817,19.7969 C50.0598,19.7969 50.6692,19.9531 51.1379,20.2031 C51.6223,20.4844 51.7942,20.7031 51.8879,21.1094 C51.9504,21.5156 51.9817,21.6406 52.1223,21.7656 C52.2629,21.9063 52.4973,22.0156 52.716,22.0156 C52.9817,22.0156 53.2473,21.875 53.4192,21.6563 C53.5285,21.5 53.5598,21.3125 53.5598,20.8906 L53.5598,19.4688 C53.5598,19.0313 53.5442,18.9063 53.4504,18.75 C53.2942,18.4844 53.0129,18.3438 52.716,18.3438 C52.4192,18.3438 52.216,18.4375 51.9973,18.75 L51.8254,18.6719 Z " fill="#000000"/><text fill="#000000" font-family="sans-serif" font-size="12" lengthAdjust="spacing" textLength="127" x="67.7817" y="27.1543">SearchShipController</text><line style="stroke:#A80036;stroke-width:1.5;" x1="16.1317" x2="216.1317" y1="39" y2="39"/><line style="stroke:#A80036;stroke-width:1.5;" x1="16.1317" x2="216.1317" y1="47" y2="47"/><ellipse cx="26.1317" cy="58" fill="#84BE84" rx="3" ry="3" style="stroke:#038048;stroke-width:1.0;"/><text fill="#000000" font-family="sans-serif" font-size="11" lengthAdjust="spacing" textLength="148" x="35.1317" y="61.2104">ShipSearchByMmsi(mmsi)</text><ellipse cx="26.1317" cy="70.8047" fill="#84BE84" rx="3" ry="3" style="stroke:#038048;stroke-width:1.0;"/><text fill="#000000" font-family="sans-serif" font-size="11" lengthAdjust="spacing" textLength="130" x="35.1317" y="74.0151">ShipSearchByImo(imo)</text><ellipse cx="26.1317" cy="83.6094" fill="#84BE84" rx="3" ry="3" style="stroke:#038048;stroke-width:1.0;"/><text fill="#000000" font-family="sans-serif" font-size="11" lengthAdjust="spacing" textLength="176" x="35.1317" y="86.8198">ShipSearchByCallSign(callsign)</text><ellipse cx="26.1317" cy="96.4141" fill="#84BE84" rx="3" ry="3" style="stroke:#038048;stroke-width:1.0;"/><text fill="#000000" font-family="sans-serif" font-size="11" lengthAdjust="spacing" textLength="113" x="35.1317" y="99.6245">SearchDetails(path)</text><ellipse cx="26.1317" cy="109.2188" fill="#84BE84" rx="3" ry="3" style="stroke:#038048;stroke-width:1.0;"/><text fill="#000000" font-family="sans-serif" font-size="11" lengthAdjust="spacing" textLength="123" x="35.1317" y="112.4292">IdentifyTheShip(path)</text><!--MD5=[8a61326b4f5c9e6ed3a15cb6e1c143c5]
class BSTShip--><rect fill="#FEFECE" filter="url(#f1g8akfnka0qg9)" height="60.8047" id="BSTShip" style="stroke:#A80036;stroke-width:1.5;" width="81" x="11.6317" y="338"/><ellipse cx="26.6317" cy="354" fill="#ADD1B2" rx="11" ry="11" style="stroke:#A80036;stroke-width:1.0;"/><path d="M28.9754,349.6719 C28.0379,349.2344 27.4442,349.0938 26.5692,349.0938 C23.9442,349.0938 21.9442,351.1719 21.9442,353.8906 L21.9442,355.0156 C21.9442,357.5938 24.0535,359.4844 26.9442,359.4844 C28.1629,359.4844 29.3192,359.1875 30.0692,358.6406 C30.6473,358.2344 30.9754,357.7813 30.9754,357.3906 C30.9754,356.9375 30.5848,356.5469 30.116,356.5469 C29.8973,356.5469 29.6942,356.625 29.5067,356.8125 C29.0535,357.2969 29.0535,357.2969 28.866,357.3906 C28.4442,357.6563 27.7567,357.7813 26.991,357.7813 C24.9442,357.7813 23.6473,356.6875 23.6473,354.9844 L23.6473,353.8906 C23.6473,352.1094 24.8973,350.7969 26.6317,350.7969 C27.2098,350.7969 27.8192,350.9531 28.2879,351.2031 C28.7723,351.4844 28.9442,351.7031 29.0379,352.1094 C29.1004,352.5156 29.1317,352.6406 29.2723,352.7656 C29.4129,352.9063 29.6473,353.0156 29.866,353.0156 C30.1317,353.0156 30.3973,352.875 30.5692,352.6563 C30.6785,352.5 30.7098,352.3125 30.7098,351.8906 L30.7098,350.4688 C30.7098,350.0313 30.6942,349.9063 30.6004,349.75 C30.4442,349.4844 30.1629,349.3438 29.866,349.3438 C29.5692,349.3438 29.366,349.4375 29.1473,349.75 L28.9754,349.6719 Z " fill="#000000"/><text fill="#000000" font-family="sans-serif" font-size="12" lengthAdjust="spacing" textLength="49" x="40.6317" y="358.1543">BSTShip</text><line style="stroke:#A80036;stroke-width:1.5;" x1="12.6317" x2="91.6317" y1="370" y2="370"/><line style="stroke:#A80036;stroke-width:1.5;" x1="12.6317" x2="91.6317" y1="378" y2="378"/><ellipse cx="22.6317" cy="389" fill="#84BE84" rx="3" ry="3" style="stroke:#038048;stroke-width:1.0;"/><text fill="#000000" font-family="sans-serif" font-size="11" lengthAdjust="spacing" textLength="50" x="31.6317" y="392.2104">inOrder()</text><!--MD5=[02e4b9b7573f1156f41e60aa5b4e25a4]
class Company--><rect fill="#FEFECE" filter="url(#f1g8akfnka0qg9)" height="99.2188" id="Company" style="stroke:#A80036;stroke-width:1.5;" width="149" x="41.6317" y="179"/><ellipse cx="84.0817" cy="195" fill="#ADD1B2" rx="11" ry="11" style="stroke:#A80036;stroke-width:1.0;"/><path d="M86.4254,190.6719 C85.4879,190.2344 84.8942,190.0938 84.0192,190.0938 C81.3942,190.0938 79.3942,192.1719 79.3942,194.8906 L79.3942,196.0156 C79.3942,198.5938 81.5035,200.4844 84.3942,200.4844 C85.6129,200.4844 86.7692,200.1875 87.5192,199.6406 C88.0973,199.2344 88.4254,198.7813 88.4254,198.3906 C88.4254,197.9375 88.0348,197.5469 87.566,197.5469 C87.3473,197.5469 87.1442,197.625 86.9567,197.8125 C86.5035,198.2969 86.5035,198.2969 86.316,198.3906 C85.8942,198.6563 85.2067,198.7813 84.441,198.7813 C82.3942,198.7813 81.0973,197.6875 81.0973,195.9844 L81.0973,194.8906 C81.0973,193.1094 82.3473,191.7969 84.0817,191.7969 C84.6598,191.7969 85.2692,191.9531 85.7379,192.2031 C86.2223,192.4844 86.3942,192.7031 86.4879,193.1094 C86.5504,193.5156 86.5817,193.6406 86.7223,193.7656 C86.8629,193.9063 87.0973,194.0156 87.316,194.0156 C87.5817,194.0156 87.8473,193.875 88.0192,193.6563 C88.1285,193.5 88.1598,193.3125 88.1598,192.8906 L88.1598,191.4688 C88.1598,191.0313 88.1442,190.9063 88.0504,190.75 C87.8942,190.4844 87.6129,190.3438 87.316,190.3438 C87.0192,190.3438 86.816,190.4375 86.5973,190.75 L86.4254,190.6719 Z " fill="#000000"/><text fill="#000000" font-family="sans-serif" font-size="12" lengthAdjust="spacing" textLength="56" x="104.1817" y="199.1543">Company</text><line style="stroke:#A80036;stroke-width:1.5;" x1="42.6317" x2="189.6317" y1="211" y2="211"/><rect fill="none" height="6" style="stroke:#C82930;stroke-width:1.0;" width="6" x="49.6317" y="219"/><text fill="#000000" font-family="sans-serif" font-size="11" lengthAdjust="spacing" textLength="103" x="61.6317" y="225.2104">bstShips: BSTShip</text><line style="stroke:#A80036;stroke-width:1.5;" x1="42.6317" x2="189.6317" y1="231.8047" y2="231.8047"/><ellipse cx="52.6317" cy="242.8047" fill="#84BE84" rx="3" ry="3" style="stroke:#038048;stroke-width:1.0;"/><text fill="#000000" font-family="sans-serif" font-size="11" lengthAdjust="spacing" textLength="62" x="61.6317" y="246.0151">Company()</text><ellipse cx="52.6317" cy="255.6094" fill="#84BE84" rx="3" ry="3" style="stroke:#038048;stroke-width:1.0;"/><text fill="#000000" font-family="sans-serif" font-size="11" lengthAdjust="spacing" textLength="76" x="61.6317" y="258.8198">getBstShips()</text><ellipse cx="52.6317" cy="268.4141" fill="#84BE84" rx="3" ry="3" style="stroke:#038048;stroke-width:1.0;"/><text fill="#000000" font-family="sans-serif" font-size="11" lengthAdjust="spacing" textLength="123" x="61.6317" y="271.6245">setBstShips(ShipBST)</text><!--MD5=[0dc7f2ddb409b58bcf52b12238c25399]
class Ship--><rect fill="#FEFECE" filter="url(#f1g8akfnka0qg9)" height="86.4141" id="Ship" style="stroke:#A80036;stroke-width:1.5;" width="141" x="225.6317" y="185.5"/><ellipse cx="278.8817" cy="201.5" fill="#ADD1B2" rx="11" ry="11" style="stroke:#A80036;stroke-width:1.0;"/><path d="M281.2254,197.1719 C280.2879,196.7344 279.6942,196.5938 278.8192,196.5938 C276.1942,196.5938 274.1942,198.6719 274.1942,201.3906 L274.1942,202.5156 C274.1942,205.0938 276.3035,206.9844 279.1942,206.9844 C280.4129,206.9844 281.5692,206.6875 282.3192,206.1406 C282.8973,205.7344 283.2254,205.2813 283.2254,204.8906 C283.2254,204.4375 282.8348,204.0469 282.366,204.0469 C282.1473,204.0469 281.9442,204.125 281.7567,204.3125 C281.3035,204.7969 281.3035,204.7969 281.116,204.8906 C280.6942,205.1563 280.0067,205.2813 279.241,205.2813 C277.1942,205.2813 275.8973,204.1875 275.8973,202.4844 L275.8973,201.3906 C275.8973,199.6094 277.1473,198.2969 278.8817,198.2969 C279.4598,198.2969 280.0692,198.4531 280.5379,198.7031 C281.0223,198.9844 281.1942,199.2031 281.2879,199.6094 C281.3504,200.0156 281.3817,200.1406 281.5223,200.2656 C281.6629,200.4063 281.8973,200.5156 282.116,200.5156 C282.3817,200.5156 282.6473,200.375 282.8192,200.1563 C282.9285,200 282.9598,199.8125 282.9598,199.3906 L282.9598,197.9688 C282.9598,197.5313 282.9442,197.4063 282.8504,197.25 C282.6942,196.9844 282.4129,196.8438 282.116,196.8438 C281.8192,196.8438 281.616,196.9375 281.3973,197.25 L281.2254,197.1719 Z " fill="#000000"/><text fill="#000000" font-family="sans-serif" font-size="12" lengthAdjust="spacing" textLength="26" x="299.3817" y="205.6543">Ship</text><line style="stroke:#A80036;stroke-width:1.5;" x1="226.6317" x2="365.6317" y1="217.5" y2="217.5"/><line style="stroke:#A80036;stroke-width:1.5;" x1="226.6317" x2="365.6317" y1="225.5" y2="225.5"/><ellipse cx="236.6317" cy="236.5" fill="#84BE84" rx="3" ry="3" style="stroke:#038048;stroke-width:1.0;"/><text fill="#000000" font-family="sans-serif" font-size="11" lengthAdjust="spacing" textLength="87" x="245.6317" y="239.7104">getMmsi(mmsi)</text><ellipse cx="236.6317" cy="249.3047" fill="#84BE84" rx="3" ry="3" style="stroke:#038048;stroke-width:1.0;"/><text fill="#000000" font-family="sans-serif" font-size="11" lengthAdjust="spacing" textLength="69" x="245.6317" y="252.5151">getImo(imo)</text><ellipse cx="236.6317" cy="262.1094" fill="#84BE84" rx="3" ry="3" style="stroke:#038048;stroke-width:1.0;"/><text fill="#000000" font-family="sans-serif" font-size="11" lengthAdjust="spacing" textLength="115" x="245.6317" y="265.3198">getCallSign(callsign)</text><!--MD5=[a97112f901c3f11b2ba8f0a2cdf1d546]
link SearchShipController to BSTShip--><path codeLine="1" d="M59.616,119.257 C45.2294,136.856 31.7063,157.407 24.1317,179 C6,230.689 23.0332,294.364 37.33,332.9014 " fill="none" id="SearchShipController-to-BSTShip" style="stroke:#A80036;stroke-width:1.0;stroke-dasharray:7.0,7.0;"/><polygon fill="#A80036" points="39.2357,337.9368,39.791,328.1036,37.4659,333.2605,32.309,330.9354,39.2357,337.9368" style="stroke:#A80036;stroke-width:1.0;"/><!--MD5=[4fb66a5e4dcc2b5f1ba2b9f73944b5d1]
link SearchShipController to Company--><path codeLine="2" d="M116.1317,119.354 C116.1317,136.817 116.1317,156.08 116.1317,173.451 " fill="none" id="SearchShipController-to-Company" style="stroke:#A80036;stroke-width:1.0;stroke-dasharray:7.0,7.0;"/><polygon fill="#A80036" points="116.1317,178.777,120.1317,169.777,116.1317,173.777,112.1317,169.777,116.1317,178.777" style="stroke:#A80036;stroke-width:1.0;"/><!--MD5=[77cbd7877aa76d499fb278624c7fae30]
link SearchShipController to Ship--><path codeLine="3" d="M176.8207,119.126 C199.2077,139.461 224.3107,162.263 245.6947,181.686 " fill="none" id="SearchShipController-to-Ship" style="stroke:#A80036;stroke-width:1.0;stroke-dasharray:7.0,7.0;"/><polygon fill="#A80036" points="249.6427,185.272,245.6692,176.2602,245.9412,181.9106,240.2909,182.1826,249.6427,185.272" style="stroke:#A80036;stroke-width:1.0;"/><!--MD5=[662567d9e10e593fef100fb7b5669386]
link Company to BSTShip--><path codeLine="17" d="M93.5677,278.154 C85.1464,296.312 75.7677,316.5349 68.0657,333.1424 " fill="none" id="Company-to-BSTShip" style="stroke:#A80036;stroke-width:1.0;stroke-dasharray:7.0,7.0;"/><polygon fill="#A80036" points="65.94,337.726,73.3554,331.2444,68.0437,333.1901,66.098,327.8784,65.94,337.726" style="stroke:#A80036;stroke-width:1.0;"/><!--MD5=[ff58477385d27d0e9d705c78aa33b8e7]
@startuml
SearchShipController ..>BSTShip
SearchShipController ..>Company
SearchShipController ..>Ship


SearchShipController : +ShipSearchByMmsi(mmsi)
SearchShipController : +ShipSearchByImo(imo)
SearchShipController : +ShipSearchByCallSign(callsign)
SearchShipController : +SearchDetails(path)
SearchShipController : +IdentifyTheShip(path)

Company : -bstShips: BSTShip
Company : +Company()
Company : +getBstShips()
Company : +setBstShips(ShipBST)

Company ..>BSTShip



BSTShip : +inOrder()

Ship : +getMmsi(mmsi)
Ship : +getImo(imo)
Ship : +getCallSign(callsign)
@enduml

PlantUML version 1.2021.14(Fri Nov 12 16:46:50 UTC 2021)
(GPL source distribution)
Java Runtime: Java(TM) SE Runtime Environment
JVM: Java HotSpot(TM) 64-Bit Server VM
Default Encoding: UTF-8
Language: en
Country: US
--></g></svg>