<?xml version="1.0" encoding="UTF-8" standalone="no"?><svg xmlns="http://www.w3.org/2000/svg" xmlns:xlink="http://www.w3.org/1999/xlink" contentScriptType="application/ecmascript" contentStyleType="text/css" height="544px" preserveAspectRatio="none" style="width:682px;height:544px;background:#FFFFFF;" version="1.1" viewBox="0 0 682 544" width="682px" zoomAndPan="magnify"><defs><filter height="300%" id="fxtynm5hjl31u" width="300%" x="-1" y="-1"><feGaussianBlur result="blurOut" stdDeviation="2.0"/><feColorMatrix in="blurOut" result="blurOut2" type="matrix" values="0 0 0 0 0 0 0 0 0 0 0 0 0 0 0 0 0 0 .4 0"/><feOffset dx="4.0" dy="4.0" in="blurOut2" result="blurOut3"/><feBlend in="SourceGraphic" in2="blurOut3" mode="normal"/></filter></defs><g><rect fill="#FFFFFF" filter="url(#fxtynm5hjl31u)" height="344.0703" style="stroke:#A80036;stroke-width:1.0;" width="10" x="74" y="98.2969"/><rect fill="#FFFFFF" filter="url(#fxtynm5hjl31u)" height="29.1328" style="stroke:#A80036;stroke-width:1.0;" width="10" x="615" y="119.4297"/><rect fill="#FFFFFF" filter="url(#fxtynm5hjl31u)" height="156.1406" style="stroke:#A80036;stroke-width:1.0;" width="10" x="615" y="177.6953"/><rect fill="#FFFFFF" filter="url(#fxtynm5hjl31u)" height="29.1328" style="stroke:#A80036;stroke-width:1.0;" width="10" x="615" y="354.9688"/><rect fill="#FFFFFF" filter="url(#fxtynm5hjl31u)" height="29.1328" style="stroke:#A80036;stroke-width:1.0;" width="10" x="615" y="413.2344"/><rect fill="#FFFFFF" filter="url(#fxtynm5hjl31u)" height="134.1406" style="stroke:#000000;stroke-width:2.0;" width="658.5" x="10" y="192.6953"/><rect fill="#FFFFFF" height="43.9375" style="stroke:none;stroke-width:1.0;" width="658.5" x="10" y="238.9609"/><rect fill="#FFFFFF" height="43.9375" style="stroke:none;stroke-width:1.0;" width="658.5" x="10" y="282.8984"/><line style="stroke:#A80036;stroke-width:1.0;stroke-dasharray:5.0,5.0;" x1="79" x2="79" y1="88.2969" y2="460.3672"/><line style="stroke:#A80036;stroke-width:1.0;stroke-dasharray:5.0,5.0;" x1="619.5" x2="619.5" y1="88.2969" y2="460.3672"/><text fill="#000000" font-family="sans-serif" font-size="14" lengthAdjust="spacing" textLength="112" x="20" y="84.9951">Traffic Manager</text><ellipse cx="79" cy="15" fill="#FEFECE" filter="url(#fxtynm5hjl31u)" rx="8" ry="8" style="stroke:#A80036;stroke-width:2.0;"/><path d="M79,23 L79,50 M66,31 L92,31 M79,50 L66,65 M79,50 L92,65 " fill="none" filter="url(#fxtynm5hjl31u)" style="stroke:#A80036;stroke-width:2.0;"/><text fill="#000000" font-family="sans-serif" font-size="14" lengthAdjust="spacing" textLength="112" x="20" y="472.3623">Traffic Manager</text><ellipse cx="79" cy="485.6641" fill="#FEFECE" filter="url(#fxtynm5hjl31u)" rx="8" ry="8" style="stroke:#A80036;stroke-width:2.0;"/><path d="M79,493.6641 L79,520.6641 M66,501.6641 L92,501.6641 M79,520.6641 L66,535.6641 M79,520.6641 L92,535.6641 " fill="none" filter="url(#fxtynm5hjl31u)" style="stroke:#A80036;stroke-width:2.0;"/><rect fill="#FEFECE" filter="url(#fxtynm5hjl31u)" height="30.2969" style="stroke:#A80036;stroke-width:1.5;" width="73" x="581.5" y="53"/><text fill="#000000" font-family="sans-serif" font-size="14" lengthAdjust="spacing" textLength="59" x="588.5" y="72.9951">:System</text><rect fill="#FEFECE" filter="url(#fxtynm5hjl31u)" height="30.2969" style="stroke:#A80036;stroke-width:1.5;" width="73" x="581.5" y="459.3672"/><text fill="#000000" font-family="sans-serif" font-size="14" lengthAdjust="spacing" textLength="59" x="588.5" y="479.3623">:System</text><rect fill="#FFFFFF" filter="url(#fxtynm5hjl31u)" height="344.0703" style="stroke:#A80036;stroke-width:1.0;" width="10" x="74" y="98.2969"/><rect fill="#FFFFFF" filter="url(#fxtynm5hjl31u)" height="29.1328" style="stroke:#A80036;stroke-width:1.0;" width="10" x="615" y="119.4297"/><rect fill="#FFFFFF" filter="url(#fxtynm5hjl31u)" height="156.1406" style="stroke:#A80036;stroke-width:1.0;" width="10" x="615" y="177.6953"/><rect fill="#FFFFFF" filter="url(#fxtynm5hjl31u)" height="29.1328" style="stroke:#A80036;stroke-width:1.0;" width="10" x="615" y="354.9688"/><rect fill="#FFFFFF" filter="url(#fxtynm5hjl31u)" height="29.1328" style="stroke:#A80036;stroke-width:1.0;" width="10" x="615" y="413.2344"/><polygon fill="#A80036" points="603,115.4297,613,119.4297,603,123.4297,607,119.4297" style="stroke:#A80036;stroke-width:1.0;"/><line style="stroke:#A80036;stroke-width:1.0;" x1="84" x2="609" y1="119.4297" y2="119.4297"/><text fill="#000000" font-family="sans-serif" font-size="13" font-weight="bold" lengthAdjust="spacing" textLength="9" x="91" y="114.3638">1</text><text fill="#000000" font-family="sans-serif" font-size="13" lengthAdjust="spacing" textLength="289" x="104" y="114.3638">Requires a summary of a ship's movements.</text><polygon fill="#A80036" points="95,144.5625,85,148.5625,95,152.5625,91,148.5625" style="stroke:#A80036;stroke-width:1.0;"/><line style="stroke:#A80036;stroke-width:1.0;stroke-dasharray:2.0,2.0;" x1="89" x2="619" y1="148.5625" y2="148.5625"/><text fill="#000000" font-family="sans-serif" font-size="13" font-weight="bold" lengthAdjust="spacing" textLength="9" x="101" y="143.4966">2</text><text fill="#000000" font-family="sans-serif" font-size="13" lengthAdjust="spacing" textLength="494" x="114" y="143.4966">shows the list of codes to identify the ship and request to select one of them</text><polygon fill="#A80036" points="603,173.6953,613,177.6953,603,181.6953,607,177.6953" style="stroke:#A80036;stroke-width:1.0;"/><line style="stroke:#A80036;stroke-width:1.0;" x1="84" x2="609" y1="177.6953" y2="177.6953"/><text fill="#000000" font-family="sans-serif" font-size="13" font-weight="bold" lengthAdjust="spacing" textLength="8" x="91" y="172.6294">3</text><text fill="#000000" font-family="sans-serif" font-size="13" lengthAdjust="spacing" textLength="100" x="103" y="172.6294">selects an code</text><path d="M10,192.6953 L76,192.6953 L76,199.6953 L66,209.6953 L10,209.6953 L10,192.6953 " fill="#EEEEEE" style="stroke:#000000;stroke-width:1.0;"/><rect fill="none" height="134.1406" style="stroke:#000000;stroke-width:2.0;" width="658.5" x="10" y="192.6953"/><text fill="#000000" font-family="sans-serif" font-size="13" font-weight="bold" lengthAdjust="spacing" textLength="21" x="25" y="205.7622">alt</text><text fill="#000000" font-family="sans-serif" font-size="11" font-weight="bold" lengthAdjust="spacing" textLength="99" x="91" y="204.9058">[code = 'MMSI']</text><polygon fill="#A80036" points="95,226.9609,85,230.9609,95,234.9609,91,230.9609" style="stroke:#A80036;stroke-width:1.0;"/><line style="stroke:#A80036;stroke-width:1.0;stroke-dasharray:2.0,2.0;" x1="89" x2="614" y1="230.9609" y2="230.9609"/><text fill="#000000" font-family="sans-serif" font-size="13" font-weight="bold" lengthAdjust="spacing" textLength="9" x="101" y="225.895">4</text><text fill="#000000" font-family="sans-serif" font-size="13" lengthAdjust="spacing" textLength="123" x="114" y="225.895">request data(MMSI)</text><line style="stroke:#000000;stroke-width:1.0;stroke-dasharray:2.0,2.0;" x1="10" x2="668.5" y1="239.9609" y2="239.9609"/><text fill="#000000" font-family="sans-serif" font-size="11" font-weight="bold" lengthAdjust="spacing" textLength="90" x="15" y="250.1714">[code = 'IMO']</text><polygon fill="#A80036" points="95,270.8984,85,274.8984,95,278.8984,91,274.8984" style="stroke:#A80036;stroke-width:1.0;"/><line style="stroke:#A80036;stroke-width:1.0;stroke-dasharray:2.0,2.0;" x1="89" x2="614" y1="274.8984" y2="274.8984"/><text fill="#000000" font-family="sans-serif" font-size="13" font-weight="bold" lengthAdjust="spacing" textLength="9" x="101" y="269.8325">5</text><text fill="#000000" font-family="sans-serif" font-size="13" lengthAdjust="spacing" textLength="115" x="114" y="269.8325">request data(IMO)</text><line style="stroke:#000000;stroke-width:1.0;stroke-dasharray:2.0,2.0;" x1="10" x2="668.5" y1="283.8984" y2="283.8984"/><text fill="#000000" font-family="sans-serif" font-size="11" font-weight="bold" lengthAdjust="spacing" textLength="122" x="15" y="294.1089">[code = 'Call Sign']</text><polygon fill="#A80036" points="95,314.8359,85,318.8359,95,322.8359,91,318.8359" style="stroke:#A80036;stroke-width:1.0;"/><line style="stroke:#A80036;stroke-width:1.0;stroke-dasharray:2.0,2.0;" x1="89" x2="614" y1="318.8359" y2="318.8359"/><text fill="#000000" font-family="sans-serif" font-size="13" font-weight="bold" lengthAdjust="spacing" textLength="9" x="101" y="313.77">6</text><text fill="#000000" font-family="sans-serif" font-size="13" lengthAdjust="spacing" textLength="140" x="114" y="313.77">request data(callSign)</text><polygon fill="#A80036" points="603,350.9688,613,354.9688,603,358.9688,607,354.9688" style="stroke:#A80036;stroke-width:1.0;"/><line style="stroke:#A80036;stroke-width:1.0;" x1="84" x2="609" y1="354.9688" y2="354.9688"/><text fill="#000000" font-family="sans-serif" font-size="13" font-weight="bold" lengthAdjust="spacing" textLength="9" x="91" y="349.9028">7</text><text fill="#000000" font-family="sans-serif" font-size="13" lengthAdjust="spacing" textLength="138" x="104" y="349.9028">types requested data</text><polygon fill="#A80036" points="95,380.1016,85,384.1016,95,388.1016,91,384.1016" style="stroke:#A80036;stroke-width:1.0;"/><line style="stroke:#A80036;stroke-width:1.0;stroke-dasharray:2.0,2.0;" x1="89" x2="619" y1="384.1016" y2="384.1016"/><text fill="#000000" font-family="sans-serif" font-size="13" font-weight="bold" lengthAdjust="spacing" textLength="9" x="101" y="379.0356">8</text><text fill="#000000" font-family="sans-serif" font-size="13" lengthAdjust="spacing" textLength="262" x="114" y="379.0356">shows the summary of the selected ship</text><polygon fill="#A80036" points="603,409.2344,613,413.2344,603,417.2344,607,413.2344" style="stroke:#A80036;stroke-width:1.0;"/><line style="stroke:#A80036;stroke-width:1.0;" x1="84" x2="609" y1="413.2344" y2="413.2344"/><text fill="#000000" font-family="sans-serif" font-size="13" font-weight="bold" lengthAdjust="spacing" textLength="9" x="91" y="408.1685">9</text><text fill="#000000" font-family="sans-serif" font-size="13" lengthAdjust="spacing" textLength="114" x="104" y="408.1685">confirms the data</text><polygon fill="#A80036" points="90,438.3672,80,442.3672,90,446.3672,86,442.3672" style="stroke:#A80036;stroke-width:1.0;"/><line style="stroke:#A80036;stroke-width:1.0;stroke-dasharray:2.0,2.0;" x1="84" x2="619" y1="442.3672" y2="442.3672"/><text fill="#000000" font-family="sans-serif" font-size="13" font-weight="bold" lengthAdjust="spacing" textLength="19" x="96" y="437.3013">10</text><text fill="#000000" font-family="sans-serif" font-size="13" lengthAdjust="spacing" textLength="169" x="119" y="437.3013">informs operation success</text><!--MD5=[b50656dee0e9c9d803c4fc35cee80fcd]
@startuml
actor "Traffic Manager" as Adm
participant ":System" as System

autonumber
activate Adm
Adm -> System: Requires a summary of a ship's movements.
activate System
System - -> Adm: shows the list of codes to identify the ship and request to select one of them
deactivate System
Adm -> System: selects an code
activate System
alt code = 'MMSI'
    System - -> Adm: request data(MMSI)
else code = 'IMO'
    System - -> Adm: request data(IMO)
else code = 'Call Sign'
    System - -> Adm: request data(callSign)
end
deactivate System
Adm -> System: types requested data
activate System
System - -> Adm: shows the summary of the selected ship
deactivate System
Adm -> System: confirms the data
activate System
System - -> Adm: informs operation success
deactivate System
deactivate Adm
@enduml

PlantUML version 1.2021.14beta2(Unknown compile time)
(GPL source distribution)
Java Runtime: Java(TM) SE Runtime Environment
JVM: Java HotSpot(TM) 64-Bit Server VM
Default Encoding: UTF-8
Language: en
Country: US
--></g></svg>