<?xml version="1.0" encoding="UTF-8" standalone="no"?><svg xmlns="http://www.w3.org/2000/svg" xmlns:xlink="http://www.w3.org/1999/xlink" contentScriptType="application/ecmascript" contentStyleType="text/css" height="55.5px" preserveAspectRatio="none" style="width:150px;height:55px;" version="1.1" viewBox="0 0 150 55" width="150.6px" zoomAndPan="magnify"><defs><filter height="300%" id="flj4y7botv4hi" width="300%" x="-1" y="-1"><feGaussianBlur result="blurOut" stdDeviation="0.6"/><feColorMatrix in="blurOut" result="blurOut2" type="matrix" values="0 0 0 0 0 0 0 0 0 0 0 0 0 0 0 0 0 0 .4 0"/><feOffset dx="1.2" dy="1.2" in="blurOut2" result="blurOut3"/><feBlend in="SourceGraphic" in2="blurOut3" mode="normal"/></filter></defs><g><!--MD5=[02e4b9b7573f1156f41e60aa5b4e25a4]
class Company--><rect codeLine="14" fill="#FEFECE" filter="url(#flj4y7botv4hi)" height="12" id="Company" style="stroke:#A80036;stroke-width:0.44999999999999996;" width="25.5" x="2.1" y="20.85"/><ellipse cx="6.6" cy="25.65" fill="#ADD1B2" rx="3.3" ry="3.3" style="stroke:#A80036;stroke-width:0.3;"/><path d="M7.2,24.6 Q7.2609,24.45 7.3313,24.375 Q7.4016,24.3 7.4812,24.3 Q7.6219,24.3 7.7109,24.3844 Q7.8,24.4688 7.8,24.6656 L7.8,25.1344 Q7.8,25.3313 7.7156,25.4156 Q7.6313,25.5 7.5,25.5 Q7.3828,25.5 7.3078,25.4484 Q7.2328,25.3969 7.2,25.2609 Q7.1859,25.1672 7.1344,25.1156 Q7.0406,25.0172 6.8719,24.9609 Q6.7031,24.9 6.5344,24.9 Q6.3234,24.9 6.1453,24.9844 Q5.9719,25.0687 5.8359,25.2562 Q5.7,25.4437 5.7,25.7016 L5.7,25.9781 Q5.7,26.2875 5.9531,26.4938 Q6.2063,26.7 6.6563,26.7 Q6.9234,26.7 7.1109,26.6391 Q7.2188,26.6063 7.3406,26.4984 Q7.4203,26.4375 7.4625,26.4188 Q7.5047,26.4 7.5562,26.4 Q7.6547,26.4 7.725,26.4797 Q7.8,26.5547 7.8,26.6625 Q7.8,26.7656 7.6969,26.8875 Q7.5469,27.0656 7.3078,27.1641 Q6.9937,27.3 6.6094,27.3 Q6.1594,27.3 5.7984,27.1219 Q5.5078,26.9813 5.3016,26.6766 Q5.1,26.3719 5.1,26.0109 L5.1,25.6828 Q5.1,25.3078 5.2781,24.9797 Q5.4609,24.6516 5.775,24.4781 Q6.0938,24.3 6.45,24.3 Q6.6656,24.3 6.8531,24.375 Q7.0406,24.45 7.2,24.6 Z " fill="#000000"/><text fill="#000000" font-family="sans-serif" font-size="3.6" lengthAdjust="spacing" textLength="15.9" x="10.8" y="27.123">Company</text><line style="stroke:#A80036;stroke-width:0.44999999999999996;" x1="2.4" x2="27.3" y1="30.45" y2="30.45"/><!--MD5=[0dc7f2ddb409b58bcf52b12238c25399]
class Ship--><rect codeLine="18" fill="#FEFECE" filter="url(#flj4y7botv4hi)" height="49.357" id="Ship" style="stroke:#A80036;stroke-width:0.44999999999999996;" width="21.6" x="64.8" y="2.1"/><ellipse cx="71.325" cy="6.9" fill="#ADD1B2" rx="3.3" ry="3.3" style="stroke:#A80036;stroke-width:0.3;"/><path d="M71.925,5.85 Q71.9859,5.7 72.0562,5.625 Q72.1266,5.55 72.2063,5.55 Q72.3469,5.55 72.4359,5.6344 Q72.525,5.7188 72.525,5.9156 L72.525,6.3844 Q72.525,6.5813 72.4406,6.6656 Q72.3563,6.75 72.225,6.75 Q72.1078,6.75 72.0328,6.6984 Q71.9578,6.6469 71.925,6.5109 Q71.9109,6.4172 71.8594,6.3656 Q71.7656,6.2672 71.5969,6.2109 Q71.4281,6.15 71.2594,6.15 Q71.0484,6.15 70.8703,6.2344 Q70.6969,6.3188 70.5609,6.5063 Q70.425,6.6938 70.425,6.9516 L70.425,7.2281 Q70.425,7.5375 70.6781,7.7437 Q70.9312,7.95 71.3813,7.95 Q71.6484,7.95 71.8359,7.8891 Q71.9438,7.8562 72.0656,7.7484 Q72.1453,7.6875 72.1875,7.6687 Q72.2297,7.65 72.2813,7.65 Q72.3797,7.65 72.45,7.7297 Q72.525,7.8047 72.525,7.9125 Q72.525,8.0156 72.4219,8.1375 Q72.2719,8.3156 72.0328,8.4141 Q71.7188,8.55 71.3344,8.55 Q70.8844,8.55 70.5234,8.3719 Q70.2328,8.2313 70.0266,7.9266 Q69.825,7.6219 69.825,7.2609 L69.825,6.9328 Q69.825,6.5578 70.0031,6.2297 Q70.1859,5.9016 70.5,5.7281 Q70.8188,5.55 71.175,5.55 Q71.3906,5.55 71.5781,5.625 Q71.7656,5.7 71.925,5.85 Z " fill="#000000"/><text fill="#000000" font-family="sans-serif" font-size="3.6" lengthAdjust="spacing" textLength="7.5" x="75.975" y="8.373">Ship</text><line style="stroke:#A80036;stroke-width:0.44999999999999996;" x1="65.1" x2="86.1" y1="11.7" y2="11.7"/><text fill="#000000" font-family="sans-serif" font-size="3.3" lengthAdjust="spacing" textLength="8.4" x="66.6" y="16.3257">-mmsi</text><text fill="#000000" font-family="sans-serif" font-size="3.3" lengthAdjust="spacing" textLength="15.3" x="66.6" y="20.4765">-shipName</text><text fill="#000000" font-family="sans-serif" font-size="3.3" lengthAdjust="spacing" textLength="6" x="66.6" y="24.6272">-imo</text><text fill="#000000" font-family="sans-serif" font-size="3.3" lengthAdjust="spacing" textLength="12.3" x="66.6" y="28.778">-callSign</text><text fill="#000000" font-family="sans-serif" font-size="3.3" lengthAdjust="spacing" textLength="18" x="66.6" y="32.9288">-vesselType</text><text fill="#000000" font-family="sans-serif" font-size="3.3" lengthAdjust="spacing" textLength="9.9" x="66.6" y="37.0796">-length</text><text fill="#000000" font-family="sans-serif" font-size="3.3" lengthAdjust="spacing" textLength="9.3" x="66.6" y="41.2304">-width</text><text fill="#000000" font-family="sans-serif" font-size="3.3" lengthAdjust="spacing" textLength="13.5" x="66.6" y="45.3812">-capacity</text><text fill="#000000" font-family="sans-serif" font-size="3.3" lengthAdjust="spacing" textLength="8.1" x="66.6" y="49.5319">-draft</text><!--MD5=[ea664677451a07ae043a86695eaa4448]
class ShipDynData--><rect codeLine="30" fill="#FEFECE" filter="url(#flj4y7botv4hi)" height="49.357" id="ShipDynData" style="stroke:#A80036;stroke-width:0.44999999999999996;" width="31.2" x="115.2" y="2.1"/><ellipse cx="119.7" cy="6.9" fill="#ADD1B2" rx="3.3" ry="3.3" style="stroke:#A80036;stroke-width:0.3;"/><path d="M120.3,5.85 Q120.3609,5.7 120.4312,5.625 Q120.5016,5.55 120.5813,5.55 Q120.7219,5.55 120.8109,5.6344 Q120.9,5.7188 120.9,5.9156 L120.9,6.3844 Q120.9,6.5813 120.8156,6.6656 Q120.7312,6.75 120.6,6.75 Q120.4828,6.75 120.4078,6.6984 Q120.3328,6.6469 120.3,6.5109 Q120.2859,6.4172 120.2344,6.3656 Q120.1406,6.2672 119.9719,6.2109 Q119.8031,6.15 119.6344,6.15 Q119.4234,6.15 119.2453,6.2344 Q119.0719,6.3188 118.9359,6.5063 Q118.8,6.6938 118.8,6.9516 L118.8,7.2281 Q118.8,7.5375 119.0531,7.7437 Q119.3062,7.95 119.7563,7.95 Q120.0234,7.95 120.2109,7.8891 Q120.3188,7.8562 120.4406,7.7484 Q120.5203,7.6875 120.5625,7.6687 Q120.6047,7.65 120.6563,7.65 Q120.7547,7.65 120.825,7.7297 Q120.9,7.8047 120.9,7.9125 Q120.9,8.0156 120.7969,8.1375 Q120.6469,8.3156 120.4078,8.4141 Q120.0938,8.55 119.7094,8.55 Q119.2594,8.55 118.8984,8.3719 Q118.6078,8.2313 118.4016,7.9266 Q118.2,7.6219 118.2,7.2609 L118.2,6.9328 Q118.2,6.5578 118.3781,6.2297 Q118.5609,5.9016 118.875,5.7281 Q119.1938,5.55 119.55,5.55 Q119.7656,5.55 119.9531,5.625 Q120.1406,5.7 120.3,5.85 Z " fill="#000000"/><text fill="#000000" font-family="sans-serif" font-size="3.6" lengthAdjust="spacing" textLength="21.6" x="123.9" y="8.373">ShipDynData</text><line style="stroke:#A80036;stroke-width:0.44999999999999996;" x1="115.5" x2="146.1" y1="11.7" y2="11.7"/><text fill="#000000" font-family="sans-serif" font-size="3.3" lengthAdjust="spacing" textLength="21.6" x="117" y="16.3257">-baseDateTime</text><text fill="#000000" font-family="sans-serif" font-size="3.3" lengthAdjust="spacing" textLength="11.4" x="117" y="20.4765">-latitude</text><text fill="#000000" font-family="sans-serif" font-size="3.3" lengthAdjust="spacing" textLength="14.1" x="117" y="24.6272">-longitude</text><text fill="#000000" font-family="sans-serif" font-size="3.3" lengthAdjust="spacing" textLength="6.6" x="117" y="28.778">-sog</text><text fill="#000000" font-family="sans-serif" font-size="3.3" lengthAdjust="spacing" textLength="6.6" x="117" y="32.9288">-cog</text><text fill="#000000" font-family="sans-serif" font-size="3.3" lengthAdjust="spacing" textLength="12.6" x="117" y="37.0796">-heading</text><text fill="#000000" font-family="sans-serif" font-size="3.3" lengthAdjust="spacing" textLength="12.3" x="117" y="41.2304">-position</text><text fill="#000000" font-family="sans-serif" font-size="3.3" lengthAdjust="spacing" textLength="9.6" x="117" y="45.3812">-cargo</text><text fill="#000000" font-family="sans-serif" font-size="3.3" lengthAdjust="spacing" textLength="17.7" x="117" y="49.5319">-transceiver</text><!--MD5=[37a14a5de6d6fd738aee271300f4b5c8]
link Company to Ship--><path codeLine="11" d="M27.612,26.85 C38.589,26.85 54.399,26.85 64.761,26.85 " fill="none" id="Company-Ship" style="stroke:#A80036;stroke-width:0.3;"/><polygon fill="#000000" points="39.6,24.2027,36.8865,23.3211,36.8865,25.0844,39.6,24.2027" style="stroke:#000000;stroke-width:0.3;"/><text fill="#000000" font-family="sans-serif" font-size="3.9" lengthAdjust="spacing" textLength="14.7" x="40.8" y="25.7985">contains</text><text fill="#000000" font-family="sans-serif" font-size="3.9" lengthAdjust="spacing" textLength="2.1" x="29.9859" y="31.3201">1</text><text fill="#000000" font-family="sans-serif" font-size="3.9" lengthAdjust="spacing" textLength="1.5" x="60.8708" y="31.4192">*</text><!--MD5=[38c9884540ca05eda8cb10986cdb6299]
link Ship to ShipDynData--><path codeLine="12" d="M86.427,26.85 C94.578,26.85 105.984,26.85 115.149,26.85 " fill="none" id="Ship-ShipDynData" style="stroke:#A80036;stroke-width:0.3;"/><polygon fill="#000000" points="98.4,24.2027,95.6865,23.3211,95.6865,25.0844,98.4,24.2027" style="stroke:#000000;stroke-width:0.3;"/><text fill="#000000" font-family="sans-serif" font-size="3.9" lengthAdjust="spacing" textLength="6.3" x="99.6" y="25.7985">has</text><text fill="#000000" font-family="sans-serif" font-size="3.9" lengthAdjust="spacing" textLength="2.1" x="88.7653" y="31.3955">1</text><text fill="#000000" font-family="sans-serif" font-size="3.9" lengthAdjust="spacing" textLength="1.5" x="111.3426" y="31.2535">*</text><!--MD5=[054a99b00bd8b559eb3c05de7c2c2b54]
@startuml
'https://plantuml.com/class-diagram

hide methods
left to right direction
skinparam classAttributeIconSize 0

class Company
class Ship
class ShipDynData

Company "1" - - "*" Ship: contains >
Ship "1" - - "*" ShipDynData: has >

class Company {

}

class Ship{
 - mmsi
 - shipName
 - imo
 - callSign
 - vesselType
 - length
 - width
 - capacity
 - draft
}

class ShipDynData{
 - baseDateTime
 - latitude
 -longitude
 -sog
 -cog
 -heading
 -position
 -cargo
 -transceiver
}

@enduml

@startuml

hide methods
left to right direction
skinparam classAttributeIconSize 0

class Company
class Ship
class ShipDynData

Company "1" - - "*" Ship: contains >
Ship "1" - - "*" ShipDynData: has >

class Company {

}

class Ship{
 - mmsi
 - shipName
 - imo
 - callSign
 - vesselType
 - length
 - width
 - capacity
 - draft
}

class ShipDynData{
 - baseDateTime
 - latitude
 -longitude
 -sog
 -cog
 -heading
 -position
 -cargo
 -transceiver
}

@enduml

PlantUML version 1.2021.5(Sun Apr 25 12:20:28 BST 2021)
(GPL source distribution)
Java Runtime: OpenJDK Runtime Environment
JVM: OpenJDK 64-Bit Server VM
Default Encoding: Cp1252
Language: pt
Country: PT
--></g></svg>