<?xml version="1.0" encoding="UTF-8" standalone="no"?><svg xmlns="http://www.w3.org/2000/svg" xmlns:xlink="http://www.w3.org/1999/xlink" contentScriptType="application/ecmascript" contentStyleType="text/css" height="451px" preserveAspectRatio="none" style="width:671px;height:451px;background:#FFFFFF;" version="1.1" viewBox="0 0 671 451" width="671px" zoomAndPan="magnify"><defs><filter height="300%" id="f37d06woikhod" width="300%" x="-1" y="-1"><feGaussianBlur result="blurOut" stdDeviation="2.0"/><feColorMatrix in="blurOut" result="blurOut2" type="matrix" values="0 0 0 0 0 0 0 0 0 0 0 0 0 0 0 0 0 0 .4 0"/><feOffset dx="4.0" dy="4.0" in="blurOut2" result="blurOut3"/><feBlend in="SourceGraphic" in2="blurOut3" mode="normal"/></filter></defs><g><!--MD5=[e6f2cb470f06694f6a02b571e2ffcbb5]
class SearchShipController--><rect fill="#FEFECE" filter="url(#f37d06woikhod)" height="112.0234" id="SearchShipController" style="stroke:#A80036;stroke-width:1.5;" width="159" x="158.5571" y="7"/><ellipse cx="173.5571" cy="23" fill="#ADD1B2" rx="11" ry="11" style="stroke:#A80036;stroke-width:1.0;"/><path d="M175.9009,18.6719 C174.9634,18.2344 174.3696,18.0938 173.4946,18.0938 C170.8696,18.0938 168.8696,20.1719 168.8696,22.8906 L168.8696,24.0156 C168.8696,26.5938 170.979,28.4844 173.8696,28.4844 C175.0884,28.4844 176.2446,28.1875 176.9946,27.6406 C177.5727,27.2344 177.9009,26.7813 177.9009,26.3906 C177.9009,25.9375 177.5102,25.5469 177.0415,25.5469 C176.8227,25.5469 176.6196,25.625 176.4321,25.8125 C175.979,26.2969 175.979,26.2969 175.7915,26.3906 C175.3696,26.6563 174.6821,26.7813 173.9165,26.7813 C171.8696,26.7813 170.5727,25.6875 170.5727,23.9844 L170.5727,22.8906 C170.5727,21.1094 171.8227,19.7969 173.5571,19.7969 C174.1352,19.7969 174.7446,19.9531 175.2134,20.2031 C175.6977,20.4844 175.8696,20.7031 175.9634,21.1094 C176.0259,21.5156 176.0571,21.6406 176.1977,21.7656 C176.3384,21.9063 176.5727,22.0156 176.7915,22.0156 C177.0571,22.0156 177.3227,21.875 177.4946,21.6563 C177.604,21.5 177.6352,21.3125 177.6352,20.8906 L177.6352,19.4688 C177.6352,19.0313 177.6196,18.9063 177.5259,18.75 C177.3696,18.4844 177.0884,18.3438 176.7915,18.3438 C176.4946,18.3438 176.2915,18.4375 176.0727,18.75 L175.9009,18.6719 Z " fill="#000000"/><text fill="#000000" font-family="sans-serif" font-size="12" lengthAdjust="spacing" textLength="127" x="187.5571" y="27.1543">SearchShipController</text><line style="stroke:#A80036;stroke-width:1.5;" x1="159.5571" x2="316.5571" y1="39" y2="39"/><line style="stroke:#A80036;stroke-width:1.5;" x1="159.5571" x2="316.5571" y1="47" y2="47"/><ellipse cx="169.5571" cy="58" fill="#84BE84" rx="3" ry="3" style="stroke:#038048;stroke-width:1.0;"/><text fill="#000000" font-family="sans-serif" font-size="11" lengthAdjust="spacing" textLength="88" x="178.5571" y="61.2104">getMaxCog(list)</text><ellipse cx="169.5571" cy="70.8047" fill="#84BE84" rx="3" ry="3" style="stroke:#038048;stroke-width:1.0;"/><text fill="#000000" font-family="sans-serif" font-size="11" lengthAdjust="spacing" textLength="88" x="178.5571" y="74.0151">getMaxSog(list)</text><ellipse cx="169.5571" cy="83.6094" fill="#84BE84" rx="3" ry="3" style="stroke:#038048;stroke-width:1.0;"/><text fill="#000000" font-family="sans-serif" font-size="11" lengthAdjust="spacing" textLength="91" x="178.5571" y="86.8198">getSumCog(list)</text><ellipse cx="169.5571" cy="96.4141" fill="#84BE84" rx="3" ry="3" style="stroke:#038048;stroke-width:1.0;"/><text fill="#000000" font-family="sans-serif" font-size="11" lengthAdjust="spacing" textLength="91" x="178.5571" y="99.6245">getSumSog(list)</text><ellipse cx="169.5571" cy="109.2188" fill="#84BE84" rx="3" ry="3" style="stroke:#038048;stroke-width:1.0;"/><text fill="#000000" font-family="sans-serif" font-size="11" lengthAdjust="spacing" textLength="120" x="178.5571" y="112.4292">makeSummary(path)</text><!--MD5=[8a61326b4f5c9e6ed3a15cb6e1c143c5]
class BSTShip--><rect fill="#FEFECE" filter="url(#f37d06woikhod)" height="60.8047" id="BSTShip" style="stroke:#A80036;stroke-width:1.5;" width="81" x="28.5569" y="377"/><ellipse cx="43.5569" cy="393" fill="#ADD1B2" rx="11" ry="11" style="stroke:#A80036;stroke-width:1.0;"/><path d="M45.9007,388.6719 C44.9632,388.2344 44.3694,388.0938 43.4944,388.0938 C40.8694,388.0938 38.8694,390.1719 38.8694,392.8906 L38.8694,394.0156 C38.8694,396.5938 40.9788,398.4844 43.8694,398.4844 C45.0882,398.4844 46.2444,398.1875 46.9944,397.6406 C47.5725,397.2344 47.9007,396.7813 47.9007,396.3906 C47.9007,395.9375 47.51,395.5469 47.0413,395.5469 C46.8225,395.5469 46.6194,395.625 46.4319,395.8125 C45.9788,396.2969 45.9788,396.2969 45.7913,396.3906 C45.3694,396.6563 44.6819,396.7813 43.9163,396.7813 C41.8694,396.7813 40.5725,395.6875 40.5725,393.9844 L40.5725,392.8906 C40.5725,391.1094 41.8225,389.7969 43.5569,389.7969 C44.135,389.7969 44.7444,389.9531 45.2132,390.2031 C45.6975,390.4844 45.8694,390.7031 45.9632,391.1094 C46.0257,391.5156 46.0569,391.6406 46.1975,391.7656 C46.3382,391.9063 46.5725,392.0156 46.7913,392.0156 C47.0569,392.0156 47.3225,391.875 47.4944,391.6563 C47.6038,391.5 47.635,391.3125 47.635,390.8906 L47.635,389.4688 C47.635,389.0313 47.6194,388.9063 47.5257,388.75 C47.3694,388.4844 47.0882,388.3438 46.7913,388.3438 C46.4944,388.3438 46.2913,388.4375 46.0725,388.75 L45.9007,388.6719 Z " fill="#000000"/><text fill="#000000" font-family="sans-serif" font-size="12" lengthAdjust="spacing" textLength="49" x="57.5569" y="397.1543">BSTShip</text><line style="stroke:#A80036;stroke-width:1.5;" x1="29.5569" x2="108.5569" y1="409" y2="409"/><line style="stroke:#A80036;stroke-width:1.5;" x1="29.5569" x2="108.5569" y1="417" y2="417"/><ellipse cx="39.5569" cy="428" fill="#84BE84" rx="3" ry="3" style="stroke:#038048;stroke-width:1.0;"/><text fill="#000000" font-family="sans-serif" font-size="11" lengthAdjust="spacing" textLength="50" x="48.5569" y="431.2104">inOrder()</text><!--MD5=[02e4b9b7573f1156f41e60aa5b4e25a4]
class Company--><rect fill="#FEFECE" filter="url(#f37d06woikhod)" height="99.2188" id="Company" style="stroke:#A80036;stroke-width:1.5;" width="149" x="58.5569" y="198.5"/><ellipse cx="101.0069" cy="214.5" fill="#ADD1B2" rx="11" ry="11" style="stroke:#A80036;stroke-width:1.0;"/><path d="M103.3507,210.1719 C102.4132,209.7344 101.8194,209.5938 100.9444,209.5938 C98.3194,209.5938 96.3194,211.6719 96.3194,214.3906 L96.3194,215.5156 C96.3194,218.0938 98.4288,219.9844 101.3194,219.9844 C102.5382,219.9844 103.6944,219.6875 104.4444,219.1406 C105.0225,218.7344 105.3507,218.2813 105.3507,217.8906 C105.3507,217.4375 104.96,217.0469 104.4913,217.0469 C104.2725,217.0469 104.0694,217.125 103.8819,217.3125 C103.4288,217.7969 103.4288,217.7969 103.2413,217.8906 C102.8194,218.1563 102.1319,218.2813 101.3663,218.2813 C99.3194,218.2813 98.0225,217.1875 98.0225,215.4844 L98.0225,214.3906 C98.0225,212.6094 99.2725,211.2969 101.0069,211.2969 C101.585,211.2969 102.1944,211.4531 102.6632,211.7031 C103.1475,211.9844 103.3194,212.2031 103.4132,212.6094 C103.4757,213.0156 103.5069,213.1406 103.6475,213.2656 C103.7882,213.4063 104.0225,213.5156 104.2413,213.5156 C104.5069,213.5156 104.7725,213.375 104.9444,213.1563 C105.0538,213 105.085,212.8125 105.085,212.3906 L105.085,210.9688 C105.085,210.5313 105.0694,210.4063 104.9757,210.25 C104.8194,209.9844 104.5382,209.8438 104.2413,209.8438 C103.9444,209.8438 103.7413,209.9375 103.5225,210.25 L103.3507,210.1719 Z " fill="#000000"/><text fill="#000000" font-family="sans-serif" font-size="12" lengthAdjust="spacing" textLength="56" x="121.1069" y="218.6543">Company</text><line style="stroke:#A80036;stroke-width:1.5;" x1="59.5569" x2="206.5569" y1="230.5" y2="230.5"/><rect fill="none" height="6" style="stroke:#C82930;stroke-width:1.0;" width="6" x="66.5569" y="238.5"/><text fill="#000000" font-family="sans-serif" font-size="11" lengthAdjust="spacing" textLength="103" x="78.5569" y="244.7104">bstShips: BSTShip</text><line style="stroke:#A80036;stroke-width:1.5;" x1="59.5569" x2="206.5569" y1="251.3047" y2="251.3047"/><ellipse cx="69.5569" cy="262.3047" fill="#84BE84" rx="3" ry="3" style="stroke:#038048;stroke-width:1.0;"/><text fill="#000000" font-family="sans-serif" font-size="11" lengthAdjust="spacing" textLength="62" x="78.5569" y="265.5151">Company()</text><ellipse cx="69.5569" cy="275.1094" fill="#84BE84" rx="3" ry="3" style="stroke:#038048;stroke-width:1.0;"/><text fill="#000000" font-family="sans-serif" font-size="11" lengthAdjust="spacing" textLength="76" x="78.5569" y="278.3198">getBstShips()</text><ellipse cx="69.5569" cy="287.9141" fill="#84BE84" rx="3" ry="3" style="stroke:#038048;stroke-width:1.0;"/><text fill="#000000" font-family="sans-serif" font-size="11" lengthAdjust="spacing" textLength="123" x="78.5569" y="291.1245">setBstShips(ShipBST)</text><!--MD5=[0dc7f2ddb409b58bcf52b12238c25399]
class Ship--><rect fill="#FEFECE" filter="url(#f37d06woikhod)" height="99.2188" id="Ship" style="stroke:#A80036;stroke-width:1.5;" width="202" x="243.0571" y="198.5"/><ellipse cx="326.8071" cy="214.5" fill="#ADD1B2" rx="11" ry="11" style="stroke:#A80036;stroke-width:1.0;"/><path d="M329.1509,210.1719 C328.2134,209.7344 327.6196,209.5938 326.7446,209.5938 C324.1196,209.5938 322.1196,211.6719 322.1196,214.3906 L322.1196,215.5156 C322.1196,218.0938 324.229,219.9844 327.1196,219.9844 C328.3384,219.9844 329.4946,219.6875 330.2446,219.1406 C330.8227,218.7344 331.1509,218.2813 331.1509,217.8906 C331.1509,217.4375 330.7602,217.0469 330.2915,217.0469 C330.0727,217.0469 329.8696,217.125 329.6821,217.3125 C329.229,217.7969 329.229,217.7969 329.0415,217.8906 C328.6196,218.1563 327.9321,218.2813 327.1665,218.2813 C325.1196,218.2813 323.8227,217.1875 323.8227,215.4844 L323.8227,214.3906 C323.8227,212.6094 325.0727,211.2969 326.8071,211.2969 C327.3852,211.2969 327.9946,211.4531 328.4634,211.7031 C328.9477,211.9844 329.1196,212.2031 329.2134,212.6094 C329.2759,213.0156 329.3071,213.1406 329.4477,213.2656 C329.5884,213.4063 329.8227,213.5156 330.0415,213.5156 C330.3071,213.5156 330.5727,213.375 330.7446,213.1563 C330.854,213 330.8852,212.8125 330.8852,212.3906 L330.8852,210.9688 C330.8852,210.5313 330.8696,210.4063 330.7759,210.25 C330.6196,209.9844 330.3384,209.8438 330.0415,209.8438 C329.7446,209.8438 329.5415,209.9375 329.3227,210.25 L329.1509,210.1719 Z " fill="#000000"/><text fill="#000000" font-family="sans-serif" font-size="12" lengthAdjust="spacing" textLength="26" x="347.3071" y="218.6543">Ship</text><line style="stroke:#A80036;stroke-width:1.5;" x1="244.0571" x2="444.0571" y1="230.5" y2="230.5"/><line style="stroke:#A80036;stroke-width:1.5;" x1="244.0571" x2="444.0571" y1="238.5" y2="238.5"/><ellipse cx="254.0571" cy="249.5" fill="#84BE84" rx="3" ry="3" style="stroke:#038048;stroke-width:1.0;"/><text fill="#000000" font-family="sans-serif" font-size="11" lengthAdjust="spacing" textLength="123" x="263.0571" y="252.7104">IdentifyTheShip(path)</text><ellipse cx="254.0571" cy="262.3047" fill="#84BE84" rx="3" ry="3" style="stroke:#038048;stroke-width:1.0;"/><text fill="#000000" font-family="sans-serif" font-size="11" lengthAdjust="spacing" textLength="148" x="263.0571" y="265.5151">ShipSearchByMmsi(mmsi)</text><ellipse cx="254.0571" cy="275.1094" fill="#84BE84" rx="3" ry="3" style="stroke:#038048;stroke-width:1.0;"/><text fill="#000000" font-family="sans-serif" font-size="11" lengthAdjust="spacing" textLength="130" x="263.0571" y="278.3198">ShipSearchByImo(imo)</text><ellipse cx="254.0571" cy="287.9141" fill="#84BE84" rx="3" ry="3" style="stroke:#038048;stroke-width:1.0;"/><text fill="#000000" font-family="sans-serif" font-size="11" lengthAdjust="spacing" textLength="176" x="263.0571" y="291.1245">ShipSearchByCallSign(callsign)</text><!--MD5=[7ae728e7109ce15ce9192deec798997c]
class BSTDynData--><rect fill="#FEFECE" filter="url(#f37d06woikhod)" height="137.6328" id="BSTDynData" style="stroke:#A80036;stroke-width:1.5;" width="177" x="480.5571" y="179"/><ellipse cx="528.3071" cy="195" fill="#ADD1B2" rx="11" ry="11" style="stroke:#A80036;stroke-width:1.0;"/><path d="M530.6509,190.6719 C529.7134,190.2344 529.1196,190.0938 528.2446,190.0938 C525.6196,190.0938 523.6196,192.1719 523.6196,194.8906 L523.6196,196.0156 C523.6196,198.5938 525.729,200.4844 528.6196,200.4844 C529.8384,200.4844 530.9946,200.1875 531.7446,199.6406 C532.3227,199.2344 532.6509,198.7813 532.6509,198.3906 C532.6509,197.9375 532.2602,197.5469 531.7915,197.5469 C531.5727,197.5469 531.3696,197.625 531.1821,197.8125 C530.729,198.2969 530.729,198.2969 530.5415,198.3906 C530.1196,198.6563 529.4321,198.7813 528.6665,198.7813 C526.6196,198.7813 525.3227,197.6875 525.3227,195.9844 L525.3227,194.8906 C525.3227,193.1094 526.5727,191.7969 528.3071,191.7969 C528.8852,191.7969 529.4946,191.9531 529.9634,192.2031 C530.4477,192.4844 530.6196,192.7031 530.7134,193.1094 C530.7759,193.5156 530.8071,193.6406 530.9477,193.7656 C531.0884,193.9063 531.3227,194.0156 531.5415,194.0156 C531.8071,194.0156 532.0727,193.875 532.2446,193.6563 C532.354,193.5 532.3852,193.3125 532.3852,192.8906 L532.3852,191.4688 C532.3852,191.0313 532.3696,190.9063 532.2759,190.75 C532.1196,190.4844 531.8384,190.3438 531.5415,190.3438 C531.2446,190.3438 531.0415,190.4375 530.8227,190.75 L530.6509,190.6719 Z " fill="#000000"/><text fill="#000000" font-family="sans-serif" font-size="12" lengthAdjust="spacing" textLength="73" x="548.8071" y="199.1543">BSTDynData</text><line style="stroke:#A80036;stroke-width:1.5;" x1="481.5571" x2="656.5571" y1="211" y2="211"/><line style="stroke:#A80036;stroke-width:1.5;" x1="481.5571" x2="656.5571" y1="219" y2="219"/><ellipse cx="491.5571" cy="230" fill="#84BE84" rx="3" ry="3" style="stroke:#038048;stroke-width:1.0;"/><text fill="#000000" font-family="sans-serif" font-size="11" lengthAdjust="spacing" textLength="66" x="500.5571" y="233.2104">Departure()</text><ellipse cx="491.5571" cy="242.8047" fill="#84BE84" rx="3" ry="3" style="stroke:#038048;stroke-width:1.0;"/><text fill="#000000" font-family="sans-serif" font-size="11" lengthAdjust="spacing" textLength="44" x="500.5571" y="246.0151">Arrival()</text><ellipse cx="491.5571" cy="255.6094" fill="#84BE84" rx="3" ry="3" style="stroke:#038048;stroke-width:1.0;"/><text fill="#000000" font-family="sans-serif" font-size="11" lengthAdjust="spacing" textLength="50" x="500.5571" y="258.8198">inOrder()</text><ellipse cx="491.5571" cy="268.4141" fill="#84BE84" rx="3" ry="3" style="stroke:#038048;stroke-width:1.0;"/><text fill="#000000" font-family="sans-serif" font-size="11" lengthAdjust="spacing" textLength="32" x="500.5571" y="271.6245">size()</text><ellipse cx="491.5571" cy="281.2188" fill="#84BE84" rx="3" ry="3" style="stroke:#038048;stroke-width:1.0;"/><text fill="#000000" font-family="sans-serif" font-size="11" lengthAdjust="spacing" textLength="109" x="500.5571" y="284.4292">travelledDistance()</text><ellipse cx="491.5571" cy="294.0234" fill="#84BE84" rx="3" ry="3" style="stroke:#038048;stroke-width:1.0;"/><text fill="#000000" font-family="sans-serif" font-size="11" lengthAdjust="spacing" textLength="151" x="500.5571" y="297.2339">inorderCalculateDistance()</text><ellipse cx="491.5571" cy="306.8281" fill="#84BE84" rx="3" ry="3" style="stroke:#038048;stroke-width:1.0;"/><text fill="#000000" font-family="sans-serif" font-size="11" lengthAdjust="spacing" textLength="81" x="500.5571" y="310.0386">shipDynData()</text><!--MD5=[a97112f901c3f11b2ba8f0a2cdf1d546]
link SearchShipController to BSTShip--><path codeLine="1" d="M158.4871,88.53 C115.5472,106.29 66.2972,135.04 41.0569,179 C6,240.058 32.7731,325.381 52.6579,372.2673 " fill="none" id="SearchShipController-to-BSTShip" style="stroke:#A80036;stroke-width:1.0;stroke-dasharray:7.0,7.0;"/><polygon fill="#A80036" points="54.6794,376.9594,54.7918,367.1112,52.701,372.3675,47.4447,370.2766,54.6794,376.9594" style="stroke:#A80036;stroke-width:1.0;"/><!--MD5=[4fb66a5e4dcc2b5f1ba2b9f73944b5d1]
link SearchShipController to Company--><path codeLine="2" d="M206.2681,119.403 C192.7441,142.974 177.0361,170.351 163.6451,193.689 " fill="none" id="SearchShipController-to-Company" style="stroke:#A80036;stroke-width:1.0;stroke-dasharray:7.0,7.0;"/><polygon fill="#A80036" points="160.9991,198.3,168.9476,192.4844,163.4875,193.9632,162.0087,188.503,160.9991,198.3" style="stroke:#A80036;stroke-width:1.0;"/><!--MD5=[77cbd7877aa76d499fb278624c7fae30]
link SearchShipController to Ship--><path codeLine="3" d="M270.1481,119.403 C283.8011,142.974 299.6591,170.351 313.1771,193.689 " fill="none" id="SearchShipController-to-Ship" style="stroke:#A80036;stroke-width:1.0;stroke-dasharray:7.0,7.0;"/><polygon fill="#A80036" points="315.8481,198.3,314.7958,188.5075,313.3408,193.9741,307.8743,192.5191,315.8481,198.3" style="stroke:#A80036;stroke-width:1.0;"/><!--MD5=[16173d8d39a540b4068b149275089d1a]
link SearchShipController to BSTDynData--><path codeLine="4" d="M317.6821,102.322 C361.1871,123.851 415.6981,151.794 463.0571,179 C467.3221,181.45 471.6571,183.996 476.0161,186.6 " fill="none" id="SearchShipController-to-BSTDynData" style="stroke:#A80036;stroke-width:1.0;stroke-dasharray:7.0,7.0;"/><polygon fill="#A80036" points="480.3801,189.222,474.7266,181.1574,476.0945,186.6464,470.6056,188.0143,480.3801,189.222" style="stroke:#A80036;stroke-width:1.0;"/><!--MD5=[662567d9e10e593fef100fb7b5669386]
link Company to BSTShip--><path codeLine="18" d="M113.3326,297.54 C103.5669,321.573 92.0035,350.0298 83.1432,371.8345 " fill="none" id="Company-to-BSTShip" style="stroke:#A80036;stroke-width:1.0;stroke-dasharray:7.0,7.0;"/><polygon fill="#A80036" points="81.1812,376.6628,88.2751,369.8307,83.0635,372.0306,80.8636,366.8191,81.1812,376.6628" style="stroke:#A80036;stroke-width:1.0;"/><!--MD5=[57a9370bb14c7d397b2ff4e8411e4f02]
@startuml
SearchShipController ..>BSTShip
SearchShipController ..>Company
SearchShipController ..>Ship
SearchShipController ..>BSTDynData


SearchShipController : +getMaxCog(list)
SearchShipController : +getMaxSog(list)
SearchShipController : +getSumCog(list)
SearchShipController : +getSumSog(list)
SearchShipController : +makeSummary(path)

Company : -bstShips: BSTShip
Company : +Company()
Company : +getBstShips()
Company : +setBstShips(ShipBST)

Company ..>BSTShip

BSTDynData : +Departure()
BSTDynData : +Arrival()
BSTDynData : +inOrder()
BSTDynData : +size()
BSTDynData : +travelledDistance()
BSTDynData : +inorderCalculateDistance()
BSTDynData : +shipDynData()

BSTShip : +inOrder()

Ship : +IdentifyTheShip(path)
Ship : +ShipSearchByMmsi(mmsi)
Ship : +ShipSearchByImo(imo)
Ship : +ShipSearchByCallSign(callsign)
@enduml

PlantUML version 1.2021.14(Fri Nov 12 16:46:50 UTC 2021)
(GPL source distribution)
Java Runtime: Java(TM) SE Runtime Environment
JVM: Java HotSpot(TM) 64-Bit Server VM
Default Encoding: UTF-8
Language: en
Country: US
--></g></svg>